<?xml version="1.0" standalone="no"?>
<!DOCTYPE svg PUBLIC "-//W3C//DTD SVG 1.1//EN" "http://www.w3.org/Graphics/SVG/1.1/DTD/svg11.dtd" >
<svg xmlns="http://www.w3.org/2000/svg" xmlns:xlink="http://www.w3.org/1999/xlink" version="1.1">
<metadata>
Created by FontForge 20230101 at Tue Jan 18 00:36:08 2005
 By Glenn Lewis
http://fonts.tom7.com/ - Hockey is Lif Copyright (c) 2005 Tom Murphy 7 - Use and distribute freely, but don't sell the font! - imightbetm@aol.com - 339 Still Hill Rd - Hamden CT 06518 - I want the score, Hartford!!
</metadata>
<defs>
<font id="HockeyisLif" horiz-adv-x="30" >
  <font-face 
    font-family="Hockey is Lif"
    font-weight="500"
    font-stretch="normal"
    units-per-em="1024"
    panose-1="2 0 6 3 0 0 0 0 0 0"
    ascent="819"
    descent="-205"
    x-height="419"
    cap-height="728"
    bbox="-27.2308 -223.364 808 786.803"
    underline-thickness="50"
    underline-position="-125"
    unicode-range="U+000D-20AC"
  />
<missing-glyph horiz-adv-x="443" 
d="M34 0v682h341v-682h-341zM68 34h273v614h-273v-614z" />
    <glyph glyph-name="ellipsis" unicode="&#x2e;&#x2e;&#x2e;" horiz-adv-x="580" 
d="M446 166q16 4 34 0q16 -4 33 -20l6 -15q8 -16 8 -37q-1 -37 -36 -54q-17 -8 -38 -5q-11 1 -19 3q-10 3 -26 18q0 1 -12 21v17q0 39 31 63q9 6 19 9zM254 169q16 4 34 0q16 -4 33 -20l6 -15q8 -16 8 -37q-1 -37 -36 -54q-17 -8 -38 -5q-11 1 -19 3q-10 3 -26 18
q0 1 -12 21v17q0 39 31 63q9 6 19 9zM80 166q16 4 34 0q16 -4 33 -20l6 -15q8 -16 8 -37q-1 -37 -36 -54q-17 -8 -38 -5q-11 1 -19 3q-10 3 -26 18q0 1 -12 21v17q0 39 31 63q9 6 19 9z" />
    <glyph glyph-name=".notdef" horiz-adv-x="443" 
d="M34 0v682h341v-682h-341zM68 34h273v614h-273v-614z" />
    <glyph glyph-name=".null" horiz-adv-x="0" 
 />
    <glyph glyph-name="nonmarkingreturn" unicode="&#xd;" horiz-adv-x="341" 
 />
    <glyph glyph-name="space" unicode=" " horiz-adv-x="416" 
 />
    <glyph glyph-name="exclam" unicode="!" horiz-adv-x="211" 
d="M55 68q10 10 16 10q10 0 22 -16q2 -4 3 -7q8 -33 3 -49q-16 -57 -55 -37q-10 6 -13 19q-1 13 -1 24q1 26 21 52zM104 690q14 7 48 -2q6 -1 9 -3q5 -2 5 -6q0 -3 4 -6q4 -2 1 -18l-4 -20q-3 -13 -8 -57l-21 -140q-1 -2 -2 -20q-5 -61 -13 -76q-3 -6 -8 -50q-4 -44 -7 -57
q-2 -13 -2 -49q1 -35 -1 -44l-2 -11l-1 -1h-19q-28 -6 -37 0q-1 1 2 22l2 10q5 39 8 98q1 23 2 28l11 64q4 97 7 103l5 129q0 2 14 94q1 10 7 12z" />
    <glyph glyph-name="quotedbl" unicode="&#x22;" horiz-adv-x="321" 
d="M33 698q7 7 15 1q2 -3 8 -1q7 1 20 -3q13 -3 18 -4q5 -2 6 -3q3 -2 0 -123q-1 -51 -4 -54q-6 -8 -31 -3q-5 1 -7 2q-6 4 -6 8t-3 10q-3 5 -4 8q0 2 -2 14q-4 23 -5 43q-2 15 -4 34q-9 64 -1 71zM200 713q17 4 46 -2q3 -2 7 -3t5 -3q1 -3 5 -3q8 0 8 -35v-23q1 -9 -5 -73
q-5 -55 -11 -61q-3 -4 -13 -3q-9 2 -14 -2q-4 -3 -14 1q-9 3 -11 14q-1 8 -3 47q-2 38 -3 50t-2 53q-1 42 5 43z" />
    <glyph glyph-name="numbersign" unicode="#" horiz-adv-x="681" 
d="M480 708q18 4 43 -7q7 -3 7 -5t-3 -10l-7 -62q-3 -26 -7 -43q-1 -4 -2 -15t-4 -27t-4 -34t5 -20q4 -1 24 1q19 2 42 3q22 0 35 2q32 6 30 -5l-3 -6q-4 -6 -5 -11q-4 -19 -11 -21q-3 0 -8 -4q-4 -5 -18 -5q-15 -1 -27 -2q-13 -2 -32 -2q-10 0 -37 -5l-3 -18q-3 -19 -6 -46
q-3 -26 -7 -34q-4 -7 -6 -35q-3 -39 -4 -42q-2 -10 3 -11h7l20 -1q33 1 38 -4q5 -7 3 -12q-1 -5 -2 -16q-2 -19 -16 -21q-4 0 -11 -1q-6 -1 -26 -2q-21 -2 -23 -4t-3 -17t-8 -56q-6 -41 -5 -45q0 -4 -2 -13t-12 -14q-10 -6 -15 -4q-4 2 -15 3q-18 0 -26 15q0 4 4 19l9 97
q0 5 -1 6q-4 4 -128 0q-19 0 -19 -1q-5 -6 -9 -58q-1 -21 -3 -36q-4 -49 -13 -53q-23 -5 -51 4q-4 4 -2 7t3 16t5 28q8 32 10 80v15l-24 -1q-10 0 -85 -8h-4q-38 -3 -43 2l4 20q4 19 6 23q4 5 35 5q32 1 37 2q21 6 61 5q17 0 17 4t1 13t4 35q5 47 9 56q3 8 5 20q1 13 3 18
q1 5 4 28l3 22h-6q-26 2 -70 -4q-13 -2 -17 4q-9 12 1 29l2 4q5 6 5 11q0 4 2 5q2 2 47 3q46 1 47 3q1 1 1 10q0 10 4 37q5 33 8 80q3 36 7 49t4 25q0 13 2 16q4 7 30 0q5 -1 8 -3q8 -4 17 -4q8 0 9 -7t-2 -15q-5 -13 -10 -58l-4 -40l-7 -47q-2 -18 -5 -29q-2 -11 1 -12
q9 -4 75 2q6 0 8 1q6 1 35 3q28 1 30 2q4 1 8 52q2 19 5 36l11 119q-2 12 17 16zM431 427l-49 1h-2q-1 -1 -33 -2q-64 -2 -68 -7q-3 -5 -7 -53q-2 -27 -6 -35q-7 -14 -14 -90q-1 -13 0 -13q3 -3 71 5q20 2 64 3q14 0 17 2t4 15q2 13 7 46t8 55q2 21 6 47q4 25 2 26z" />
    <glyph glyph-name="dollar" unicode="$" horiz-adv-x="444" 
d="M240 763q18 3 38 -7l30 -16q1 -3 -8 -13q-6 -7 -12 -19q-7 -13 -4 -16q3 -4 7 -3q12 3 92 -59q28 -21 27 -24q0 -8 -23 -40q-9 -13 -15 -16q-4 -2 -33 23q-21 20 -26 23q-14 7 -16 9q-5 8 -48 21l-6 2q-35 9 -62 -5q-29 -14 -47 -68q-13 -38 0 -73q7 -18 20 -32
q11 -12 13 -16q3 -4 15 -9q44 -20 57 -26q36 -16 65 -41q7 -6 14 -11q14 -10 40 -44l10 -18q9 -10 15 -47q5 -35 -14 -80q-3 -7 -7 -13q-8 -13 -11 -19q-4 -10 -22 -30q-2 -2 -3 -4q-15 -17 -52 -33q-36 -15 -58 -15q-7 0 -10 -9l-9 -22q-9 -28 -13 -29q-1 0 -13 5
q-52 22 -52 21q-4 3 -2 5q9 7 16 33l1 10l-14 3q-13 3 -30 15q-35 22 -46 31q-3 4 -9 9q-6 6 -5 12q3 14 27 39q5 6 8 6q4 0 20 -14q21 -21 42 -31q64 -31 112 -21q14 2 24 9q23 16 37 42q20 35 21 66q0 28 -14 53q-2 4 -4 6q-22 21 -40 30q-2 0 -75 47q-17 11 -24 14
q-16 9 -23 15q-4 4 -18 15q-26 19 -40 45q-19 36 -8 96q2 12 6 23q15 46 47 83q10 11 14 14q8 6 26 17q16 10 37 13q12 1 13 4l11 32q6 15 6 23t5 9z" />
    <glyph glyph-name="percent" unicode="%" horiz-adv-x="515" 
d="M342 373q8 6 23 6q14 0 26 -9q12 -10 21 -37q10 -29 10 -70q-5 -44 -43 -61q-30 -14 -52 -1q-33 19 -32 72v4q2 27 14 50l2 4q16 31 31 42zM340 306q-8 -19 7 -48q4 -9 9 -11q11 -4 20 13q1 1 2 3q9 24 0 51q-3 13 -11 18q-10 8 -22 -14q-3 -6 -5 -12zM140 584q5 6 27 -5
q20 -10 26 -27q4 -13 4 -51q0 -37 -7 -48q-8 -11 -17 -18l-13 -11q-10 -9 -36 -12q-13 1 -19 6q-29 21 -33 30q-9 18 -5 41l9 35l2 4q13 31 39 48q8 5 15 6q7 2 8 2zM129 536q-6 -1 -9 -6q-2 -3 -5 -9q-15 -25 -5 -49q8 -15 26 -12q12 4 18 35q1 4 1 8q2 30 -19 33h-7z
M407 618q11 13 20 13q14 0 28 -12q2 -2 7 -5q9 -5 1 -18q-1 -2 -3 -4l-20 -22q-16 -16 -23 -24l-37 -37q-3 -2 -39 -43q-36 -40 -42 -45q-5 -5 -7 -9q-4 -10 -70 -82l-7 -7q-14 -15 -14 -17t-14 -15q-28 -27 -67 -74q-12 -14 -31 -43q-2 -4 -8 -8q-10 -5 -16 -2l-19 17l-2 2
q-10 12 -12 12q-6 0 2 14q2 3 4 5q13 14 35 45q4 4 45 48q5 5 8 9l87 93q3 4 5 6q13 19 97 103q51 52 92 100z" />
    <glyph glyph-name="ampersand" unicode="&#x26;" horiz-adv-x="529" 
d="M346 692q64 -11 86 -37q2 -3 4 -4q26 -24 44 -76q8 -23 8 -41q1 -22 -2 -43q-5 -31 -30 -76q-4 -8 -7 -11l-15 -15q-27 -30 -74 -46q-12 -5 -32 -9q-52 -11 -52 -21q0 -2 2 -4q5 -5 11 -15q7 -13 61 -81q9 -14 12 -15q6 4 16 22t24 65q3 9 6 10q7 2 52 -16q3 -1 0 -10
l-3 -10l-13 -32q-3 -7 -18 -38l-21 -43q0 -4 5 -10q59 -70 62 -72q11 -9 1 -18q-12 -11 -15 -15q-4 -4 -16 -13q-9 -6 -12 -4l-65 83q-6 7 -7 4q-11 -14 -46 -39q-5 -4 -8 -5q-22 -10 -32 -13q-10 -4 -16 -6q-15 -6 -74 -4q-11 1 -13 2l-28 3q-32 9 -42 16q-25 17 -43 41
q-23 35 -26 93q-1 32 18 82q1 3 2 4q5 11 10 16q36 38 41 40q4 1 25 15t35 18q13 3 13 7q-4 14 -18 45q-4 8 -5 20q-2 30 -1 41q3 40 8 48l16 43q14 31 33 57q14 19 36 37q20 15 24 15l7 3q34 13 72 12zM363 624q-49 11 -69 -3q-39 -13 -76 -78q-10 -20 -12 -52
q0 -19 22 -83l11 -22q2 -8 40 -7q12 0 20 2q15 4 20 5q22 3 53 27l3 3q11 12 14 12q2 0 13 16q12 18 22 89q2 18 -3 33q-5 17 -16 31q-17 22 -42 27zM221 300q-12 16 -39 8q-27 -11 -34 -15l-18 -12q-17 -10 -34 -46t0 -87l4 -10q16 -38 49 -46q57 -10 100 1q33 8 60 44
q6 8 10 12q5 4 -1 14q-6 11 -17 24l-57 82q-4 5 -11 15t-12 16z" />
    <glyph glyph-name="quotesingle" unicode="'" horiz-adv-x="153" 
d="M50 708q30 3 32 0q1 -2 7 -1q5 1 16 -2q11 -4 14 -3q6 2 4 -7q0 -2 4 -2q3 0 3 -2q0 -3 -2 -3q-4 0 -7 -26q0 -5 -1 -19q-2 -19 -6 -92q-1 -26 -4 -30q-2 -5 -19 -5t-22 -1q-11 -2 -14 13q0 4 -1 11q-1 31 -7 60l-3 18q-1 13 -2 19q-8 52 -11 60t6 10q4 1 13 2z" />
    <glyph glyph-name="parenleft" unicode="(" horiz-adv-x="231" 
d="M144 718q15 16 25 14q3 0 8 -2q20 -7 24 -19q-2 -8 -23 -28q-16 -17 -44 -73q-14 -30 -19 -50q-2 -11 -7 -26q-11 -31 -15 -73q-4 -24 1 -108q2 -51 5 -67q0 -4 12 -43q0 1 25 -61l15 -36q10 -22 13 -27q4 -4 15 -21l22 -33q1 0 -4 -4q-7 -6 -7 -7q-2 -2 -18 -14
q-19 -13 -22 -13q-13 2 -31 29q-24 35 -51 95q-8 15 -12 30q-3 11 -7 23q-9 21 -11 59q-6 85 -5 113q2 31 3 38q2 10 4 29q2 31 8 52q6 18 5 20q-4 5 18 67q5 13 7 16l13 33q19 45 33 60q7 7 7 10q0 2 13 17z" />
    <glyph glyph-name="parenright" unicode=")" horiz-adv-x="226" 
d="M59 761q1 3 4 3q18 0 35 -21q39 -48 42 -56l29 -67q1 -2 5 -19q3 -16 5 -20q7 -14 15 -71q5 -29 2 -89q0 -5 1 -15q1 -35 -10 -76q-2 -9 -3 -16q-2 -19 -5 -28t-4 -14q-9 -48 -10 -51q-2 -2 -4 -18q-2 -17 -8 -36l-27 -86q0 -3 -25 -54q-2 -5 -2 -8q0 -10 -15 -10
q-4 -1 -6 1l-17 8q-4 2 -19 11q-10 6 -10 10q2 15 9 25q39 60 56 189q4 26 5 30l11 88q1 23 1 40q-2 99 -14 137q-2 4 -2 10q-6 47 -34 104q-12 26 -25 38q-10 11 -9 17q1 3 5 8q18 23 24 36z" />
    <glyph glyph-name="asterisk" unicode="*" horiz-adv-x="326" 
d="M182 702l8 -3l-1 -30q-2 -31 0 -40l2 -10l10 7q36 28 45 37q14 16 22 13l13 -29q2 -3 6 -15l11 -22l-1 -2q-5 -9 -24 -18q-13 -4 -27 -13q-13 -8 -19 -10q-7 -2 -3 -7l6 -8q5 -9 23 -26q25 -24 18 -34q-2 -3 -5 -6q-8 -7 -21 -15q-13 -7 -17 -16q-5 -8 -12 -8
q-8 1 -16 16q-1 2 -3 5q-10 20 -16 27l-11 18q0 5 -4 2q-2 -1 -3 -5q-1 -5 -8 -29q-8 -24 -8 -28q0 -7 -15 -14q-7 0 -12 3q-12 8 -20 11q-16 6 -21 8q-6 2 -5 5l8 14l19 30l1 1q3 8 13 24q9 16 8 17t-32 8q-38 10 -45 10q-10 1 -15 10q-2 3 -1 5q9 12 9 29q0 8 7 21l38 -12
l2 -1l33 -11h5q9 2 4 27l-11 48q-1 9 10 10q5 1 22 2z" />
    <glyph glyph-name="plus" unicode="+" horiz-adv-x="391" 
d="M199 640q13 1 15 -13q1 -7 2 -41t4 -49q3 -16 6 -36q3 -21 5 -23l92 9q27 3 33 -7q2 -2 3 -6q4 -9 1 -14q-3 -6 -3 -22t-5 -19q-4 -3 -59 -3q-54 -1 -55 -2q-2 -2 1 -31l7 -104l2 -9q1 -23 7 -30q4 -3 3 -10q-2 -7 -11 -10q-10 -3 -13 -3q-4 1 -20 -1q-20 -3 -22 8
q-1 4 0 10q0 11 -4 33q-3 21 -3 47v55q0 28 -3 37l-3 10l-56 -1l-66 1q-11 -2 -13 -2q-1 0 -7 5q-5 5 -4 16l3 32l54 -1q13 0 28 1q50 3 53 5q0 1 -5 36q-10 63 -11 90q-2 19 -3 25q-2 7 10 10q6 2 17 3z" />
    <glyph glyph-name="comma" unicode="," horiz-adv-x="180" 
d="M66 119q3 6 7 4q12 -6 46 -6q22 1 27 -4q8 -7 -2 -21q-8 -11 -15 -42q-5 -37 -30 -83q-6 -11 -10 -13q-8 -4 -44 -2q-7 1 -7 2l-2 4q0 3 14 61q7 31 12 83q1 12 4 17z" />
    <glyph glyph-name="hyphen" unicode="-" horiz-adv-x="476" 
d="M369 461q5 2 11 1q7 -1 25 -2t22 -1q10 0 14 -23q0 -4 1 -7q0 -13 3 -27q4 -17 -5 -19q-5 -2 -20 -1q-20 2 -35 2q-28 2 -35 1l-249 -2h-6q-5 1 -24 0l-31 -3q-3 1 -4 4l-10 51q0 7 13 15q6 2 79 2q73 1 77 3q10 3 137 4q31 0 37 2z" />
    <glyph glyph-name="period" unicode="." horiz-adv-x="193" 
d="M80 166q16 4 34 0q16 -4 33 -20l6 -15q8 -16 8 -37q-1 -37 -36 -54q-17 -8 -38 -5q-11 1 -19 3q-10 3 -26 18q0 1 -12 21v17q0 39 31 63q9 6 19 9z" />
    <glyph glyph-name="slash" unicode="/" horiz-adv-x="403" 
d="M301 713q8 9 31 -4q16 -9 26 -12t12 -9q1 -5 3 -9l-12 -25q-6 -8 -6 -11q0 -7 -15 -29q-2 -1 -12 -27q-11 -29 -59 -128q-18 -38 -18 -39l-35 -70q-2 -1 -2 -4q0 -4 -2 -4t-9 -15q-27 -59 -29 -69q-2 -6 -13 -33q-10 -26 -14 -36q-4 -11 -13 -30t-25 -64q-15 -45 -19 -48
t-4 -5t-7 -5q-6 -3 -24 5q-18 9 -21 9q-6 0 -4 16q1 6 3 8q3 1 9 16q7 14 11 21t12 30q38 111 51 130q4 5 4 12t2 10q2 2 11 24q9 23 11 23q2 1 2 4t4 7t16 36q12 31 15 37q4 6 4 9t15 35q32 72 74 180q0 4 3 5q2 1 6 15q10 36 18 44z" />
    <glyph glyph-name="zero" unicode="0" horiz-adv-x="409" 
d="M210 686q6 2 21 -2q14 -3 21 -4q17 -3 52 -26q13 -9 24 -33q2 -3 2 -5q2 -6 8 -18t11 -31t10 -33q18 -62 21 -101q1 -3 1 -7q1 -25 4 -39q3 -15 1 -26q-1 -9 -2 -114q0 -50 -12 -101q-5 -20 -6 -28t-8 -26l-9 -25q-3 -8 -8 -15q-4 -6 -4 -9t-6 -6q-5 -3 -16 -11
q-19 -15 -66 -15q-8 -1 -19 -1q-47 1 -61 8q-6 2 -22 11q-18 11 -22 13q-3 1 -8 6q-4 5 -5 5q-5 0 -24 24q-5 6 -6 8q-1 7 -5 8q-3 1 -3 7t-6 15q-7 9 -9 17q-1 7 -3 10q-8 11 -19 53v5q-12 87 -6 145q1 6 1 8q3 10 6 51t9 70l18 69q2 7 4 12q6 11 9 19q17 42 43 68
q21 22 28 25q23 11 41 14q14 2 20 5zM224 635q-2 0 -15 1q-23 1 -50 -34q-33 -44 -40 -76q-1 -3 -1 -6q-1 -6 -4 -17l-15 -81q-4 -34 -5 -61q-1 -56 3 -101q5 -59 27 -120q16 -42 37 -57q34 -25 44 -28q29 -9 46 -2l27 20q31 26 35 52q10 59 14 169q1 39 -4 95q-5 43 -7 76
q-3 52 -35 109q-10 19 -15 27q-14 29 -37 34h-5z" />
    <glyph glyph-name="one" unicode="1" horiz-adv-x="371" 
d="M143 678q4 3 30 3q26 -1 27 -3q2 -2 3 -73q0 -72 1 -84q7 -67 4 -164q0 -11 -1 -13q-6 -21 -2 -127q1 -11 2 -19q3 -43 4 -111v-19h45q44 1 47 0q7 -2 21 -2q10 0 13 -7q1 -2 2 -5q5 -13 5 -20q0 -8 2 -10q4 -3 -16 -6h-8q-9 6 -214 -2q-46 -1 -54 -3q-10 -2 -10 3
q0 6 -4 6q-6 0 -4 10q3 2 0 8q-3 5 -1 5t-1 4q-8 9 13 14q11 2 28 2h52l28 1l-2 67q-1 68 -3 77q-5 22 -4 98v214q-1 2 -2 42q0 38 -4 40q-4 1 -23 -8q-18 -8 -28 -9q-11 -1 -15 6q-9 18 -15 26q-5 5 -4 13q3 13 11 13q2 -2 6 1q5 2 13 3q9 2 28 11t23 9q3 0 3 2q0 3 4 7z
" />
    <glyph glyph-name="two" unicode="2" horiz-adv-x="486" 
d="M226 685q46 1 67 -9q9 -5 22 -12q33 -20 57 -48q12 -14 33 -54q9 -17 18 -48q6 -21 5 -49q0 -17 -11 -64q-1 -3 -1 -5q-6 -24 -39 -73q-5 -8 -8 -13q-15 -25 -19 -28q-2 -1 -17 -22q-17 -23 -88 -96q-33 -34 -39 -42q-5 -7 -11 -11q-5 -4 -17 -17l-13 -21l11 -2
q12 -2 35 -1q26 2 163 5q45 1 69 5q16 3 21 -5q3 -6 -5 -28l-12 -31q-4 -4 -25 -2h-19q-26 -2 -49 3l-135 -1l-159 -3q-9 1 -11 40v6q-1 21 9 19q5 -1 27 11q2 1 3 2q10 3 40 31l4 4q0 2 32 35q74 77 86 94q1 1 50 64l14 18q24 26 49 98q8 23 10 40q2 12 -6 32q0 15 -22 53
l-4 6q-27 40 -41 47q-34 19 -64 18q-48 -2 -63 -8q-7 -4 -13 -8q-26 -19 -64 -63q-1 -2 -3 -4q-5 -6 -9 -24q-3 -8 -11 -8q-3 0 -10 1l-26 5q-5 1 -6 2q-4 5 2 26l10 22q8 17 18 27q10 11 18 20q14 16 49 36q10 6 21 13q29 18 73 17h4z" />
    <glyph glyph-name="three" unicode="3" horiz-adv-x="456" 
d="M214 691q9 3 21 -3q9 -5 19 -7q10 -1 10 -3t9 -5q10 -4 13 -6q48 -39 48 -46q0 -3 4 -3q3 0 5 -8q1 -8 6 -15q10 -14 14 -60q1 -7 1 -12q-3 -39 -9 -46q-3 -3 -3 -7q0 -14 -24 -46q-4 -5 -7 -8q-13 -13 -13 -15q0 -5 23 -11q3 0 3 -3t3 -3q4 0 15 -10q11 -11 20 -17
q8 -7 11 -17t7 -13t4 -6q0 -2 3 -6q13 -15 17 -33q0 -4 6 -17q6 -12 6 -40q1 -29 -1 -31q-3 -4 -14 -48q-2 -11 -5 -11q-2 0 -2 -4q0 -3 -3 -7q-3 -3 -12 -20q-15 -31 -34 -44q-3 0 -3 -2q0 -5 -23 -20q-5 -3 -6 -2q-2 0 -2 -4q0 -5 -6 -3q-1 0 -23 -12q-27 -14 -56 -16
q-15 -2 -33 -5q-41 -7 -65 2q-37 12 -87 40q-5 2 -5 3q-2 2 -9 5t-7 15q0 11 5 15q5 5 8 13t7 13q4 4 15 0q12 -4 12 -8q0 -3 5 -3t8 -4t6 -4q4 0 19 -7t17 -7q1 0 3 -2t6 -2t11 -5q8 -6 8 -4q0 1 13 -3t22 -3q9 0 10 -1q4 -4 30 5l8 2l29 14q1 1 9 5q19 10 43 41q3 5 5 8
q9 15 14 42q12 65 10 80q-2 12 -1 14q1 7 -18 39q-2 4 -4 5q-6 8 -6 12q0 3 -6 6q-5 3 -5 7q0 3 -4 3q-3 0 -11 8q-13 13 -37 18q-27 7 -55 -1q-4 -1 -7 8q-4 9 -5 9q-2 0 -2 20v20h24h23l14 12q24 19 24 22q0 2 5 8q5 7 5 13q0 7 3 5q2 -2 3 1q1 14 7 25q11 19 4 58
q-2 7 -4 12t-5 17q-6 24 -31 36l-24 10q-24 11 -45 1l-24 -10q-13 -6 -21 -13q-30 -25 -37 -39q-10 -19 -19 -18q-9 2 -24 21q-3 4 -4 6q-2 7 -7 8q-9 2 -5 16q1 4 4 6q4 4 24 23q19 18 23 18t8 5t6 5q8 0 37 18q1 3 15 4q14 2 16 4q2 1 12 1q9 -1 15 2z" />
    <glyph glyph-name="four" unicode="4" horiz-adv-x="382" 
d="M279 683q7 1 22 1h25l-1 -26q0 -64 -10 -120q-7 -40 -5 -104q1 -7 1 -9q2 -6 21 -10q19 -3 22 -7q6 -7 -2 -25q-2 -2 1 -5q6 -7 -5 -12q-3 -2 -8 -2q-8 1 -8 3t-11 2h-12l-2 -14q-2 -13 -2 -33q-1 -19 -3 -23q-3 -6 -6 -43q-3 -32 -6 -50t-3 -88q-1 -69 3 -74q4 -4 1 -6
t-1 -11t-5 -11q-8 -2 -11 0l-27 -2q-1 -2 -9 2q-7 4 -6 14q0 9 2 36q1 28 4 56q4 52 6 130q3 84 9 93q3 6 2 14v9h-28q-125 2 -147 -1q-42 -7 -48 0t2 32q6 16 7 28q2 27 3 32q3 8 6 25t7 37q8 40 11 69q3 23 8 43q5 19 4 28q-3 12 1 14q3 1 15 1q26 -1 29 -4q2 -2 4 -6
q5 -8 1 -13t-4 -14l-8 -37q-2 -12 -6 -29q-3 -17 -5 -26l-6 -50l-12 -67l-1 -19l75 -1q59 0 59 2t11 0t18 -1q6 1 8 9q0 3 1 12q1 10 2 42q1 14 3 34q7 91 8 142q0 30 6 33z" />
    <glyph glyph-name="five" unicode="5" horiz-adv-x="519" 
d="M435 688q3 4 15 -1q2 -2 8 -2t10 -5q5 -6 2 -12q-6 -13 -8 -30q0 -6 -21 -10q-3 -1 -5 0q-7 0 -20 1q-56 7 -59 6q-8 -5 -145 -6q-21 0 -21 2q0 4 -35 -2q-4 0 -25 -1h-14l1 -35q1 -35 -4 -74l-13 -74q-1 -8 -1 -16v-17l13 1q24 4 29 7q8 4 49 4q36 1 41 -1t26 -4t24 -4
q2 -2 11 -2q15 0 64 -20q39 -16 58 -36q4 -5 3 -7q-2 -3 1 -3t5 -4q1 -5 9 -14q11 -14 15 -21t3 -9q0 -2 7 -12q8 -11 8 -15t4 -5q11 -4 7 -69q-2 -30 -7 -46q-4 -10 -4 -19q0 -18 -22 -50q-4 -6 -7 -9q-7 -8 -7 -10q0 -5 -28 -27q-4 -4 -6 -5q-5 -3 -18 -13q-13 -9 -19 -12
q-7 -3 -13 -7q-7 -3 -25 -8q-32 -8 -41 -8q-86 -2 -91 4q-4 5 -64 12h-7q-11 1 -14 5q-6 7 -28 12h-5q-4 0 -9 4q-5 3 -14 5q-8 2 -8 12q0 9 5 19l13 20q6 10 10 11q4 0 11 1q8 2 8 -1q0 -7 25 -25q16 -12 23 -11q5 1 11 -1q21 -10 97 -9q17 0 27 2q38 5 82 26q6 3 37 39
q3 3 3 4q12 23 13 31q0 6 2 19q9 53 -9 106q-8 23 -19 33q-37 31 -47 38q-11 8 -44 20q-12 4 -68 6h-36q-40 7 -72 -5q-16 -7 -23 -8q-8 -1 -19 -6q-26 -13 -35 -5q-6 8 -4 23q3 0 2 8q-1 7 1 19q3 11 4 24q1 14 4 21q3 8 7 40q4 31 5 38q6 31 6 55q0 4 2 21q1 17 1 43
q1 26 4 31q3 4 14 4t11 5q0 4 3 1q6 -6 44 -3q8 1 11 2q5 3 49 4z" />
    <glyph glyph-name="six" unicode="6" horiz-adv-x="500" 
d="M311 685q5 5 35 1q5 -1 7 -2q3 -3 7 -1q4 1 4 -1t6 -3q5 -1 5 -11v-13q-1 -27 -7 -30q-4 -3 -26 -2q-53 0 -72 -11q-4 -3 -20 -9q-15 -6 -23 -12q-7 -6 -9 -6q-6 0 -44 -42q-5 -6 -8 -9q-10 -14 -13 -15q-2 -2 -22 -40q-32 -59 -38 -106q-2 -14 2 -11q1 0 3 4q1 4 5 4
q3 0 13 9q11 9 21 14q9 5 11 8q3 5 33 15q12 4 26 11q17 9 59 13q49 4 56 0l36 -10q4 0 4 -2t9 -7q19 -9 41 -36l18 -21q8 -9 11 -19q3 -11 9 -19q20 -27 21 -93v-14q-3 -59 -7 -69q-3 -10 0 -11t-6 -16t-12 -25q-3 -11 -9 -20q-6 -10 -8 -15q-3 -10 -32 -35q-5 -4 -8 -6
q-7 -5 -11 -10q-3 -5 -9 -5q-5 0 -6 -4q-2 -4 -8 -4t-8 -2q-1 -3 -7 -3t-24 -3q-18 -2 -30 -3q-11 -2 -16 -4q-6 -3 -23 -1q-18 2 -23 1q-6 0 -8 2q-1 3 -4 2q-2 -2 -8 1q-6 4 -7 4l-69 35q-3 2 -4 2q-5 5 -13 9q-8 5 -10 9q-3 5 -7 9q-20 22 -23 36q-10 35 -19 43
q-3 0 -2 4q2 3 -2 14q-8 22 -13 58q-10 69 -3 127q1 7 2 11q12 34 13 65q0 18 21 62q30 56 36 63t12 16q5 9 13 16q8 8 12 15q11 20 36 38l4 2q10 6 12 10q2 7 48 28q6 3 9 4q22 8 33 8q14 0 28 8zM324 383q-30 11 -62 5q-7 -1 -9 -3q-3 -2 -22 -7q-46 -12 -80 -41l-6 -6
q-25 -26 -25 -30q0 -3 -6 -12q-7 -8 -8 -13q0 -5 -4 -12q-12 -18 -10 -30q2 -3 0 -5q-8 -5 2 -45q12 -44 19 -51q1 -1 8 -15q14 -27 37 -39q8 -4 15 -9t19 -8q12 -2 18 -8q9 -9 43 -10q10 -1 13 -2q9 -6 58 6q28 7 53 37q4 6 7 11q7 11 9 11q3 0 7 15t8 23q11 24 8 83
q-1 35 -11 65t-15 38q-6 8 -9 15q-4 7 -13 12q-10 5 -11 7q-8 8 -33 18z" />
    <glyph glyph-name="seven" unicode="7" horiz-adv-x="548" 
d="M394 693q4 1 15 0q20 -2 38 -1h24h22l7 -12q8 -11 6 -16q-1 -5 6 -22l6 -16l-7 -4q-8 -3 -8 -5q-1 -3 -19 -23q-27 -28 -33 -38q-13 -20 -34 -42q-7 -8 -7 -11t-2 -4q-5 -3 -19 -28q0 -6 -24 -34q-2 -3 -5 -10q-2 -7 -12 -23q-10 -17 -18 -33t-14 -22t-9 -13l-8 -17
q-5 -10 -4 -12q2 -1 -1 -4q-2 -3 -6 -18t-8 -23l-37 -87q0 -1 -1 -2q-1 -7 -5 -14t-4 -13t-3 -14q-4 -9 -6 -19q-2 -11 -8 -30q-15 -47 -9 -55q3 -4 1 -4q-3 0 -4 -5q-2 -5 -15 -6q-12 -2 -20 -1q-7 1 -7 -1t-8 -2q-9 1 -14 11l-6 10l6 9q6 10 9 26q4 16 8 25q5 8 5 13
q0 18 25 73q4 9 4 12q0 10 21 53q1 2 1 4q5 8 5 11t2 8l21 52q0 8 17 33l3 3q7 8 40 72q31 62 36 62q2 0 2 3q0 2 14 23l23 35q9 14 13 19q5 5 8 13q7 17 31 41q11 11 10 14q-1 2 -9 1q-8 0 -8 2t-6 1q-14 -3 -60 -5q-12 -1 -33 -3t-123 -3q-101 -1 -116 -4q-14 -2 -24 -2
t-13 6q-2 3 -4 8q-7 15 -5 17q1 1 -2 7q-4 5 -4 14l-1 10h104q103 0 128 1q119 6 132 9z" />
    <glyph glyph-name="eight" unicode="8" horiz-adv-x="442" 
d="M204 683q0 2 21 2q25 -1 26 -4q0 -4 9 -5q9 -2 11 -4q3 -2 9 -3q6 -2 13 -8t9 -6q6 0 23 -29q2 -3 3 -5q14 -26 19 -72q5 -58 -13 -103q-10 -23 -26 -30q-5 0 -11 -5t-9 -5q-6 0 -1 -5l4 -2q6 -3 6 -5t11 -9q14 -10 44 -43q14 -16 17 -24q3 -6 5 -6t1 -5q-1 -6 3 -11
q5 -5 7 -13q2 -9 6 -19q9 -20 11 -61q1 -13 2 -22q3 -17 -4 -51q-7 -30 -27 -63q-26 -38 -47 -47q-3 -1 -6 -1q-5 0 -6 -2q-1 -3 -4 -4q-15 -2 -15 -6q0 -1 -6 -2q-18 -1 -51 -8q-12 -3 -16 -2q-5 2 -19 3q-14 2 -23 6q-10 3 -11 3t-7 3q-5 2 -12 3q-28 6 -67 43
q-13 13 -23 20q-9 7 -10 13q-2 5 -8 10t-6 11q-1 6 -2 8q-8 8 -14 37q-6 33 5 106q5 31 14 44q2 0 2 4l30 39q31 28 39 33q6 4 9 7t9 5q7 3 8 5l-37 17q-7 4 -13 10q-19 15 -27 58q-6 32 2 58l11 30q28 68 55 86q13 8 23 12q18 8 21 11q3 2 18 2q15 -1 15 1zM232 633
q-24 10 -37 7q-1 -1 -6 -1q-22 -3 -38 -18q-21 -20 -34 -63q-1 -6 -2 -11q-9 -51 5 -76q3 -6 7 -8l14 -13q27 -24 82 -24q15 -1 28 2q23 6 32 15q0 2 4 7q20 22 17 69q-1 14 -4 24q-20 58 -58 84zM218 369q-35 2 -36 3q-7 4 -41 -16q-1 -1 -3 -2q-18 -11 -27 -24t-15 -20
q-20 -22 -21 -47q-1 -12 -3 -12q-6 0 -6 -38q0 -36 11 -62q4 -3 4 -5q0 -9 18 -35q13 -17 38 -35q4 -3 5 -3q2 0 4 -3q5 -7 34 -16q9 -3 12 -1q3 3 7 1q4 -3 65 11q29 7 35 12q7 6 18 15q12 9 16 18q5 9 8 12q5 5 7 28q0 9 2 12q4 7 -1 61q-1 8 -2 10l-20 56q-13 30 -33 47
q-29 25 -44 29q-11 3 -32 4z" />
    <glyph glyph-name="nine" unicode="9" horiz-adv-x="485" 
d="M201 695q47 13 72 4q3 -3 6 -3q4 0 11 -4q8 -3 17 -7q24 -9 37 -25q0 -3 10 -7q10 -5 13 -7q15 -12 29 -30q10 -12 12 -13t2 -4q0 -4 5 -9q9 -9 11 -20q-1 0 3 -9t4 -18q1 -8 6 -30q10 -49 10 -117q0 -33 -1 -42q-6 -47 -10 -53t-6 -31t-5 -34t-2 -11q2 -8 -24 -81
q-3 -10 -5 -12q-2 -5 -7 -10q-6 -5 -15 -18q-9 -14 -11 -15q-1 -1 -3 -6q-2 -4 -6 -6q-5 -1 -8 -7t-4 -4q-2 2 -40 -27q-11 -9 -15 -9t-9 -3q-4 -4 -13 -6q-9 -1 -11 -3q-3 -2 -12 -3q-10 0 -25 -4q-15 -3 -41 -3q-25 0 -50 8q-56 17 -60 24q-3 5 -6 5q-4 0 -4 2t-8 7
q-16 10 -8 23q4 6 5 10q2 4 4 3t2 2q0 4 8 5q7 1 7 -1q0 -4 43 -23q3 -1 5 -2q60 -22 105 -10q28 8 37 12q19 8 27 18q2 3 5 3q6 0 30 27q4 5 7 8q6 10 12 17q16 18 16 28q0 3 2 3q4 0 11 24q0 2 4 6q4 5 8 18q15 41 17 69q0 6 4 10q4 3 4 11q0 9 2 23q2 15 4 42q1 25 -2 25
q-3 -1 -17 -27q-13 -27 -29 -42q-15 -16 -22 -20q-22 -12 -46 -21q-15 -6 -18 -8t-4 -1q-2 2 -12 -2q-24 -10 -75 -1q-15 2 -21 6q-5 3 -14 5q-8 2 -9 2q-1 1 -9 7q-7 7 -17 12q-16 9 -40 37q-6 7 -6 8q0 4 -4 7q-18 13 -22 52q-1 15 -3 27q-6 28 2 69q9 41 15 50q4 5 10 19
q6 15 7 16q2 1 7 12q9 16 22 28q6 5 6 8q0 4 3 4q4 0 4 2l2 2q1 -2 6 3q4 6 4 3q0 -2 7 6t13 9q6 2 10 5t11 5q7 1 33 8zM256 647q-19 7 -56 3q-4 -1 -7 -2q-28 -8 -72 -56q-6 -6 -6 -8q0 -1 -7 -12q-10 -14 -24 -54q-12 -34 0 -86q9 -43 17 -43q2 0 3 -5q3 -10 38 -27
q11 -5 16 -5q3 0 5 -3q2 -2 5 -1q2 1 15 -5t15 -6q2 1 8 -1q34 -9 76 4q24 7 48 31q21 21 27 39q1 4 9 30q13 45 7 81q-6 42 -17 54q-4 4 -11 16q-6 11 -17 20q-20 16 -42 23q-1 0 -12 5z" />
    <glyph glyph-name="colon" unicode=":" horiz-adv-x="270" 
d="M129 170q22 5 59 -7q15 -5 14 -50q0 -26 -9 -44q-12 -22 -22 -27l-12 -6q-17 -7 -47 5q-8 4 -12 7q-15 13 -15 45q0 19 11 40q15 32 33 37zM131 459q19 4 33 -9q22 -21 30 -38q3 -16 -10 -43q-2 -4 -4 -6q-3 -3 -17 -10q-32 -15 -56 0q-16 14 -16 29q-2 34 2 37q2 1 8 11
q12 21 30 29z" />
    <glyph glyph-name="semicolon" unicode=";" horiz-adv-x="216" 
d="M57 145q4 3 36 2q51 -1 54 -6q5 -8 0 -17q-5 0 -7 -33v-5q0 -4 -7 -32q-12 -55 -17 -90q-3 -19 -7 -21q-4 -1 -20 1q-17 2 -26 1q-17 -2 -19 8q0 4 5 12q4 8 6 17q6 37 6 62q1 58 -5 87q-2 12 1 14zM81 419q18 9 45 0q15 -4 30 -29q2 -3 3 -6q9 -20 -5 -48
q-7 -15 -15 -18q-2 -1 -8 -2q-33 -11 -56 0q-22 10 -30 30q-5 23 8 44q8 13 8 14q0 5 20 15z" />
    <glyph glyph-name="less" unicode="&#x3c;" horiz-adv-x="331" 
d="M251 685q3 3 7 3q13 0 24 -11q0 -3 10 -13q14 -15 14 -16q2 -10 -16 -29l-4 -4l-48 -60q-55 -58 -71 -82q-10 -14 -25 -31q-15 -16 -25 -32q-14 -22 -6 -41q1 -3 3 -7q21 -40 23 -58q1 -11 23 -56q8 -17 14 -33q6 -17 11 -25q4 -7 6 -13t14 -30q12 -25 12 -28
q0 -11 24 -60q2 -5 3 -6q10 -14 -4 -22q-3 -2 -6 -3q-9 -2 -15 -7t-8 -4q-1 2 -3 -1q-4 -6 -16 6q-5 4 -14 30q-14 39 -45 99q-6 11 -8 18q-3 21 -13 38l-8 20q-5 14 -7 17l-20 62v1q-1 7 -3 12l-7 18q-5 14 -7 17q-10 13 -16 37q-3 10 -8 14q-11 9 7 26q12 11 13 11
q2 0 13 16q11 17 22 28q22 24 29 36q6 10 42 50q2 3 8 11q6 9 20 23q13 15 31 40z" />
    <glyph glyph-name="equal" unicode="=" horiz-adv-x="544" 
d="M383 340q1 1 11 -1q17 -4 78 1q16 1 20 -8t2 -38q0 -4 -1 -5q-1 -2 -13 -3q-6 -2 -47 -1q-41 0 -109 -3t-122 -5q-101 -3 -107 -5q-6 -1 -14 -2q-9 -1 -25 -2q-18 -2 -19 6q-1 4 1 19q3 31 11 34q3 1 10 0q30 -3 94 1q21 1 27 3q27 5 138 7q64 1 65 2zM474 500q2 1 8 1
q8 0 10 -22q2 -17 -2 -24q-3 -6 -18 -7q-3 -1 -8 -1q-24 -2 -32 -3q-9 -1 -21 0q-41 1 -143 -2q-72 -2 -112 -2q-40 -1 -41 -2q-2 0 -23 -1q-22 -1 -40 -2l-17 -1l-3 9q-3 9 -3 12v19q0 6 3 9q6 7 25 7q4 -1 17 2q19 4 240 5q159 1 160 3z" />
    <glyph glyph-name="greater" unicode="&#x3e;" horiz-adv-x="349" 
d="M103 688q12 5 15 3l26 -35q5 -6 11 -11q20 -21 23 -29q8 -19 34 -51q9 -11 14 -19l15 -23q51 -61 65 -84q10 -13 10 -14t6 -8q5 -7 2 -15l-44 -66q-6 -13 -20 -28q-5 -4 -7 -9l-24 -37q-39 -65 -54 -86q-3 -6 -17 -30q-14 -25 -17 -28q-3 -4 -8 -14q-4 -11 -8 -14
l-29 -54q0 -7 -16 -23l-6 -9q-1 -1 -3 -1q-5 -2 -11 5q-6 6 -6 5q0 -2 -13 11q-9 9 -11 19l63 112q0 1 12 22q41 72 78 127q10 16 21 37q4 7 27 42q10 15 10 19q0 3 -9 12q-8 9 -11 14t-13 18q-10 14 -16 24q-21 37 -92 134q-10 13 -11 14l-12 14l-1 1q-6 0 -11 11
q-1 3 -1 5q0 5 5 8q18 9 28 24q1 4 6 7z" />
    <glyph glyph-name="question" unicode="?" horiz-adv-x="419" 
d="M146 98q29 14 52 0q29 -21 -2 -58q-12 -13 -35 -13q-39 0 -42 32q-1 12 7 22q8 11 20 17zM211 671q15 2 24 3q28 1 67 -23q5 -3 7 -5q34 -31 60 -84q12 -24 18 -54q2 -6 3 -10q5 -15 0 -56q-4 -25 -25 -57q-2 -3 -4 -5q-16 -18 -21 -22q-23 -18 -62 -33q-5 -1 -8 -2
q-18 -5 -30 -6q-33 -4 -35 -10q-3 -7 -2 -69q0 -48 1 -50q3 -8 -17 -13q-3 -1 -7 -1q-14 -2 -19 -3q-22 -6 -24 1q-2 4 -1 22q1 22 1 57q0 40 7 102q3 4 36 5q34 1 43 4l47 19q22 9 36 23q4 3 9 7q30 26 3 111q-11 35 -21 46q-3 3 -5 7q-5 10 -32 26q-2 2 -4 2l-19 10
q-13 6 -23 7q-51 5 -117 -70q-10 -11 -13 -14l-7 -6l-13 6q-14 6 -18 10l-20 9q-1 2 -1 5q0 5 54 54q10 8 12 9q10 6 11 7q18 23 95 39q8 1 14 2z" />
    <glyph glyph-name="at" unicode="@" horiz-adv-x="484" 
d="M241 719q8 3 27 3q24 0 33 -4l14 -4q28 -10 86 -58q12 -9 15 -13q1 -2 10 -23q23 -54 28 -143q1 -14 1 -26q0 -49 -8 -74q-17 -55 -38 -75q-22 -20 -27 -23q-4 0 -19 -5q-20 -6 -42 -6h-8q-23 6 -25 37v19q-2 0 -11 -20t-13 -20t-9 -5q-8 -7 -29 -7q-15 0 -26 4
q-26 11 -45 31q-15 19 -19 61v6q0 59 28 114q7 13 14 22q20 24 43 29q1 0 6 1q6 2 13 2q9 0 30 -4q27 -5 33 -11q8 -9 11 -69v-5q4 -123 25 -130q3 -1 7 -1q21 0 32 20q18 38 20 67q3 25 3 65q0 67 -10 100l-14 31q-21 39 -64 52q-6 1 -13 3q-18 4 -31 4q-20 0 -36 -8
q-45 -23 -73 -60q-18 -24 -24 -31q-8 -8 -22 -35q-16 -31 -23 -77q-4 -22 -5 -27q-2 -8 -2 -65t2 -74l5 -34l6 -31q2 -18 9 -34q13 -39 22 -50q15 -21 23 -27q11 -8 29 -16q33 -16 59 -16q22 0 68 22q37 18 63 56q9 13 12 25q2 12 8 14q4 2 18 -5q16 -6 18 -6q7 0 7 -10
t-8 -28q0 -5 -12 -29q-6 -16 -47 -52q-10 -10 -15 -12q-13 -6 -36 -13q-31 -9 -74 -9q-62 0 -88 13q-6 4 -14 9q-29 18 -55 50q-4 5 -6 8q-36 59 -46 133q-1 15 -1 61q0 63 2 99q3 46 14 79q29 76 41 97l26 41q15 21 38 39l27 21q28 25 62 37zM249 506q-6 4 -11 4
q-14 0 -27 -47q-3 -12 -3 -30q0 -60 20 -92q2 -4 4 -6q7 -8 14 -8q14 0 29 30q7 14 7 29q0 7 -1 30q-2 66 -21 83q-5 4 -11 7z" />
    <glyph glyph-name="A" unicode="A" horiz-adv-x="424" 
d="M194 709q7 7 21 6q3 0 12 -1q35 -4 38 -12q1 -3 1 -10q0 -19 7 -55l5 -26q0 -4 3 -19q1 -8 15 -98q6 -36 6 -35l13 -62q4 -23 7 -33q24 -87 37 -157l11 -46q1 -5 11 -42q10 -35 11 -38q7 -18 -7 -28l-4 -2q-16 -8 -33 -2q-9 11 -10 17q0 36 -25 152q-3 11 -5 19
q-5 19 -7 33q-9 51 -18 53l-15 1h-1q-63 6 -97 6q-31 0 -34 -5q-2 -3 -6 -22q-2 -8 -13 -56q-7 -31 -9 -45q-2 -17 -3 -18l-17 -108q0 -12 -5 -17q-8 -10 -38 2q-15 6 -14 11l12 40q1 14 34 134q1 3 6 23q21 89 29 114q6 25 10 49q7 34 9 45q16 62 19 75q3 18 12 48
q13 48 23 93q2 9 9 16zM229 613q-5 33 -9 33q-3 0 -3 -1q0 -6 -8 -32l-13 -51q-6 -26 -14 -50q-32 -116 -32 -129q0 -1 5 -1t19 -2l31 -3q5 -1 38 -6q17 -3 28 -1l7 2l-4 22q-1 8 -10 46q-6 26 -8 38q-4 33 -17 91q-1 2 -10 44z" />
    <glyph glyph-name="B" unicode="B" horiz-adv-x="414" 
d="M168 724q7 7 81 -8q21 -4 30 -8q18 -7 26 -12q9 -6 15 -9q20 -9 40 -48q6 -11 8 -19q26 -89 -56 -178l-12 -12q-26 -24 -26 -28q0 -2 8 -8q30 -22 33 -26l17 -18l1 -1q29 -31 36 -48q1 -4 3 -9q13 -40 11 -75q-3 -50 -45 -90q-28 -28 -77 -45q-29 -12 -74 -14
q-45 -4 -46 -5l-71 -2q-6 0 -16 6q-7 7 -8 26q0 14 -2 70q-5 140 -5 365q0 58 -3 93q-6 96 -3 98q6 3 69 3zM228 674q-35 6 -128 4q-19 -1 -20 -2q-4 -8 0 -122q0 -12 1 -23q2 -48 2 -64q3 -73 5 -77q3 -4 20 1q53 12 55 12q10 4 34 11q51 16 85 54q27 33 41 76q2 6 3 10
q5 43 -5 62q-15 27 -41 38q-13 5 -15 7q-6 6 -37 13zM248 364q-11 11 -16 9l-68 -27q-8 0 -62 -17l-12 -4v-77q1 -122 6 -127q7 -7 85 6q30 5 38 9q9 3 10 3q12 0 50 23q5 3 7 5q40 42 43 63q6 34 -7 59q-12 21 -31 36q-2 2 -6 5q-25 20 -33 29q-1 2 -4 5z" />
    <glyph glyph-name="C" unicode="C" horiz-adv-x="470" 
d="M238 733q40 5 68 -7q26 -10 31 -12q27 -11 38 -27q2 -3 2 -5q0 -5 -9 -16q-13 -18 -14 -21q-10 -18 -31 2q-6 6 -18 14q-34 16 -49 16q-3 0 -11 -1q-34 -1 -63 -27l-6 -6q-17 -16 -36 -56q-38 -78 -43 -145q-5 -66 13 -162q4 -19 8 -31q15 -45 46 -80q21 -27 59 -47
q8 -4 13 -5q14 -3 21 -7q25 -8 56 7q3 1 6 3q35 21 57 49q4 4 5 7q4 9 7 9l7 1h1q5 1 35 -26q13 -13 11 -18q-1 -2 -3 -4l-14 -14q-13 -21 -28 -27q-3 -1 -4 -3q-5 -5 -33 -17q-31 -13 -36 -16q-9 -6 -69 -3q-6 1 -9 1q-23 4 -66 24q-10 0 -55 41q-17 16 -17 19l-33 46
q-14 24 -20 50l-21 96q-3 13 -3 65q0 75 20 128q20 58 15 46l17 30q14 26 17 29l13 20q8 16 21 24l21 18q19 18 67 34q10 3 16 4z" />
    <glyph glyph-name="D" unicode="D" horiz-adv-x="450" 
d="M86 742q34 0 101 -13q4 0 6 -1q39 -11 41 -14t13 -9q30 -16 47 -39q6 -9 16 -15q14 -11 63 -97q5 -9 6 -12q22 -45 31 -111q1 -3 7 -41q13 -79 -25 -151l-29 -54q-1 -1 -19 -21q-17 -20 -35 -35q-4 -3 -35 -27q-16 -13 -35 -20q-5 -3 -13 -7q-53 -21 -73 -24
q-26 -5 -32 -9q-14 -6 -56 -3q-11 1 -13 3q-6 4 -8 144q-1 47 -2 138q-3 292 -7 334q-4 36 -4 51q-1 18 7 23zM123 685q-22 2 -25 3q-5 0 -7 -4l1 -64l3 -107q9 -324 9 -343q0 -64 3 -67q1 -3 21 1q22 4 28 4q18 0 65 24q8 4 12 7q56 42 79 82l18 30q36 59 27 132
q-5 30 -5 40q-5 48 -28 93l-41 63l-15 19q-4 8 -27 30q-43 44 -113 56q-2 1 -5 1z" />
    <glyph glyph-name="E" unicode="E" horiz-adv-x="453" 
d="M329 732l31 1h2q35 0 36 -1l1 -35q1 -14 -2 -16q-4 -3 -74 -3q-67 0 -99 -2q-110 -6 -126 -6q-3 1 -3 -3q-1 -5 0 -45l1 -85v-1q0 -43 3 -46q3 -2 82 0l63 2q4 3 12 0t8 -46q-1 -1 -1 -7h-73q-90 1 -90 -7l2 -28q3 -36 5 -55q3 -26 5 -85q2 -57 5 -79q3 -19 3 -47l-1 -22
h19q24 0 48 3q23 3 66 5l42 2l64 8q11 3 28 7l22 4l7 -9q7 -7 7 -15l1 -13v-1q2 -7 -3 -14q-4 -7 -33 -8q-4 -1 -9 -1l-63 -5q-10 -2 -94 -6q-61 -3 -97 -8q-25 -5 -45 -7q-19 -1 -21 8v15q0 30 -8 123q-1 9 -3 86l-6 250q0 7 -3 94l-6 86q3 4 19 2l62 3q213 4 216 7z" />
    <glyph glyph-name="F" unicode="F" horiz-adv-x="425" 
d="M343 728q37 0 44 -1q2 0 4 -24v-4q3 -23 1 -23l-274 -10q-5 0 -7 -1q-7 -2 -8 -8q-2 -7 -4 -55l-4 -74q-2 -34 0 -36q1 -2 79 -2q94 2 104 -4l1 2q-1 -2 0 -15q0 -23 1 -24q1 -3 -4 -8q-5 -3 -24 -2q-116 3 -131 0q-8 -2 -14 -2q-14 -1 -16 -12q-1 -6 -2 -23
q0 -13 -2 -183q-2 -154 -4 -156q-3 -3 -24 -5q-29 -4 -29 9q0 3 1 6q3 12 3 94q2 103 5 159l1 345q0 36 -1 39q-1 2 1 8q3 5 80 5h42q178 0 181 5z" />
    <glyph glyph-name="G" unicode="G" horiz-adv-x="462" 
d="M251 716q19 7 50 6t49 -10q3 -1 8 -4q41 -21 65 -51q3 -5 5 -8q8 -15 -3 -25q-5 -4 -15 -11q-32 -21 -34 -17l-8 18q-10 24 -29 34q-7 3 -9 5q-31 19 -82 8q-13 -2 -20 -6q-22 -10 -54 -52q-10 -15 -13 -22q-4 -10 -6 -12q-6 -4 -19 -39q-2 -4 -2 -5q0 -2 -8 -20
q-26 -53 -31 -155q-2 -39 2 -63q4 -26 11 -45q11 -31 12 -34q6 -17 17 -28q28 -30 66 -45q20 -7 44 -5q2 1 6 1q31 4 39 8q8 5 13 5q7 0 32 25q8 7 8 23q1 8 0 34q0 50 -3 54q-2 5 -23 6q-26 3 -28 11q-2 4 -1 19q2 30 11 31q2 0 5 -1q15 -4 55 -5q34 -1 39 -10q2 -5 2 -19
l5 -226v-4l3 -42q2 -18 -3 -20q-1 -1 -4 -2q-7 -4 -29 -4q-23 0 -26 2l-1 70l-1 28l-14 -11q-42 -30 -97 -30q-43 0 -75 17q-88 55 -111 108q-17 38 -18 72v45q0 63 8 94l15 54q4 17 6 18q2 4 9 25q13 43 45 96q4 7 7 10l14 21q16 23 64 57q11 8 18 12q12 6 34 14z" />
    <glyph glyph-name="H" unicode="H" horiz-adv-x="417" 
d="M317 733q6 3 46 -6l24 -5v-16q0 -11 -2 -47t-2 -39q0 -6 -3 -14q-11 -26 -6 -303q0 -24 1 -48q2 -92 2 -195q0 -33 -12 -36q-5 -1 -14 -1q-19 1 -22 10q-4 9 -7 63q-4 72 -4 109q0 45 -2 47q-3 5 -161 2q-26 -1 -36 -2l-21 -2v-12q0 -10 2 -32q2 -28 4 -68q2 -64 3 -73
q2 -30 -8 -33q-6 -2 -22 -1l-27 3q-5 2 -5 95q0 100 -3 130l-3 84q-3 121 -6 130q-2 8 -2 124q-1 118 4 123q5 4 29 4t24 -1q1 -1 3 -143q4 -277 7 -287q0 -4 108 -3q108 2 108 3q4 4 0 345q0 39 -1 50q-2 40 4 45z" />
    <glyph glyph-name="I" unicode="I" horiz-adv-x="339" 
d="M304 728q2 -3 4 -17q2 -18 2 -20v-21q-3 -5 -37 -1q-36 4 -60 -3q-1 -1 -3 -45l-3 -63q-2 -25 -4 -111q-2 -105 -4 -120q-3 -48 -3 -107l-1 -111l-1 -32l37 -2q36 -1 39 -8q4 -17 -4 -51q-1 -2 -25 0q-18 1 -38 2q-81 3 -79 3q-39 2 -44 3l-41 -2q-3 1 -4 2t-1 18l-1 35
q3 3 66 0q31 -2 36 0q5 1 5 79v58q0 125 2 247q3 91 3 158q-1 1 0 48h-50q-50 0 -52 2q-6 6 2 45q2 10 4 12q5 7 45 2q6 -1 10 -2q20 -5 135 -2q11 1 18 1q44 5 47 3z" />
    <glyph glyph-name="J" unicode="J" horiz-adv-x="425" 
d="M172 715q2 5 45 4h5q49 -2 52 -3l60 2q59 3 62 -3q2 -4 -2 -29q0 -16 -4 -19q-14 0 -30 1q-33 2 -40 1l-10 -1l1 -99q2 -99 4 -103q6 -18 6 -157q0 -188 -34 -230q-39 -49 -88 -63q-29 -8 -81 -11q-22 -1 -44 -5q-28 -5 -30 0q-10 18 -11 53q-1 11 2 13q8 6 49 2
q39 -5 103 14q22 7 30 13q12 8 36 42q20 33 16 118q0 2 -3 65q-2 42 -3 43l-3 152q-3 123 -3 153q0 4 -41 3q-6 -1 -30 -1q-19 0 -20 3l2 21q0 10 4 21z" />
    <glyph glyph-name="K" unicode="K" horiz-adv-x="464" 
d="M49 748q19 7 43 1q3 0 4 -1q6 -3 3 -14q-3 -16 -1 -116q1 -104 6 -113l6 -13l8 -16q13 -22 20 -21l10 10l13 17l1 1l18 27l1 1q149 201 156 229q3 8 10 9q14 0 17 -3q7 -9 27 -19q5 0 10 -15q0 -3 -6 -11q-20 -23 -38 -47q-5 -7 -19 -28q-15 -20 -16 -21q-40 -58 -40 -59
q0 -4 -45 -69q-25 -33 -36 -52q-4 -10 -15 -28q-7 -13 -2 -21q13 -21 44 -61q17 -20 58 -83q16 -24 28 -39q15 -17 20 -25q12 -15 23 -28q33 -38 52 -61l16 -19q16 -18 2 -28q-2 -1 -5 -3q-5 -3 -24 -15q-11 -8 -28 10l-42 66q-4 4 -12 17q-16 22 -20 27q-12 16 -22 31
l-30 44q-19 26 -24 35q-9 15 -21 31l-39 57q-49 70 -57 73q-2 1 -3 -19q-1 -23 -1 -90q0 -106 -2 -152q-2 -49 2 -80q3 -37 -1 -45q-11 -16 -46 1l-21 10l2 13q1 8 3 218q0 166 3 265q2 33 2 139l-1 80z" />
    <glyph glyph-name="L" unicode="L" horiz-adv-x="388" 
d="M88 747q3 -4 -1 -60q-2 -139 2 -244l4 -167q2 -112 3 -126q2 -42 2 -46v-7l32 2q35 2 38 3q4 1 73 3q63 2 86 4q25 2 29 -11q1 -3 1 -9v-21q1 -15 -7 -17q-7 -2 -44 -2q-127 0 -197 -10q-6 -1 -7 -2q-3 -3 -27 -3q-28 -1 -33 9q-1 4 -2 12q-3 18 -5 525q0 90 -3 120
q-3 43 6 48q4 2 15 3q32 0 35 -4z" />
    <glyph glyph-name="M" unicode="M" horiz-adv-x="631" 
d="M415 739q4 4 9 2q6 -3 17 -3q31 -4 33 -8l14 -125q13 -70 14 -81q2 -10 4 -18l8 -31q5 -18 9 -38l12 -64l7 -41l12 -66q7 -41 17 -80q6 -23 18 -94l6 -28l5 -23q0 -1 -1 -3q-5 -7 -50 -2q-5 0 -10 1l-11 2v15q1 36 -33 182q-5 28 -5 34q-2 17 -5 31q-2 15 -11 58
q-7 42 -13 62q-5 25 -5 26q0 2 -3 22l-4 23q-5 33 -9 82q-2 27 -5 27q-2 0 -2 -6q0 -1 -6 -33q-16 -73 -19 -93q-22 -128 -26 -132q-9 -14 -41 -217q-4 -23 -6 -38q-3 -20 -6 -26q-3 -4 -27 -3q-26 1 -27 3l-11 57q-5 17 -8 40q-12 64 -21 94q-2 13 -9 42q-9 48 -21 92
q-14 60 -20 101q-1 9 -6 40q-3 11 -6 37q-1 5 -8 47q-5 30 -5 35q1 3 -1 4q-3 1 -3 -2q0 -6 -5 -33q-10 -69 -8 -74q0 -2 -2 -16q-5 -19 -8 -73q-6 -83 -16 -167q-20 -191 -13 -211q3 -13 -2 -17q-6 -5 -19 -1l-53 3q-4 6 5 44l15 126q2 40 8 75q14 98 19 163l7 64l6 49v1
q2 21 5 37l4 37q3 27 4 39l4 24q0 6 14 9q3 1 5 0q13 -3 56 -5q14 -2 15 -3t5 -18q5 -37 11 -58q2 -11 10 -43q9 -30 17 -83q10 -70 25 -133q7 -29 12 -60q3 -23 6 -31q1 -3 3 -15l5 -30l6 -34q2 -20 8 7q1 7 3 18q3 27 10 49l10 44q4 20 11 48l26 131q15 81 38 174
q8 34 8 43q0 12 4 16z" />
    <glyph glyph-name="N" unicode="N" horiz-adv-x="471" 
d="M58 717q4 5 14 3q12 -1 16 -2q11 1 16 -12q1 -4 3 -11q2 -13 10 -35q12 -38 12 -42q7 -20 15 -45q7 -15 19 -50q8 -23 21 -55q15 -34 22 -54l24 -58l17 -45q16 -45 35 -92l25 -66q6 -16 8 -13q1 5 2 37q2 19 7 122q1 14 2 15q4 27 4 90l1 31q0 5 3 43q1 39 3 52l3 47
q3 35 4 37l2 23q7 64 9 72q2 22 0 25q-3 10 13 11q2 1 4 1q49 1 51 -5q1 -2 -1 -8q-7 -17 -8 -65l-1 -27q-3 -3 -4 -34q-4 -46 -5 -54q-3 -39 -3 -48l-5 -61q-4 -36 -3 -47l-2 -42v-1q-4 -45 -5 -64q-3 -38 -4 -49l-5 -47l-5 -75q-4 -42 -3 -47q-1 -14 -5 -17q-6 -4 -66 -5
q-2 0 -11 20q-11 27 -12 32q-5 14 -12 29q-6 11 -12 30l-12 36l-17 44q-4 13 -17 47l-26 67l-24 61q-20 47 -38 104q-15 47 -18 47q-4 -1 -2 -3t1 -42q-3 -138 0 -216q1 -47 -1 -87q-1 -49 2 -104q1 -43 2 -59l3 -19q0 -5 -6 -6q-4 -1 -13 -3q-43 -4 -44 -2t3 84v11l1 60
q1 2 2 50l2 70l-1 117l1 57q3 44 2 78v69q1 41 1 60q0 30 6 35z" />
    <glyph glyph-name="O" unicode="O" horiz-adv-x="484" 
d="M190 736l76 1q13 0 13 -1l6 -2q2 0 42 -15q14 -5 31 -18q37 -33 37 -38q0 -2 8 -13q8 -9 12 -20q9 -22 12 -29q22 -53 25 -139v-6q6 -149 -8 -207q-6 -26 -20 -61q-12 -37 -35 -67q-24 -28 -61 -49q-3 -2 -5 -3q-17 -8 -52 -9q-71 0 -106 20q-11 7 -26 19q-48 38 -73 90
l-2 4q-18 37 -30 112q0 3 -1 7q-4 26 -1 146q2 71 25 124q4 9 9 20q22 45 30 55q37 59 94 79zM292 681q-14 7 -55 4q-7 -1 -11 -2q-22 -4 -45 -24t-50 -70q-3 -5 -3 -7q-4 -10 -9 -20q-14 -26 -29 -94q-2 -9 -2 -14q-11 -77 8 -171q4 -17 8 -30q14 -45 49 -87q6 -7 10 -10
q59 -43 116 -30q39 9 56 33q26 35 35 60q5 12 9 27q25 91 9 244q-12 111 -38 148q-19 26 -39 35q-16 6 -19 8z" />
    <glyph glyph-name="P" unicode="P" horiz-adv-x="386" 
d="M121 755q7 1 63 1q68 -1 88 -14q3 -1 5 -3q44 -32 65 -72q16 -30 14 -70q-5 -39 -34 -83q-22 -31 -45 -50q-4 -3 -5 -3l-12 -8q-32 -19 -86 -33q-21 -7 -76 -13l-16 -2l2 -56q1 -19 3 -167q2 -112 5 -115q4 -7 -9 -10q-8 -1 -24 -2q-22 -1 -26 4q-4 4 -1 108q3 182 1 438
q-2 130 2 134q2 2 14 4q15 3 17 3q34 9 55 9zM242 690q-15 10 -39 11q-11 1 -46 -4q-68 -9 -71 -13q-1 -1 -5 -109v-107h23q28 0 49 3q55 8 99 38q9 6 14 11q34 38 23 104q-6 36 -40 61q-3 3 -7 5z" />
    <glyph glyph-name="Q" unicode="Q" horiz-adv-x="577" 
d="M226 731q15 6 64 -4q4 0 7 -1q43 -9 70 -34q17 -14 32 -34q30 -42 39 -67l9 -23l25 -64l8 -35q19 -86 8 -170q-10 -63 -35 -127q-14 -38 -10 -48q2 -5 14 -17l20 -24q15 -21 53 -60q20 -20 17 -25q-3 -13 -41 -36q-4 -3 -4 -2q0 -1 -18 19q-14 16 -22 24q-3 4 -36 41
q-26 31 -29 31t-14 -11q-35 -35 -146 -25q-29 3 -56 18l-4 2q-37 19 -92 74q-18 20 -37 66q-3 7 -5 13q-11 36 -12 101q-1 43 6 85q0 1 5 42q3 25 7 46q5 26 27 82q17 43 53 89q23 31 55 54q2 2 4 3q9 6 38 17zM296 668q-40 8 -61 4q-5 -2 -7 -2q-28 -6 -45 -23
q-19 -17 -35 -55q-2 -4 -3 -7q-7 -17 -8 -19q-30 -70 -43 -133q-12 -67 -2 -165q4 -31 9 -44q19 -44 57 -88q7 -8 11 -12q25 -18 47 -22l16 -4q21 -5 71 0q7 0 8 1q1 3 14 7q21 9 27 23q0 6 -3 9l-24 26l-24 26l-1 1l-23 27q-3 3 -2 5q0 5 10 11l9 7q16 15 28 11
q4 -1 25 -24l32 -36l13 -14l7 8q6 8 6 10l16 56q5 13 10 40l8 40q4 10 4 63q0 54 -7 74q-1 3 -2 7q-3 12 -12 39q-14 49 -33 86q-2 3 -3 4q-6 6 -6 7q0 2 -18 20q-30 28 -66 36z" />
    <glyph glyph-name="R" unicode="R" horiz-adv-x="382" 
d="M144 740l85 -4q3 -1 5 -1q41 -9 74 -38q22 -24 32 -49q3 -6 6 -15q7 -19 6 -51q0 -32 -4 -46q-8 -33 -45 -62q-10 -8 -20 -13q-41 -19 -74 -27q-13 -4 -13 -11q21 -75 26 -80q1 -2 11 -28q5 -17 17 -46q6 -14 31 -79q18 -50 33 -87q13 -30 11 -34q-3 -8 -35 -19
q-1 -1 -7 -3q-11 -4 -14 -1q-9 5 -19 48q-1 5 -2 11q-6 32 -17 62q-17 53 -17 54q-12 54 -21 75l-11 36l-18 56l-11 34l-31 -3q-32 -2 -33 -3q-2 0 -4 -200q-2 -44 2 -80l4 -63q2 -30 3 -31l-2 -5q-3 -4 -28 -4q-24 0 -25 5q-2 5 0 167q1 177 0 278q-2 86 -2 131
q-2 67 -4 79q-3 28 1 32q9 9 64 12q30 3 46 3zM220 686q-72 12 -119 1l-6 -2q-6 -1 -6 -10v-205q6 -7 92 7l10 2q50 9 77 34q2 3 4 5q21 26 30 67q8 45 -37 82q-17 14 -45 19z" />
    <glyph glyph-name="S" unicode="S" horiz-adv-x="452" 
d="M199 708q10 7 56 1q5 0 9 -1q72 -14 98 -32q13 -10 14 -13q0 -4 -29 -45q-10 -14 -13 -14q-2 0 -22 20q-37 37 -80 39q-21 2 -33 -5q-23 -16 -33 -42q0 -2 -1 -4q-11 -35 0 -66q9 -28 23 -44q15 -16 66 -38q12 -3 20 -7l30 -13q44 -20 63 -41q12 -12 20 -18
q20 -13 32 -68q9 -50 -1 -124q-1 -8 -2 -14q-15 -70 -40 -90l-30 -25l-44 -25h-1q-48 -24 -107 -21q-5 0 -9 1q-29 4 -30 4l-55 31q-1 0 -25 22q-22 23 -34 46q-13 24 -11 27q0 2 14 9q28 20 32 18q7 -3 9 -4q4 -5 12 -18q17 -28 58 -59q19 -15 69 -20q5 -1 9 -1q43 0 92 48
q14 13 25 40q2 4 5 12q16 43 -2 117q-4 19 -10 31q-8 21 -51 52q-13 10 -22 14q-16 7 -92 46q-20 11 -23 14q-40 34 -57 65q-8 14 -8 37q0 36 22 80q15 31 53 61q4 3 6 5q10 6 28 12z" />
    <glyph glyph-name="T" unicode="T" horiz-adv-x="493" 
d="M396 734q56 5 59 5q2 0 5 -11q3 -8 3 -21q0 -16 -4 -20q-2 -2 -52 -4q-84 0 -148 -9q-6 -6 -6 -239q0 -117 3 -140l3 -42q2 -41 5 -68q1 -21 6 -78l4 -55q-4 -5 -16 -5q-5 0 -12 1l-28 4v2q-1 1 0 49q0 35 -2 113q-3 117 -3 262q-2 191 -3 192t-6 1q-49 0 -131 -16
q-9 -2 -14 -3q-17 -4 -19 -3q-3 4 -4 21q0 14 -4 20q-1 3 -1 12q7 1 31 6q124 0 208 16q16 2 49 4q20 1 77 6z" />
    <glyph glyph-name="U" unicode="U" horiz-adv-x="443" 
d="M323 76q-13 -7 -26 -10q-22 -5 -31 -6q-28 -7 -66 -1q-4 0 -6 1q-7 3 -23 5q-38 5 -83 49q-17 18 -24 32q-14 30 -14 32q-8 25 -14 55q-5 24 -5 159q0 144 1 154q2 10 4 97q2 79 7 84t30 4q19 -1 20 -2q8 -2 10 -19l-11 -177q-2 -58 -2 -115q0 -117 6 -159l5 -35
q8 -50 45 -83q24 -22 79 -30q34 -4 59 20q22 22 27 50q1 10 3 29q8 84 8 134q-2 80 12 216q2 26 2 88q0 64 3 68q3 5 42 5q31 -1 32 -13q1 -3 0 -7q-5 -37 -14 -250q-5 -108 -12 -192q-9 -76 -13 -92q-12 -61 -43 -86q-4 -3 -8 -5z" />
    <glyph glyph-name="V" unicode="V" horiz-adv-x="460" 
d="M74 747q7 4 11 1q4 -4 11 -49q12 -61 24 -114q4 -21 7 -36q10 -73 19 -106q7 -36 7 -42q7 -46 8 -51l8 -47l12 -74l13 -77q5 -38 8 -38q2 0 11 30l14 46q8 28 10 36q4 19 9 35l12 42l29 96q7 23 11 40q3 18 11 43q25 89 27 116l3 12l13 52q9 33 14 48q8 26 13 28q1 1 6 1
q17 1 39 -14q5 -4 6 -7q3 -8 -13 -56q-9 -25 -13 -38q-7 -22 -8 -24q-3 -9 -3 -11q0 -8 -10 -40q-13 -39 -17 -55q-2 -6 -12 -41q-14 -45 -38 -132q-7 -33 -18 -72q-17 -62 -36 -185q-2 -11 -7 -12q-20 -6 -78 1q-13 1 -16 3q-4 2 -6 2q-6 0 -12 39q-6 46 -14 81
q-4 19 -3 23q0 9 -5 24l-6 22q0 5 -2 9q-9 22 -19 105l-13 72q-2 3 -13 76q-13 86 -31 176q-12 52 -1 55q4 2 17 2q13 2 21 5z" />
    <glyph glyph-name="W" unicode="W" horiz-adv-x="560" 
d="M64 730q10 5 19 1q7 -3 9 -7q0 -11 1 -23q3 -33 6 -49q9 -61 8 -68q0 -15 6 -54q7 -61 7 -94q2 -48 3 -50l4 -27q2 -22 4 -36q3 -10 5 -43q1 -11 6 -70q5 -35 5 -40q1 -12 39 107q11 34 14 46q3 9 7 19t4 13q0 6 18 56l17 51h13q38 0 49 -6q3 -3 3 -9l7 -28q8 -22 13 -50
q19 -84 26 -106q8 -22 17 -59q6 -15 7 -15q2 0 4 19q5 41 7 51q16 59 22 106q4 29 5 30t3 22q1 14 5 25q4 9 6 28q4 34 15 96q3 15 8 50l5 49q4 27 4 38q-2 2 2 13q2 10 11 11q6 0 14 -4q7 -5 21 -7q15 -2 17 -5q1 -3 -4 -24q-6 -17 -10 -48l-8 -58q-5 -31 -9 -68
q-18 -141 -28 -192q-6 -36 -6 -40q-5 -52 -17 -128q-4 -24 -4 -49l-1 -27h-21q-21 0 -35 2q-13 0 -29 -2q-14 -2 -14 3t-5 10q-9 11 -20 74q-1 7 -2 13q-2 15 -6 30q-5 18 -9 42q-6 28 -9 40l-9 32q-8 36 -10 41q0 4 -1 6q-1 13 -21 -51q-9 -30 -15 -55q-4 -17 -13 -41
q-8 -23 -14 -46q-3 -11 -8 -26q-11 -19 -21 -60q-6 -22 -20 -18q-12 3 -39 6q-16 1 -17 8q-8 45 -8 71q1 7 -2 22q-3 8 -5 32q-2 23 -3 25q-2 2 -6 45q-7 53 -8 59q-3 13 -3 31q0 16 -3 24q-4 10 -4 29q-6 76 -12 110q-3 28 -4 51q-1 22 -5 45q-2 11 -4 29l-5 35v1
q-4 17 -2 25q2 7 6 7q2 1 7 0q10 -2 20 4z" />
    <glyph glyph-name="X" unicode="X" horiz-adv-x="567" 
d="M116 744q5 -3 21 -35l69 -141l30 -60q1 -1 22 -41q16 -33 25 -40q5 0 23 27q5 7 8 13q29 51 35 59q17 26 18 30l25 37q33 50 37 55q54 81 55 82q6 1 8 -1l8 -8q11 -11 19 -15q8 -2 19 -20q-1 -3 -7 -9q-10 -10 -16 -19q-4 -7 -13 -19l-25 -34q-17 -27 -24 -34
q-10 -11 -64 -94l-66 -97q-3 -4 -5 -8q-3 -6 -1 -14q4 -13 18 -40l23 -38v-1q5 -9 28 -51q28 -60 35 -69q5 -11 10 -17q3 -9 21 -35q18 -27 18 -29q0 -3 6 -11q14 -18 3 -29q-5 -5 -18 -11q-4 -2 -8 -5q-24 -16 -31 -1q-1 4 -13 26q-6 10 -14 26q-25 57 -55 106l-23 46
l-38 76q-2 2 -10 -10q-7 -10 -28 -41q-44 -65 -53 -75q-42 -58 -49 -74q0 -1 -15 -23q-30 -44 -32 -54q0 -8 -15 -11q-4 1 -11 10q-5 7 -20 20q-11 7 -11 15q0 6 12 18q11 13 22 31q11 17 12 19q9 5 44 66q4 6 5 9q4 7 15 21q11 13 28 37q15 23 46 64q22 29 25 43
q0 8 -36 80l-49 100l-25 50q-20 48 -54 111q-11 19 -8 21q5 8 35 15q7 1 9 1z" />
    <glyph glyph-name="Y" unicode="Y" horiz-adv-x="427" 
d="M334 728q4 6 25 -4q3 -2 5 -3q20 -13 23 -13q5 0 10 -8q0 -3 -5 -10q-4 -4 -19 -34q-39 -80 -45 -87q-1 -2 -31 -69q-1 -3 -2 -5l-24 -51l-17 -31v-1l-6 -14l-6 -53q-1 -23 -1 -54q0 -136 8 -224l1 -35q-2 -2 -14 -4q-28 -5 -33 -4q-5 2 -6 33q0 11 -1 35l-4 84
q-6 184 -14 212q-7 26 -8 28q-39 78 -46 93q-9 18 -15 33q-3 10 -14 30q-16 33 -37 81q-7 17 -17 32t-10 21q0 4 18 14q21 11 25 10q0 -1 16 -40q5 -13 12 -28l17 -36q29 -65 63 -128l20 -36q12 -24 17 -24q8 6 45 106l9 27l54 135z" />
    <glyph glyph-name="Z" unicode="Z" horiz-adv-x="562" 
d="M277 724q110 4 120 -6q6 -6 1 -15q-1 -3 -4 -9q-12 -23 -19 -41q-6 -13 -14 -33q-38 -88 -68 -163l-36 -88q-12 -30 -21 -57q-7 -14 -33 -90q-11 -34 -20 -57q-18 -46 -18 -52q0 -4 123 2q50 2 139 2q95 0 100 -4q5 -5 5 -22t-8 -23q-9 -4 -10 -3q-10 5 -197 -1
q-34 -1 -49 -2q-87 -6 -141 -6q-20 0 -27 8q-6 8 -6 10l32 78q2 3 36 87l33 84l30 78q13 30 40 107q30 87 44 120q8 20 11 31q0 1 7 21q-2 2 -29 1h-36q-39 2 -101 -6q-3 -1 -5 -1q-4 -1 -53 -6q-45 -4 -55 -8q-11 -2 -14 2l-2 25q-2 15 -1 17q2 3 25 5l35 3q14 2 55 4
q55 2 62 3q6 1 69 5z" />
    <glyph glyph-name="bracketleft" unicode="[" horiz-adv-x="302" 
d="M33 731q6 7 46 0q15 -3 45 -6q52 -4 111 -1q4 1 7 1q17 2 20 -3q1 -4 4 -24q3 -18 -10 -19q-6 -1 -21 1q-55 7 -122 5q-8 0 -8 -1q-5 -63 -2 -498q0 -78 1 -79l54 -6l48 -5q3 0 39 -3q25 0 27 -2l-1 -19q-2 -20 -11 -22t-42 2q-42 6 -65 6q-72 1 -85 0t-16 6q-4 6 -2 9
q5 7 1 105q-1 8 -1 15q-6 192 -6 201q-3 152 -6 215q-3 47 -4 65q0 34 -3 46q-2 7 2 11z" />
    <glyph glyph-name="backslash" unicode="\" horiz-adv-x="347" 
d="M61 751q29 7 35 -3q4 -5 6 -17q10 -51 41 -148q3 -9 23 -74q38 -117 50 -149q10 -28 21 -73q24 -92 47 -143q20 -42 31 -72q4 -11 2 -16q-4 -11 -37 -13q-16 -1 -20 4q-4 4 -11 27l-10 25q-3 3 -12 29q-7 22 -15 40q-3 7 -12 42q-9 33 -21 68q-8 20 -18 51l-15 46
q-27 78 -63 210l-30 93q-22 58 -21 63q3 2 29 10z" />
    <glyph glyph-name="bracketright" unicode="]" horiz-adv-x="387" 
d="M60 728q5 2 10 0q2 -1 71 -3q95 -3 102 -3q65 -3 71 0q2 2 8 -1q5 -2 6 -96q4 -317 10 -384q4 -50 3 -94l3 -61l4 -22q-5 -4 -60 -5q-81 -2 -127 -5l-71 -3q-21 1 -37 -1q-18 -3 -20 8q-1 3 -1 12v24q0 13 5 15q3 1 11 1l33 1h1q13 1 108 3q84 2 85 3l-2 89v21l3 114v315
l-1 23h-31q-23 0 -105 -2q-74 -2 -78 2q-3 3 -5 25q-1 23 4 24z" />
    <glyph glyph-name="asciicircum" unicode="^" horiz-adv-x="415" 
d="M187 745q8 3 16 1t12 -2q9 0 12 -14q0 -10 98 -108q59 -59 61 -65q0 -7 -14 -14q-16 -11 -17 -13q-4 -4 -14 -3t-16 12q-7 13 -16 21l-35 42q-23 30 -29 36q-2 2 -14 18q-22 27 -29 27q-4 1 -43 -42q-7 -8 -8 -10q0 -2 -13 -15q-11 -11 -23 -29q-18 -28 -31 -43
q-4 -5 -13 -1l-32 24q-1 2 -2 3l-6 9l15 22q19 29 29 41l24 32l25 31q17 17 21 27q5 10 20 10q20 2 22 3z" />
    <glyph glyph-name="underscore" unicode="_" horiz-adv-x="559" 
d="M463 94q49 4 55 -1q3 -3 5 -14t5 -16q2 -6 -2 -10q-5 -4 -49 -5q-223 -1 -279 -9q-133 -18 -160 -13q-5 5 -7 33q-1 4 0 5q7 11 73 15l99 6q38 3 140 5q85 2 120 4z" />
    <glyph glyph-name="grave" unicode="`" horiz-adv-x="149" 
d="M52 671q26 4 33 -2q7 -5 8 -26q-1 -2 4 -23q6 -20 8 -31q2 -10 7 -30q11 -40 6 -45q-6 -7 -30 -3q-6 1 -8 2q-6 4 -6 8l-18 45l-1 2q-2 4 -2 8q0 3 -10 25t-10 35q-1 13 -3 21q-2 9 13 13q4 1 9 1z" />
    <glyph glyph-name="a" unicode="a" horiz-adv-x="384" 
d="M288 458q3 -2 4 -10q1 -32 7 -69q6 -38 10 -70q5 -36 14 -81q2 -8 12 -120q2 -13 9 -39q11 -42 8 -47q-1 -3 -10 -4q-42 -9 -46 -6q-4 4 -2 15q3 11 0 21q-3 9 -6 9q-2 1 -7 -1q-20 -8 -46 -11q-22 -4 -65 -2q-30 2 -53 9q-31 11 -63 42q-2 3 -4 5q-20 23 -23 79
q-1 11 0 17q4 24 7 31l23 65l19 40q19 42 62 70q15 10 27 13q15 4 73 2h4q2 2 -1 21q-3 12 -1 14q4 7 42 7h6zM178 375q-22 -11 -46 -42q-3 -3 -4 -5l-14 -22q-10 -19 -17 -39q-17 -51 -23 -99q-1 -9 4 -24q6 -20 35 -39q3 -2 6 -3q28 -14 67 -15q6 0 14 -1q29 0 49 5
q15 4 28 13q9 6 7 31l-7 70q-1 29 -5 47t-5 36q-2 19 -8 48q-7 30 -7 32q0 6 -21 13q-5 2 -7 2q-22 1 -29 -1q-7 -3 -17 -7z" />
    <glyph glyph-name="b" unicode="b" horiz-adv-x="387" 
d="M42 696q5 6 24 1q4 -1 4 -2l16 -3q3 -3 2 -33q0 1 -2 -35q-2 -53 -2 -98q1 -100 3 -103q1 -2 14 9q40 33 87 30q15 -1 35 -4q15 -3 54 -25q11 -6 14 -10q45 -46 60 -125q1 -5 1 -10q8 -55 0 -101q-3 -21 -6 -29q-15 -60 -41 -98q-4 -5 -8 -9q-20 -19 -40 -27l-13 -5
q-9 -2 -27 -4q-25 -2 -65 20l-22 12q-3 2 -14 13q-3 2 -5 3q-5 3 -5 -2q0 -2 1 -10q2 -15 2 -16q2 -6 -12 -14q-2 -2 -4 -2q-26 -8 -42 -1q-5 3 -9 73q-1 30 -2 94q0 65 -2 93t-3 70q-1 41 -3 63q-5 85 -2 199l1 10q2 0 2 25q1 42 9 51zM196 427q-19 7 -40 -2
q-28 -12 -56 -45q-6 -7 -5 -41v-33q0 -23 3 -87l1 -63q3 -48 9 -55q21 -24 75 -37q53 -11 78 26q3 6 5 12l8 18l16 64q6 32 6 52q-2 40 -7 61q-6 22 -27 70q-1 2 -1 4q-13 38 -65 56z" />
    <glyph glyph-name="c" unicode="c" horiz-adv-x="377" 
d="M158 464q29 8 85 -2q10 -2 17 -5l20 -5q3 -2 -1 -34q-1 -14 -5 -16q-2 0 -34 8q-45 10 -69 -3q-54 -29 -75 -99q-10 -34 -12 -76q-2 -35 3 -58q5 -21 25 -50q15 -23 49 -38q10 -5 28 -9q23 -6 42 -3q21 2 37 12q11 5 42 37q5 8 13 4q23 -11 23 -20q0 -17 -39 -46
q-7 -5 -13 -9q-34 -22 -88 -22q-31 -1 -56 6q-43 12 -72 42l-4 4q-16 23 -35 71q-11 26 -11 76q-2 35 8 84q7 23 9 26q3 7 13 29q18 38 43 60q34 29 57 36z" />
    <glyph glyph-name="d" unicode="d" horiz-adv-x="369" 
d="M261 683q5 5 8 3q3 -3 5 -2q4 5 29 2q6 -4 3 -58q-1 -13 -2 -17q-5 -13 1 -126q1 -19 2 -63q2 -44 3 -45q1 -2 5 -91q3 -66 5 -82q3 -19 2 -21q-3 -6 1 -59l5 -97l6 -27l-24 -2q-36 -3 -38 2l-1 38q3 17 -1 14q-22 -19 -38 -23t-34 -1q-25 5 -85 30q-56 33 -68 78
q-9 36 -11 48q0 9 -1 26q-1 37 15 96q2 6 3 10q26 68 64 104q14 12 22 16q39 19 81 9q6 -1 41 -15q1 2 0 82q-1 79 -1 90q2 56 -1 68q-2 8 4 13zM237 386q-23 11 -57 3q-28 -7 -54 -34q-33 -32 -32 -119q0 -41 2 -61q5 -37 54 -67l6 -3q41 -21 54 -24q19 -4 31 0q8 4 14 5
q13 3 14 8l-2 34q-4 22 -4 31q0 23 -4 119q-2 21 -2 94q0 4 -7 8q-5 2 -13 6z" />
    <glyph glyph-name="e" unicode="e" horiz-adv-x="398" 
d="M174 456q35 15 69 5q16 -5 32 -21t19 -22q12 -27 16 -44q12 -54 13 -64v-21q-1 -11 -2 -11q-18 -7 -41 -10q-33 -4 -34 -5l-49 -11l-87 -25l-19 -6l-3 -3q-5 -5 6 -40q8 -30 25 -46q34 -33 64 -40q25 -6 57 -2q61 6 78 16q4 2 15 7q8 4 11 4q6 0 13 -14l15 -28
q2 -5 -15 -13q-36 -17 -107 -26q-29 -3 -78 5q-21 3 -28 6q-46 23 -60 35q-16 14 -37 55q-4 9 -7 15q-12 23 -15 57q-3 44 8 76q11 33 16 42q6 11 14 23q45 68 83 92q13 7 28 14zM223 414q-21 9 -39 3q-51 -24 -81 -89q-10 -22 -13 -26q-6 -11 -5 -38q3 0 63 18q11 3 46 11
l71 19h1q5 0 6 6q1 26 -10 46q-23 41 -32 46q-2 2 -7 4z" />
    <glyph glyph-name="f" unicode="f" horiz-adv-x="415" 
d="M241 690q1 1 24 -1q20 0 52 -16q27 -14 47 -55q5 -11 6 -18l14 -76v-3q-12 -6 -29 -7q-35 0 -37 4q0 1 -4 64v10q-4 27 -17 37q-5 4 -11 8q-22 10 -48 0q-18 -7 -32 -25q-13 -23 -16 -34q-5 -21 -9 -42q-6 -30 -9 -83q-2 -27 -2 -31l1 -6l35 2q36 1 54 3q26 3 27 1
q5 -7 4 -38q-1 -5 -20 -5h-36q-42 -1 -55 -1q-8 -1 -11 -4q-4 -5 -2 -46q2 -36 0 -93q-3 -97 0 -128q2 -27 2 -35l3 -35q-6 -4 -56 -1q-8 1 -8 2q-2 1 -1 18q1 22 0 57l-3 57q3 59 4 84l1 101q-1 1 0 23l-15 -1q-15 0 -25 -3q-32 -8 -36 -2q-6 9 -1 33l3 8q3 2 26 0
q45 0 50 6q2 2 3 20q1 19 3 30q1 11 3 43q1 26 5 47q9 40 36 86q1 3 2 4q5 8 20 20q13 12 58 21z" />
    <glyph glyph-name="g" unicode="g" horiz-adv-x="450" 
d="M208 472q55 2 80 -9q15 -6 42 -34q5 -5 7 -8q4 -7 7 -3q8 10 28 40q6 10 38 -7q18 -10 19 -15q1 -10 -11 -22l-31 -36l-21 -25l1 -16q5 -61 -15 -105q-2 -3 -3 -6q-24 -42 -66 -68q-33 -21 -61 -26q-2 1 -16 -7q-35 -21 -43 -31q-12 -20 11 -30q7 -4 10 -7q8 -9 31 -9
q57 1 68 -2l43 -11q8 -3 13 -7q7 -4 19 -20l8 -15l3 -22q1 -49 -19 -91q-2 -5 -5 -9q-2 -4 -25 -25q-23 -22 -24 -23q-4 -5 -35 -19l-68 -20q-56 -9 -90 -7q-62 4 -101 34q-10 8 -14 15l-9 15q-9 15 -5 34l2 14l15 38q11 20 31 39q3 3 4 3l12 9q54 34 74 42q13 6 15 8t-7 9
q-7 6 -15 17q-9 13 3 34q11 19 25 25q12 9 14 10l16 6q9 4 5 7l-49 14l-20 10q-25 13 -45 36q-15 18 -23 40q-12 32 -7 47l9 27q4 10 9 21q25 50 55 80l4 4q57 55 107 57zM244 417q-46 8 -80 -17q-47 -34 -56 -45l-2 -4l-9 -21q-10 -19 -12 -52q-2 -29 8 -47l7 -13
q6 -12 52 -31q3 -2 4 -2l18 -6q13 -2 41 0q27 2 38 9l19 10q2 2 6 7q21 25 30 75q4 20 0 60v5q-7 30 -14 41q-3 6 -8 12q-10 13 -42 19zM236 9q-25 5 -59 -7q-46 -16 -81 -38l-21 -11q-4 -3 -9 -8q-24 -19 -31 -35q-2 -5 -3 -10q-6 -21 4 -49q1 -4 2 -6q8 -11 21 -17t31 -9
q29 -4 75 4q30 5 59 22l19 9q23 12 42 31q28 27 26 73q-1 16 -14 27q-14 11 -16 10l-18 9q-1 0 -27 5z" />
    <glyph glyph-name="h" unicode="h" horiz-adv-x="345" 
d="M61 695q20 2 22 -2q7 -8 2 -56q-1 -11 -3 -14q-6 -12 -1 -127q1 -15 1 -25l3 -33v-19l1 -7l12 8q12 8 17 12q14 12 50 20q5 1 8 1q27 1 46 -7q22 -8 38 -30q24 -32 30 -108q4 -64 2 -165l3 -65q0 -42 -1 -44q-2 -2 -32 -3q-25 -1 -26 4q-3 5 0 15q5 26 3 164q-1 21 -2 29
q-6 65 -8 77q-1 7 -3 14q-9 41 -32 59q-5 5 -11 6q-18 5 -47 -6q-6 -2 -9 -4q-6 -5 -14 -10q-9 -5 -17 -21q-2 -7 -1 -30q8 -131 3 -140q-4 -6 -1 -97q0 -15 1 -20q3 -26 -3 -29l-27 -4l-22 -1q-3 1 -4 9v84q0 43 2 79v33q-1 17 -1 84t-1 177q-1 98 1 125l1 61l1 1q1 2 7 3z
" />
    <glyph glyph-name="i" unicode="i" horiz-adv-x="169" 
d="M67 429q5 4 19 3l18 -1q19 0 20 -3l-4 -172q1 -40 -2 -82q-1 -10 -2 -28v-43v-32q0 -30 -2 -31q-2 -2 -11 -1l-38 -3q-3 1 -5 4q-5 9 0 21q4 5 2 168q-1 192 5 200zM76 594q24 12 39 -9q6 -9 7 -24q0 -25 -7 -39q-4 -8 -4 -10q-1 -7 -17 -14q-5 -2 -8 -2q-15 0 -41 18
q-5 4 -7 6q-10 13 -3 35q1 4 3 7q9 15 38 32z" />
    <glyph glyph-name="j" unicode="j" horiz-adv-x="216" 
d="M124 444q2 5 21 3q5 0 19 -2q6 -1 9 -1q13 -1 10 -20q-5 -25 -1 -122q0 -12 1 -18l1 -89v-113q-1 -17 -3 -34q-2 -13 -3 -33q-1 -12 -4 -20q-16 -42 -17 -45q-8 -14 -17 -22l-22 -15q-9 -7 -29 -15q-13 -5 -45 -6l-51 -4q0 1 -1 33l-1 23q4 3 32 3l23 3q24 2 40 14
q44 28 44 115q0 79 -2 113l-1 135q-1 24 -2 49q-4 62 -1 68zM139 586q16 4 33 -5q16 -14 14 -41q0 -7 -2 -12q-5 -8 -5 -10q0 -7 -16 -15q-2 -1 -5 -2q-7 -1 -21 5q-23 12 -23 42q1 31 25 38z" />
    <glyph glyph-name="k" unicode="k" horiz-adv-x="380" 
d="M36 715l47 1q6 -1 5 -16v-24q-1 -38 -3 -50v-143v-11q1 -10 1 -26q1 -19 2 -19t37 28q16 11 58 48l24 22q61 54 65 63q4 7 11 7q16 0 35 -28q2 -4 2 -5q1 -4 -34 -38q-30 -30 -38 -36q-8 -5 -40 -33l-70 -62l-18 -15q-2 -5 34 -43q9 -10 18 -23q20 -30 44 -56
q4 -5 11 -14q6 -10 14 -20l37 -59q13 -20 35 -48q41 -52 39 -59t-18 -10q-5 0 -21 -5q-23 -8 -25 -5q-33 59 -34 60q-7 9 -7 11t-12 20q-33 49 -43 70q-4 8 -18 25q-4 5 -22 32q-17 27 -37 54q-20 25 -20 23q1 4 3 -146q1 -55 4 -75q9 -63 6 -68l-23 -3q-31 -6 -41 -3
q-2 1 -3 39q-1 29 -2 51q-2 42 1 64q2 23 1 45q-4 143 -5 145t-2 72q-2 70 -3 93q-2 32 0 129q0 40 5 41z" />
    <glyph glyph-name="l" unicode="l" horiz-adv-x="150" 
d="M39 711q4 3 17 -2q5 -2 8 -3q15 -5 20 -4q1 1 2 -1q2 -3 8 -3q13 0 13 -22q0 -4 -1 -8q-2 -13 -2 -26q1 -13 -1 -14q-4 -2 -6 -154q-2 -104 1 -264q0 -9 -1 -14q-6 -21 -3 -117q1 -9 1 -15q3 -34 -4 -35q-2 0 -22 -1q-27 0 -29 8q-1 3 0 11q2 14 0 63q-2 45 -2 65v134v4
q-2 17 -5 251q-1 52 3 65q6 27 -2 58q-1 4 -2 6q-5 8 7 18z" />
    <glyph glyph-name="m" unicode="m" horiz-adv-x="516" 
d="M81 472q2 2 10 -1q10 -4 7 -14v-58v-1q2 0 6 5t16 15q13 10 16 14q4 3 12 6q9 3 21 10q31 19 58 9q33 -12 42 -32q2 -4 4 -9l6 -16l6 7l14 17q11 12 40 26l4 2q37 20 79 -1q17 -9 26 -24q19 -30 25 -127q1 -26 2 -37q6 -70 2 -80q-3 -8 4 -58q1 -13 2 -44q2 -31 3 -33
q3 -4 -7 -22q-1 -2 -9 1q-8 4 -22 6q-15 1 -23 7t-5 11q3 6 4 73q1 52 4 57q6 9 -3 92q-3 25 -5 46q-1 21 -2 23q-2 2 -5 21q-9 48 -27 57q-19 10 -44 8q-8 -1 -25 -20q-28 -31 -29 -49q-1 -8 1 -20q4 -31 6 -84l3 -44q1 -20 -1 -29q-7 -22 -1 -99v-10q3 -28 -1 -33
q-7 -8 -18 -5q-1 2 -20 0t-21 1q-2 4 -3 71l-2 63q0 6 1 64q0 64 -2 80q-7 67 -21 99q-10 13 -25 14q-14 0 -36 -16q-25 -18 -37 -37q0 -3 -4 -8q-13 -14 -12 -114q0 -47 -5 -82q-1 -5 0 -14q0 -7 10 -66q7 -42 1 -49t-18 -5q-9 1 -29 3q-14 1 -20 8q-5 6 -2 13q6 15 3 88
q-1 7 -1 13q-2 16 2 23q5 7 4 117q-1 120 -4 140q-3 21 -2 22t22 4q23 3 25 5z" />
    <glyph glyph-name="n" unicode="n" horiz-adv-x="336" 
d="M36 471q3 5 36 -1q8 -2 10 -4q7 -6 4 -24q0 -3 -1 -4q-5 -10 2 -27q2 0 22 19q28 28 53 33q21 5 52 2q20 -2 28 -10l4 -4q26 -28 42 -111q1 -5 1 -10q13 -71 14 -81q0 -11 1 -29q0 -62 -1 -95q-3 -95 -4 -96q-8 -5 -46 1q-6 1 -8 2l-7 3v85q0 64 4 93v13q-3 79 -12 116
q-3 15 -5 30q-3 25 -17 45q-14 18 -32 19q-20 2 -47 -21l-4 -4q-10 -11 -13 -11t-28 -31l-1 -82q-1 -76 -4 -88t-1 -33t1 -42q0 -21 3 -40q6 -37 -12 -42q-3 -1 -6 -1q-15 -2 -21 -3q-5 -2 -9 2q-5 5 -4 85q0 6 3 37v4q0 3 -2 143q4 160 5 162z" />
    <glyph glyph-name="o" unicode="o" horiz-adv-x="331" 
d="M206 452q45 -6 55 -16q25 -26 32 -57q9 -42 8 -116v-10q-7 -84 -10 -98q-9 -36 -15 -47q-27 -58 -47 -75q-13 -11 -28 -18l-21 -7l-25 -1q-27 2 -42 9q-31 15 -57 46q-17 21 -25 81v9q-1 29 5 82q6 52 21 84q3 8 8 20q25 64 54 90q23 21 47 25q18 3 40 -1zM206 403
q-13 5 -29 -4q-25 -13 -41 -37q-16 -22 -15 -21q-11 -18 -25 -51q-7 -19 -7 -51q0 -106 4 -125q4 -17 11 -28q23 -37 56 -36q42 2 76 69q1 2 2 5q12 25 15 46q3 29 2 87q0 27 -11 66l-5 30q-2 15 -18 38l-2 4q-5 5 -13 8z" />
    <glyph glyph-name="p" unicode="p" horiz-adv-x="314" 
d="M32 448q3 5 21 4h18l-1 -24q0 -25 4 -24q1 0 3 3q5 9 32 14q33 5 46 5q37 -1 76 -25q28 -18 45 -100q13 -68 1 -119l-9 -40q-3 -12 -12 -31q-27 -53 -61 -69q-6 -3 -12 -4q-36 -5 -71 10q-2 1 -4 1q-15 8 -18 8t2 -62q2 -16 4 -34q5 -48 2 -133q-1 -9 -1 -10
q-2 -5 -20 -5q-19 0 -22 2q-2 2 -5 92q-1 66 -5 108q-3 38 -5 73q-1 35 -2 44q-3 29 2 71v6q-1 14 -2 49q-1 34 -4 84q-6 100 -2 106zM186 377q-36 16 -78 -2q-15 -7 -27 -36q-2 -6 -3 -11q-3 -13 -1 -58q3 -69 1 -82q-3 -23 5 -63q0 -4 1 -5q4 -8 10 -13q20 -13 61 -10
q37 4 55 38q6 8 16 39q11 31 11 59q0 33 -6 70q-7 44 -25 62q-6 6 -20 12z" />
    <glyph glyph-name="q" unicode="q" horiz-adv-x="424" 
d="M296 445q2 -3 2 -13t2 -27q6 -45 5 -175q-1 -22 -2 -25q-3 -10 0 -64q0 1 1 -54q1 -35 3 -52q3 -18 2 -74q-2 -90 12 -94q2 -1 4 0l39 21q26 11 35 10l2 -19q1 -3 1 -6q6 -27 0 -27q-9 0 -42 -20q-9 -6 -21 -10q-11 -4 -36 -16l-27 -15l-1 1q-10 6 -10 44q0 30 -2 40
q-3 11 -3 96q0 69 -2 69q-3 0 -11 -6q-19 -14 -42 -16q-4 0 -5 1t-28 2q-38 1 -70 18q-21 11 -33 26q-36 45 -39 98v10q-2 55 26 121l23 57q5 8 10 14q32 36 37 41q7 5 14 9q11 5 20 7q24 8 68 -8q19 -7 21 1q0 3 -1 12q-1 11 2 18q2 6 7 6h12h27v-1zM229 375q-9 4 -24 4
q-14 -1 -30 -10q-79 -49 -93 -135q-8 -48 -6 -63q2 -13 8 -34q8 -29 22 -45q21 -24 90 -30q29 -2 48 3q17 4 16 25q0 8 -2 21q-6 38 -2 103q1 3 1 5q3 32 -11 140q-1 8 -5 10z" />
    <glyph glyph-name="r" unicode="r" horiz-adv-x="297" 
d="M34 456q2 2 38 -1q5 -4 4 -46q-2 -38 1 -38q2 0 3 3q6 17 45 53q19 17 28 19q35 7 57 -1q20 -7 27 -18q13 -19 24 -57l5 -13v-1q-1 -1 -13 -8q-10 -6 -12 -6q-10 -6 -13 -4q1 0 -6 20q-10 31 -21 42q-7 8 -40 -2q-25 -8 -53 -50q-21 -33 -24 -40q-1 -5 -1 -68
q0 -25 -2 -44q-2 -24 -1 -38l1 -67q2 -81 3 -81q-1 -1 -8 -1q-6 0 -15 -1q-25 -4 -30 0l-1 19q1 3 2 86t3 96q3 17 -3 166q-2 44 0 63z" />
    <glyph glyph-name="s" unicode="s" horiz-adv-x="339" 
d="M164 454q21 6 69 -8q11 -4 16 -7t51 -41q1 -4 -9 -21l-13 -26q-3 -3 -6 -3t-21 19q-30 30 -62 37q-31 7 -47 -13q-10 -13 -14 -23q-8 -28 4 -46q8 -11 45 -32l47 -26q36 -18 60 -48q22 -30 23 -54q1 -40 -11 -74l-10 -22q-4 -7 -25 -29q-29 -28 -83 -41l-27 -2
q-2 -2 -23 1q-21 2 -41 13q-24 12 -43 28q-16 14 -16 15q0 2 8 10q20 20 26 20l34 -21q34 -17 60 -17q42 -1 73 40q6 9 10 18q8 16 8 33q0 34 -18 51q-21 20 -43 31l-65 44q-5 0 -32 32q-5 6 -7 10q-15 23 -4 68q7 25 16 38q16 24 31 34q14 10 39 12z" />
    <glyph glyph-name="t" unicode="t" horiz-adv-x="381" 
d="M156 671q3 7 18 1l15 -6h7l13 -1l8 1l1 -1q0 -2 -2 -21q-2 -23 -1 -42q0 -12 2 -64q2 -89 6 -93q1 -1 8 -2l23 -2q23 -1 31 -2q14 -2 44 -3q5 -1 5 -16t1 -25v-10h-15q-60 3 -87 7l-10 2l1 -78q2 -61 7 -92q1 -6 0 -27q0 -8 1 -32q2 -20 3 -41q3 -59 7 -70q5 -13 -7 -16
q-7 -2 -26 -2q-12 0 -18 6q-6 5 -6 41v46q0 81 -3 107t-5 52q-6 102 -10 108q-5 8 -95 12q-38 1 -40 5l-4 37q-1 3 3 8q1 1 23 -3q4 -1 46 -3l29 -2q32 -1 34 0q5 5 1 97q-1 4 -1 6l-6 98v2q-2 14 -1 18z" />
    <glyph glyph-name="u" unicode="u" horiz-adv-x="391" 
d="M38 435q10 4 27 1l21 -3q5 -3 6 -134q0 -142 2 -150q2 -16 12 -31q18 -24 41 -30l20 -5q8 -2 49 17q18 7 38 42q3 5 5 10l20 49q5 12 -3 105v6q-3 29 -6 67t-3 42q-1 9 43 8q14 0 15 -2q1 -1 0 -13q-1 -6 -1 -15q0 -19 3 -37q2 -19 5 -59l6 -117l13 -85l20 -88v-1
q-1 -4 -22 -4q-3 0 -5 -1q-29 -6 -37 2q-4 5 -12 80q-3 33 -5 35q-1 1 -8 -14q-16 -34 -50 -63q-28 -24 -51 -25q-41 -1 -75 10q-29 9 -40 22q-1 1 -4 6q-23 28 -29 65q-7 47 -1 78q4 11 1 168q0 18 -1 27l-1 35z" />
    <glyph glyph-name="v" unicode="v" horiz-adv-x="383" 
d="M69 431q17 4 20 1q6 -5 11 -40q0 -5 9 -44q21 -89 24 -144q1 -16 3 -31q3 -16 5 -32q2 -29 18 -62q3 -5 10 9q2 5 8 17q12 28 23 48l45 92q3 6 14 32q10 25 10 27l35 83q4 9 5 14q3 13 21 6q15 -6 18 -7q4 -2 6 -6q0 -2 -27 -58l-30 -73q-46 -105 -42 -91
q-33 -82 -33 -81l-20 -51q-5 -22 -24 -47l-25 3q-11 1 -23 7l-13 6l-3 16q0 5 -8 60q-1 3 -1 6l-21 110q0 5 -21 107l-12 46l-21 70q1 3 6 3h8q9 0 25 4z" />
    <glyph glyph-name="w" unicode="w" horiz-adv-x="500" 
d="M41 412q17 9 27 7q7 -1 22 -92q2 -9 3 -15l31 -186q7 -29 12 -26q5 8 18 48l12 41l28 79q0 2 1 4l22 83q6 25 9 31q3 7 3 17t6 13q10 6 35 -2q5 -1 7 -3q3 -4 5 -20q3 -30 14 -68q4 -14 9 -37l8 -27q12 -52 22 -85l7 -22q3 -8 7 -8q3 2 8 22q7 25 10 32q6 13 16 45
q10 31 16 50q7 18 9 26t9 31q7 22 11 38q5 26 6 26q12 7 33 -1q2 -1 3 -1q7 -5 6 -17t-4 -15q-5 -7 -14 -54q-4 -20 -14 -54q-9 -35 -13 -53q-1 -9 -13 -38q-8 -19 -17 -54q-5 -19 -15 -51q-9 -31 -10 -36q-3 -17 -8 -20q-2 0 -1 0h-17q-34 0 -35 2l-12 66q-12 44 -14 56
l-16 93q-2 9 -6 20t-8 29q-6 26 -9 25q-2 -1 -8 -20t-10 -30l-35 -119l-11 -47q-5 -21 -8 -38t-6 -24l-3 -7l-35 1q-46 1 -47 9q2 4 -1 17l-6 31l-19 84q-19 113 -22 143l-9 45l-11 45q3 6 9 6q6 1 13 5z" />
    <glyph glyph-name="x" unicode="x" horiz-adv-x="421" 
d="M103 475q24 6 30 2l20 -43q10 -17 39 -65l16 -28l14 -23q5 -9 7 -10q1 0 4 3q14 12 53 66q9 12 15 18q5 6 14 22q14 24 21 33t10 9q5 1 15 -8l25 -23q2 -4 -8 -14q-7 -6 -12 -16q-11 -20 -29 -42q-8 -9 -22 -28q-26 -39 -34 -49q-16 -18 -17 -34q0 -7 38 -68
q14 -23 14 -26q0 -4 51 -86q1 -3 2 -4q12 -21 8 -24q-6 -6 -49 -8l-14 -1q-7 12 -8 17l-30 67q-15 27 -15 30q-3 11 -22 43l-12 21l-9 -8l-16 -21l-40 -49q-22 -27 -27 -32q-19 -20 -34 -38q-24 -30 -31 -30q-6 0 -24 22q-3 4 -6 7q-15 16 -15 23q0 3 28 27q10 9 11 11
q9 10 28 28q18 19 51 59q34 41 42 49q8 9 8 13q0 10 -53 103q-3 6 -6 10q-14 24 -17 29l-17 30q-14 29 -13 32q1 1 16 4z" />
    <glyph glyph-name="y" unicode="y" horiz-adv-x="411" 
d="M22 436q5 6 33 4q6 -1 8 -2q3 -2 9 -19q24 -65 27 -69q2 -2 8 -18q28 -76 33 -82l29 -70l5 -18q10 -31 16 -38q4 -6 9 3q0 3 17 40q3 7 8 15q16 27 55 130l39 99q3 5 6 7q5 4 44 -14q13 -6 13 -9l-24 -48q-6 -16 -18 -39l-27 -58l-1 -2l-43 -86l-22 -48l-25 -63l-13 -25
l-24 -53q-18 -41 -37 -71q-10 -16 -13 -22q-10 -22 -17 -42q-5 -14 -20 -11q-46 14 -53 24q-4 6 1 16q4 10 8 13l60 87q0 2 7 12t14 24q6 14 14 27q9 13 10 18q3 6 -8 39l-9 19q-2 6 -7 18l-10 29l-9 32q-13 43 -20 51q-3 4 -10 22q-7 19 -9 24q-7 17 -17 44l-25 57
q-19 45 -12 53z" />
    <glyph glyph-name="z" unicode="z" horiz-adv-x="474" 
d="M353 436q47 3 50 0q5 -7 6 -18q2 -10 5 -18q2 -7 -5 -17q-7 -9 -18 -19l-85 -81q-34 -34 -40 -38q-7 -4 -13 -11q-6 -8 -43 -45q-37 -36 -55 -57l-24 -27q-9 -10 -1 -11q5 -1 22 0q26 1 78 2t60 4q9 2 26 3q17 2 31 4q13 3 34 4q20 1 24 3t9 0q4 -2 4 -18q0 -3 2 -17
q2 -13 2 -14q-3 -5 -32 -5q-4 0 -17 -2q-76 -12 -112 -13q-36 -2 -60 -4q-24 -3 -41 -2q-53 2 -93 -7l-28 -3q-4 0 -5 2q-1 1 -3 15q-2 13 -4 17q-4 7 38 49q32 33 37 39t17 16q13 11 67 68l32 33l41 44l43 45q18 19 18 22q0 5 -108 6q-8 1 -14 1q-66 -1 -93 -5
q-38 -6 -44 -3q-16 9 -13 17l4 39q3 3 40 1q35 -1 46 -2q52 -5 197 2q10 0 18 1z" />
    <glyph glyph-name="braceleft" unicode="{" horiz-adv-x="202" 
d="M100 636q13 7 38 8q25 0 29 -2q4 -3 3 -36v-14q-1 -1 -19 -2q-17 0 -23 -2t-12 -3q-11 -1 -29 -27q-4 -6 -7 -11q-13 -27 -8 -72q1 -8 2 -13q3 -12 24 -32q15 -15 22 -19q8 -5 8 -11q0 -11 -24 -37t-18 -37q6 -12 17 -23q9 -9 12 -20q4 -10 0 -17q-8 -15 -29 -83
q-9 -19 -9 -41q5 -38 41 -62q14 -9 28 -11q20 -2 23 -8q5 -8 -2 -38q0 -4 -1 -6q-2 -2 -23 -1t-36 10l-39 27q-27 22 -32 38q-11 43 -8 59q6 35 18 64l11 24q6 14 6 24q0 24 -26 53q-14 16 -14 19t6 10q30 31 30 39q0 6 -13 27q-17 26 -21 56q-2 16 -2 18q-4 12 5 55
q1 3 2 5l9 21q22 50 61 71z" />
    <glyph glyph-name="bar" unicode="|" horiz-adv-x="163" 
d="M59 709q10 2 17 -3q3 -3 14 -3q10 0 12 -6q6 -17 -2 -108q-1 -15 -2 -20q-2 -10 -4 -95q-2 -157 0 -182q2 -20 3 -46t3 -48t1 -29q-2 -35 2 -91q2 -36 2 -78t3 -88t-2 -51q-4 -3 -23 -4q-20 0 -29 -1t-13 6t-3 9q3 4 -2 184q-1 46 -3 55q-6 21 2 65q2 13 4 90
q3 153 5 201q5 111 4 215q-1 25 11 28z" />
    <glyph glyph-name="braceright" unicode="}" horiz-adv-x="256" 
d="M49 677q50 9 77 -7q2 -1 4 -3l19 -11q38 -35 41 -40q8 -13 10 -24q3 -9 4 -49q1 -41 -5 -59q-1 -1 -2 -4q-7 -21 -14 -33l-16 -31q-1 -2 -3 -5q-12 -17 -9 -23q2 -5 23 -26l20 -20l-4 -8q-4 -8 -18 -17q-18 -12 -13 -22q3 -6 20 -23q21 -20 26 -35q2 -5 7 -20
q9 -29 5 -53q-7 -40 -9 -45q-6 -20 -18 -37q-18 -26 -36 -37q-3 -2 -8 -4l-21 -9l-23 -1l-61 -1q-13 0 -15 8q-3 10 6 42q1 1 39 1q64 1 77 22q3 5 5 7q14 13 20 55q3 24 -8 49q-8 18 -50 56q-9 3 -17 20q-2 3 -2 4q0 6 12 17q20 21 20 26q0 12 -24 32q-5 5 -9 7
q-8 4 -11 12q-2 9 0 10q3 1 25 22q20 18 41 66q8 18 8 45t-5 39q-10 23 -33 41q-18 10 -57 4q-5 0 -8 -1q-20 -5 -24 2q-7 14 -3 49q0 7 2 8q2 2 15 4z" />
    <glyph glyph-name="asciitilde" unicode="~" horiz-adv-x="635" 
d="M190 599q31 8 70 2q3 0 5 -1q17 -4 34 -20q4 -4 7 -4q2 0 0 -2q-1 -2 6 -7l13 -11q7 -5 15 -10t16 -11q22 -17 51 -28q20 -7 53 7q24 10 34 21q10 10 13 10q2 0 17 14t21 18q6 5 7 9q4 10 22 1q17 -8 23 -16q3 -4 -9 -23q-17 -26 -48 -53q-6 -6 -7 -6q-2 0 -14 -10
q-11 -11 -11 -10t-7 -3q-6 -5 -21 -12l-26 -12q-11 -5 -33 -7q-21 -2 -34 6q-12 7 -15 7q-2 0 -12 7q-10 8 -13 8t-6 3q-2 3 -13 9t-20 14t-25 15t-17 9q-7 10 -49 16q-9 1 -14 1q-20 0 -50 -19q-10 -7 -12 -7q-5 0 -33 -26l-3 -3q-1 -3 -3 -1q-3 2 -25 -25q-5 -7 -7 -11
q-4 -8 -13 -8q-9 -1 -13 6q-3 7 -9 9q-9 2 -11 15q-1 4 0 6q3 3 3 6q0 6 16 19q5 3 6 3q2 0 2 2q0 5 31 33q6 6 7 6q3 0 16 13t21 19q28 21 64 32z" />
    <glyph glyph-name="Euro" unicode="&#x20ac;" horiz-adv-x="530" 
d="M280.052 359.258q3.53809 1.5498 7.78223 0.775391q4.95215 -0.775391 17.6865 -1.5498q12.7344 -0.775391 15.5645 -0.775391q7.07422 0 9.9043 -17.8242q0 -3.09961 0.707031 -5.4248q0 -10.0742 2.12305 -20.9238q2.8291 -13.1738 -3.53809 -14.7246
q-3.53711 -1.5498 -14.1484 -0.774414q-14.1494 1.5498 -24.7617 1.5498q-19.8086 1.5498 -24.7607 0.775391l-176.157 -1.55078h-4.24414q-3.53809 0.775391 -16.9795 0l-21.9307 -2.32422q-2.12305 0.774414 -2.83008 3.09961l-7.0752 39.5234q0 5.4248 9.19727 11.624
q4.24512 1.5498 55.8896 1.5498q51.6445 0.775391 54.4736 2.3252q7.0752 2.3252 96.9219 3.09961q21.9316 0 26.1758 1.5498zM265.052 515.258q3.53809 1.5498 7.78223 0.775391q4.95215 -0.775391 17.6865 -1.5498q12.7344 -0.775391 15.5645 -0.775391
q7.07422 0 9.9043 -17.8242q0 -3.09961 0.707031 -5.4248q0 -10.0742 2.12305 -20.9238q2.8291 -13.1738 -3.53809 -14.7246q-3.53711 -1.5498 -14.1484 -0.774414q-14.1494 1.5498 -24.7617 1.5498q-19.8086 1.5498 -24.7607 0.775391l-176.157 -1.55078h-4.24414
q-3.53809 0.775391 -16.9795 0l-21.9307 -2.32422q-2.12305 0.774414 -2.83008 3.09961l-7.0752 39.5234q0 5.4248 9.19727 11.624q4.24512 1.5498 55.8896 1.5498q51.6445 0.775391 54.4736 2.3252q7.0752 2.3252 96.9219 3.09961q21.9316 0 26.1758 1.5498zM298 733
q40 5 68 -7q26 -10 31 -12q27 -11 38 -27q2 -3 2 -5q0 -5 -9 -16q-13 -18 -14 -21q-10 -18 -31 2q-6 6 -18 14q-34 16 -49 16q-3 0 -11 -1q-34 -1 -63 -27l-6 -6q-17 -16 -36 -56q-38 -78 -43 -145q-5 -66 13 -162q4 -19 8 -31q15 -45 46 -80q21 -27 59 -47q8 -4 13 -5
q14 -3 21 -7q25 -8 56 7q3 1 6 3q35 21 57 49q4 4 5 7q4 9 7 9l7 1h1q5 1 35 -26q13 -13 11 -18q-1 -2 -3 -4l-14 -14q-13 -21 -28 -27q-3 -1 -4 -3q-5 -5 -33 -17q-31 -13 -36 -16q-9 -6 -69 -3q-6 1 -9 1q-23 4 -66 24q-10 0 -55 41q-17 16 -17 19l-33 46q-14 24 -20 50
l-21 96q-3 13 -3 65q0 75 20 128q20 58 15 46l17 30q14 26 17 29l13 20q8 16 21 24l21 18q19 18 67 34q10 3 16 4z" />
    <glyph glyph-name="quotesinglbase" unicode="&#x201a;" horiz-adv-x="180" 
d="M66 119q3 6 7 4q12 -6 46 -6q22 1 27 -4q8 -7 -2 -21q-8 -11 -15 -42q-5 -37 -30 -83q-6 -11 -10 -13q-8 -4 -44 -2q-7 1 -7 2l-2 4q0 3 14 61q7 31 12 83q1 12 4 17z" />
    <glyph glyph-name="circumflex" unicode="&#x2c6;" horiz-adv-x="415" 
d="M187 745q8 3 16 1t12 -2q9 0 12 -14q0 -10 98 -108q59 -59 61 -65q0 -7 -14 -14q-16 -11 -17 -13q-4 -4 -14 -3t-16 12q-7 13 -16 21l-35 42q-23 30 -29 36q-2 2 -14 18q-22 27 -29 27q-4 1 -43 -42q-7 -8 -8 -10q0 -2 -13 -15q-11 -11 -23 -29q-18 -28 -31 -43
q-4 -5 -13 -1l-32 24q-1 2 -2 3l-6 9l15 22q19 29 29 41l24 32l25 31q17 17 21 27q5 10 20 10q20 2 22 3z" />
    <glyph glyph-name="quoteleft" unicode="&#x2018;" horiz-adv-x="192" 
d="M119 589q-3 -6 -7 -3q-12 6 -46 5q-22 0 -27 5q-8 6 2 21q8 10 14 42l40 96q9 4 45 1q7 0 6 -1l3 -4q0 -3 -14 -61q-8 -32 -12 -83q-1 -12 -4 -18z" />
    <glyph glyph-name="quoteright" unicode="&#x2019;" horiz-adv-x="192" 
d="M70 759q3 6 7 4q12 -6 46 -6q21 1 27 -4q7 -7 -3 -21q-7 -10 -14 -42l-40 -96q-8 -4 -44 -2q-8 1 -7 2l-2 4q0 3 13 61q8 31 12 83q1 12 5 17z" />
    <glyph glyph-name="quotedblleft" unicode="&#x201c;" horiz-adv-x="348" 
d="M119 589q-3 -6 -7 -3q-12 6 -46 5q-22 0 -27 5q-8 6 2 21q8 10 14 42l40 96q9 4 45 1q7 0 6 -1l3 -4q0 -3 -14 -61q-8 -32 -12 -83q-1 -12 -4 -18zM284 589q-3 -6 -7 -3q-12 6 -46 5q-22 0 -27 5q-8 6 2 21q8 10 14 42l40 96q9 4 45 1q7 0 6 -1l3 -4q0 -3 -14 -61
q-8 -32 -12 -83q-1 -12 -4 -18z" />
    <glyph glyph-name="quotedblright" unicode="&#x201d;" horiz-adv-x="348" 
d="M235 759q3 6 7 4q12 -6 46 -6q21 1 27 -4q7 -7 -3 -21q-7 -10 -14 -42l-40 -96q-8 -4 -44 -2q-8 1 -7 2l-2 4q0 3 13 61q8 31 12 83q1 12 5 17zM70 759q3 6 7 4q12 -6 46 -6q21 1 27 -4q7 -7 -3 -21q-7 -10 -14 -42l-40 -96q-8 -4 -44 -2q-8 1 -7 2l-2 4q0 3 13 61
q8 31 12 83q1 12 5 17z" />
    <glyph glyph-name="tilde" unicode="&#x2dc;" horiz-adv-x="635" 
d="M190 599q31 8 70 2q3 0 5 -1q17 -4 34 -20q4 -4 7 -4q2 0 0 -2q-1 -2 6 -7l13 -11q7 -5 15 -10t16 -11q22 -17 51 -28q20 -7 53 7q24 10 34 21q10 10 13 10q2 0 17 14t21 18q6 5 7 9q4 10 22 1q17 -8 23 -16q3 -4 -9 -23q-17 -26 -48 -53q-6 -6 -7 -6q-2 0 -14 -10
q-11 -11 -11 -10t-7 -3q-6 -5 -21 -12l-26 -12q-11 -5 -33 -7q-21 -2 -34 6q-12 7 -15 7q-2 0 -12 7q-10 8 -13 8t-6 3q-2 3 -13 9t-20 14t-25 15t-17 9q-7 10 -49 16q-9 1 -14 1q-20 0 -50 -19q-10 -7 -12 -7q-5 0 -33 -26l-3 -3q-1 -3 -3 -1q-3 2 -25 -25q-5 -7 -7 -11
q-4 -8 -13 -8q-9 -1 -13 6q-3 7 -9 9q-9 2 -11 15q-1 4 0 6q3 3 3 6q0 6 16 19q5 3 6 3q2 0 2 2q0 5 31 33q6 6 7 6q3 0 16 13t21 19q28 21 64 32z" />
    <glyph glyph-name="Ydieresis" unicode="&#x178;" horiz-adv-x="388" 
d="M293.273 631.068q3.46484 5.17676 21.6523 -3.4502q2.59863 -1.72559 4.33008 -2.58887q17.3223 -11.2148 19.9209 -11.2148q4.33008 0 8.66016 -6.90234q0 -2.58789 -4.33008 -8.62695q-3.46387 -3.45117 -16.4561 -29.333q-33.7773 -69.0186 -38.9736 -75.0576
q-0.866211 -1.72559 -26.8486 -59.5283q-0.866211 -2.58887 -1.73242 -4.31348l-20.7861 -44l-14.7236 -26.7441v-0.863281l-5.19629 -12.0781l-5.19629 -45.7246q-0.866211 -19.8428 -0.866211 -46.5879q0 -117.331 6.92871 -193.252l0.866211 -30.1953
q-1.73242 -1.72559 -12.126 -3.45117q-24.25 -4.31348 -28.5801 -3.45117q-4.33105 1.72559 -5.19727 28.4707q0 9.49023 -0.865234 30.1953l-3.46484 72.4697q-5.19629 158.743 -12.125 182.899q-6.0625 22.4307 -6.92871 24.1562q-33.7773 67.293 -39.8408 80.2344
q-7.79395 15.5293 -12.9912 28.4697q-2.59766 8.62793 -12.125 25.8818q-13.8574 28.4707 -32.0449 69.8818q-6.0625 14.666 -14.7236 27.6074q-8.66113 12.9404 -8.66113 18.1172q0 3.45117 15.5898 12.0781q18.1875 9.49023 21.6523 8.62695q0 -0.862305 13.8574 -34.5088
q4.33008 -11.2158 10.3926 -24.1562l14.7236 -31.0586q25.1172 -56.0781 54.5635 -110.43l17.3223 -31.0586q10.3926 -20.7051 14.7236 -20.7051q6.92871 5.17578 38.9736 91.4492q4.33008 12.9414 7.79492 23.2939l46.7686 116.469zM223.15 701.044
q-2.31348 12.6826 4.86133 33.623q2.98242 8.4873 27.3652 7.05762q14.0977 -0.495117 23.6953 -5.9873q11.7129 -7.28418 14.2432 -13.1006l3.03613 -6.98047q3.48926 -9.85938 -3.55957 -26.7949q-2.31348 -4.50195 -4.0127 -6.73242q-7.32031 -8.33496 -24.6719 -7.72559
q-10.3027 0.361328 -21.4902 7.05566q-17.0811 9.19141 -19.4668 19.585zM66.4805 707.691q-1.82617 10.9473 5.47656 18.709q11.7842 12.1875 21.1465 16.4414q8.73047 1.41113 23.1357 -6.54102q2.13281 -1.21973 3.18066 -2.40234q1.57227 -1.77344 5.11523 -9.91699
q7.55566 -18.5938 -1.01172 -32.04q-7.87988 -8.8877 -16.0137 -8.60156q-18.4727 -0.49707 -20.0264 1.84863q-0.506836 1.16309 -5.82031 4.78613q-11.1699 7.26562 -15.1826 17.7168z" />
    <glyph glyph-name="nonbreakingspace" unicode="&#xa0;" 
 />
    <glyph glyph-name="exclamdown" unicode="&#xa1;" horiz-adv-x="211" 
d="M89.167 588.899q-8.48535 -11.3145 -14.4258 -12.1641q-9.89941 -1.41406 -24.042 12.7275q-2.5459 3.67676 -3.95996 6.50586q-12.5869 31.5371 -9.89941 48.085q7.77832 58.6934 49.2168 44.4111q10.748 -4.52539 15.5566 -16.9707q2.82812 -12.7285 4.38379 -23.6182
q2.6875 -25.8818 -13.4355 -54.4512zM128.62 -33.8066q-12.8701 -8.91113 -47.8027 -4.81152q-6.08105 0.141602 -9.33398 1.69629q-5.2334 1.27344 -5.79883 5.23242q-0.423828 2.9707 -4.80859 5.375q-4.24219 1.41406 -3.53516 17.6777q0.848633 15.2744 1.13184 20.3662
q1.13086 13.2939 -0.141602 57.5605l0.991211 141.57q0.707031 2.12109 -0.847656 20.083q-3.67676 61.0967 2.12207 77.0781q2.12109 6.36426 0.848633 50.6309q-2.2627 44.126 -1.13086 57.4199q0.141602 13.1533 -4.94922 48.793q-5.94043 34.5078 -5.23242 43.7012
l0.423828 11.1729l0.848633 1.13086l18.8096 2.68848q26.8711 9.90137 36.6299 5.23438q1.13184 -0.848633 1.13184 -22.0625q-0.283203 -5.0918 -0.566406 -10.1826q0.56543 -39.3174 5.93945 -98.1514q2.2627 -22.9111 1.97949 -28.002l-1.83887 -64.916
q9.75781 -96.5947 7.63574 -102.959l13.293 -128.417q0.283203 -1.97949 -0.566406 -95.0391q0.424805 -10.042 -5.23242 -12.8701z" />
    <glyph glyph-name="cent" unicode="&#xa2;" 
 />
    <glyph glyph-name="sterling" unicode="&#xa3;" 
 />
    <glyph glyph-name="currency" unicode="&#xa4;" 
 />
    <glyph glyph-name="yen" unicode="&#xa5;" 
 />
    <glyph glyph-name="brokenbar" unicode="&#xa6;" 
 />
    <glyph glyph-name="section" unicode="&#xa7;" horiz-adv-x="835" 
d="M808 384q0 -76 -20 -130q-30 -79 -66 -121q-23 -27 -55 -55q-10 -9 -50 -34q-51 -31 -68 -31q-2 0 -22 -7.5t-33 -7.5q-3 0 -8 -2q-6 -1 -10 -1t-12 -2q-7 -2 -10 -3q-42 -3 -85 0q-14 1 -24 1q-30 0 -86 26q-43 19 -72 39q-40 28 -80 74q-54 62 -72 133q-17 68 -17 121
q0 137 84 245q91 117 243 144q30 6 109 6q4 0 11 -3t10.5 -3t27.5 -7q24 -6 27 -6q20 0 100 -44q91 -60 138 -156q40 -84 40 -176zM790 384q0 43 -19 117q-15 56 -68 122q-58 72 -119 97q-55 22 -63 22q-4 0 -37 9t-37 9q-119 0 -200 -37q-98 -47 -163 -158
q-48 -82 -48 -181q0 -66 23 -127q35 -97 115 -165q81 -68 180 -82q28 -3 93 -3q4 0 12 1.5t12 1.5t9 2q4 1 8 1t27.5 7.5t25.5 7.5t44 19q69 32 119 94q25 32 47 76q39 79 39 167zM644 633q0 -8 -16 -45t-22 -37q-5 0 -19 7q0 2 1 6q5 2 17 10q-2 12 -11 39q-10 27 -10 30
q0 4 4 8q19 -12 19 -40q3 0 8 -6l18 37q11 0 11 -9zM577 619q0 -29 -25 -29q-4 0 -16 2q-11 2 -16 2v42v42q15 -8 15 -25q3 -1 9 1q5 3 8 3q8 0 16.5 -15t8.5 -23zM438 637q-7 -8 -25 -9t-18 -10q0 -5 8 -13q5 0 14 9h11q0 -8 -1 -11q-5 -10 -15 -10h-11q-13 0 -21 16
q-6 12 -6 19q0 38 44 38q4 0 10 -10zM371 594q-40 -10 -47 -10q-17 0 -17 27q0 22 19 35q7 2 23 10q3 10 3 12t5 7q1 0 9 -5q5 -18 5 -17v-59zM297 657q-1 0 -6.5 -1.5t-6.5 -1.5q-7 6 -1 18h14v-15zM495 446q0 -11 -12 -11q-4 0 -18 7v11q10 0 23 6q7 -7 7 -13zM304 637
q0 -2 -6 -9q-1 -11 -1 -53q-1 0 -7.5 -1.5t-9.5 -1.5q0 3 -2 8q-1 6 -1 10q0 24 7 56q4 1 12 5q8 -8 8 -14zM431 448l-26 -16l-1 8q-2 7 -2 16l8 2q8 1 18 1l3 -3v-8zM272 638l-10 -38q-6 -22 -17 -37q-15 5 -32 57q1 0 3.5 2t6.5 2t9 -10q4 -10 7 -18q11 3 17 22
q5 18 16 20zM204 638l-4 -14h-14v9q-1 5 2 6q4 1 4 2q8 0 12 -3zM538 270l-11 5l5 31zM206 555q-5 -9 -20 -16q-1 46 3 73l-3 5h20v-62zM656 336q0 -24 -7 -34q-17 -16 -47 -52q0 -5 -5 -15q-18 -22 -54 -24l-61 -2q-6 -4 -4 -9q-37 -23 -48 -23q-3 0 -17 7q-14 8 -18 8
t-40.5 -6t-39.5 -6q-34 0 -73 16q-39 17 -58 17q-22 0 -62 -11q6 7 46 23t46 16q8 0 35 -25q27 -24 43 -24h39q27 0 59 13q5 2 6 3q1 2 1 4q-2 4 -2 7q54 2 153 7q25 2 38 17q3 3 7 43q0 -5 7 -18q11 15 11 24q0 4 -6 21.5t-6 21.5q0 11 12 23q2 7 -11 7q-17 0 -45 -25
q1 -3 4 -3q-8 -9 -16 -10q-32 -7 -70 -7q4 0 -66 20q31 2 31 19q0 13 -18 24q5 -2 19 -9q14 -6 18 -6q10 0 17 12q4 10 8 19v-31h24q11 6 35 15q-8 -8 -15 -22v-17v-2q1 -1 6 -1l28 20q6 4 39 18q0 7 -4 17q-54 64 -146 106l-6 -6q-18 -3 -81 -24q20 17 43 29q10 3 20 5
q14 5 19 15h-50q-5 -1 -49 -20q-49 -21 -75 -36q-3 -2 -50 -36q-40 -30 -46 -30h-65q20 12 23 12q4 0 5 -1q1 -2 4 -2q29 0 39 6q22 19 73 56q45 29 79 43q63 25 78 25q47 0 95 -31q38 -26 64 -60q13 -13 37 -46q6 -9 -4 -19q3 -6 16 -9t14 -3q24 -20 24 -34zM179 539
q-41 -25 -47 -25q-15 0 -13 26q0 23 23 46q12 2 14 8q3 6 9 23h11q3 -26 3 -78zM571 107q0 -23 -10 -42q-3 -4 -9 -9q-2 0 -8 -4q-6 -3 -11 -3q-18 0 -29 23q-9 18 -9 38q0 10 2 17q4 12 21 23q16 12 24 12q17 0 24 -26q5 -15 5 -29zM486 117l-7 -7q-2 1 -9 16q-5 11 -10 11
q-21 0 -21 -44q0 -27 5 -46q-13 -7 -21 -3v79q-1 6 13 19q13 14 18 14q32 0 32 -23v-16zM407 98q-6 0 -23 2q-18 1 -21 1q-10 0 -10 -9q0 -34 23 -34q24 0 28 -4q-8 -11 -24 -11q-20 0 -31.5 18t-11.5 35q0 29 11 40q11 10 39 10q6 0 13 -11t7 -17v-20zM325 135
q-17 -17 -52 -56q33 -9 37 -9q11 0 15 -4v-10q-35 5 -50 5l-9 -3q-6 0 -20 7v14q12 20 52 54q-3 7 -26 11q-22 3 -26 10v10q29 -6 79 -15v-14zM559 606v29q-7 7 -12 7q-4 0 -12 -7v-26q8 -7 14 -7t10 4zM412 640q3 8 -10 14l-7 -7v-11h14zM517 487l-17 10l-2 -4l17 -10z
M349 618q0 17 -10 18q-14 3 -14 -22q0 -11 4 -18h13q7 8 7 22zM641 324v20q-5 0 -12 1.5t-11 1.5q-10 0 -10 -18q0 -11 7 -31q1 1 13 4q13 11 13 22zM161 558q0 15 -11 20q-16 -19 -16 -30q0 -4 1.5 -9t1.5 -6q1 0 2 1t5 1q17 0 17 23zM465 209q-5 0 -16 2t-14 2
q-12 0 -19 -14q8 -4 19 -4q18 0 30 14zM556 107q0 39 -15 39q-13 0 -21.5 -12t-8.5 -29q4 -38 21 -38q4 0 4 1q0 2 3 2q17 0 17 37zM395 114q-3 6 -11 13q-7 7 -10 7q-15 0 -18 -20q40 0 39 0z" />
    <glyph glyph-name="dieresis" unicode="&#xa8;" horiz-adv-x="325" 
d="M202.15 659.044q-2.31348 12.6826 4.86133 33.623q2.98242 8.4873 27.3652 7.05762q14.0977 -0.495117 23.6953 -5.9873q11.7129 -7.28418 14.2432 -13.1006l3.03613 -6.98047q3.48926 -9.85938 -3.55957 -26.7949q-2.31348 -4.50195 -4.0127 -6.73242
q-7.32031 -8.33496 -24.6719 -7.72559q-10.3027 0.361328 -21.4902 7.05566q-17.0811 9.19141 -19.4668 19.585zM45.4805 665.691q-1.82617 10.9473 5.47656 18.709q11.7842 12.1875 21.1465 16.4414q8.73047 1.41113 23.1357 -6.54102q2.13281 -1.21973 3.18066 -2.40234
q1.57227 -1.77344 5.11523 -9.91699q7.55566 -18.5938 -1.01172 -32.04q-7.87988 -8.8877 -16.0137 -8.60156q-18.4727 -0.49707 -20.0264 1.84863q-0.506836 1.16309 -5.82031 4.78613q-11.1699 7.26562 -15.1826 17.7168z" />
    <glyph glyph-name="copyright" unicode="&#xa9;" 
 />
    <glyph glyph-name="ordfeminine" unicode="&#xaa;" 
 />
    <glyph glyph-name="guillemotleft" unicode="&#xab;" 
 />
    <glyph glyph-name="logicalnot" unicode="&#xac;" 
 />
    <glyph glyph-name="softhyphen" unicode="&#xad;" horiz-adv-x="476" 
d="M369 461q5 2 11 1q7 -1 25 -2t22 -1q10 0 14 -23q0 -4 1 -7q0 -13 3 -27q4 -17 -5 -19q-5 -2 -20 -1q-20 2 -35 2q-28 2 -35 1l-249 -2h-6q-5 1 -24 0l-31 -3q-3 1 -4 4l-10 51q0 7 13 15q6 2 79 2q73 1 77 3q10 3 137 4q31 0 37 2z" />
    <glyph glyph-name="registered" unicode="&#xae;" 
 />
    <glyph glyph-name="macron" unicode="&#xaf;" horiz-adv-x="476" 
d="M361 747q5 2 11 1q7 -1 25 -2t22 -1q10 0 14 -23q0 -4 1 -7q0 -13 3 -27q4 -17 -5 -19q-5 -2 -20 -1q-20 2 -35 2q-28 2 -35 1l-249 -2h-6q-5 1 -24 0l-31 -3q-3 1 -4 4l-10 51q0 7 13 15q6 2 79 2q73 1 77 3q10 3 137 4q31 0 37 2z" />
    <glyph glyph-name="degree" unicode="&#xb0;" horiz-adv-x="225" 
d="M143.473 768.322q28.501 -2.4873 34.835 -6.63086q15.834 -10.7754 20.2676 -23.623q5.7002 -17.4062 5.06641 -48.0732v-4.14453q-4.43359 -34.8125 -6.33301 -40.6143q-5.7002 -14.9189 -9.50098 -19.4785q-17.1006 -24.0361 -29.7676 -31.082
q-8.2334 -4.55859 -17.7344 -7.45898l-13.3008 -2.90137l-15.834 -0.414062q-17.1006 0.828125 -26.6006 3.72949q-19.6348 6.2168 -36.1016 19.0635q-10.7676 8.70312 -15.835 33.5693v3.72949q-0.632812 12.0186 3.16699 33.9834q3.80078 21.5498 13.3008 34.8115
q1.90039 3.31543 5.06738 8.28906q15.834 26.5234 34.2012 37.2979q14.5674 8.70312 29.7676 10.3613q11.4014 1.24316 25.335 -0.414062zM143.473 748.015q-8.2334 2.07227 -18.3672 -1.65723q-15.834 -5.3877 -25.9688 -15.334q-10.1328 -9.11719 -9.5 -8.70312
q-6.9668 -7.45996 -15.834 -21.1357q-4.43359 -7.87402 -4.43359 -21.1357q0 -43.9297 2.5332 -51.8037q2.53418 -7.0459 6.9668 -11.6045q14.5674 -15.334 35.4688 -14.9189q26.6016 0.829102 48.1357 28.5957q0.632812 0.828125 1.2666 2.07129
q7.60059 10.3613 9.5 19.0645q1.90039 12.0186 1.2666 36.0547q0 11.1895 -6.9668 27.3525q-0.632812 2.48633 -3.16699 12.4326q-1.2666 6.2168 -11.4004 15.749q-0.632812 0.828125 -1.2666 1.65723q-3.16699 2.07227 -8.2334 3.31543z" />
    <glyph glyph-name="plusminus" unicode="&#xb1;" horiz-adv-x="391" 
d="M312.65 126.641q3.7627 1.59473 8.27734 0.797852q5.26758 -0.797852 18.8105 -1.59473q13.5449 -0.797852 16.5547 -0.797852q7.52344 0 10.5332 -18.3428q0 -3.18945 0.75293 -5.58203q0 -10.3672 2.25684 -21.5322q3.00977 -13.5566 -3.76172 -15.1523
q-3.76172 -1.59473 -15.0488 -0.796875q-15.0488 1.59473 -26.3359 1.59473q-21.0684 1.59473 -26.335 0.797852l-187.358 -1.5957h-4.51367q-3.7627 0.797852 -18.0586 0l-23.3262 -2.3916q-2.25781 0.796875 -3.00977 3.18945l-7.52441 40.6719q0 5.58203 9.78223 11.9619
q4.51367 1.59473 59.4424 1.59473q54.9287 0.797852 57.9385 2.39258q7.52344 2.39258 103.084 3.19043q23.3262 0 27.8398 1.59473zM199 640q13 1 15 -13q1 -7 2 -41t4 -49q3 -16 6 -36q3 -21 5 -23l92 9q27 3 33 -7q2 -2 3 -6q4 -9 1 -14q-3 -6 -3 -22t-5 -19
q-4 -3 -59 -3q-54 -1 -55 -2q-2 -2 1 -31l7 -104l2 -9q1 -23 7 -30q4 -3 3 -10q-2 -7 -11 -10q-10 -3 -13 -3q-4 1 -20 -1q-20 -3 -22 8q-1 4 0 10q0 11 -4 33q-3 21 -3 47v55q0 28 -3 37l-3 10l-56 -1l-66 1q-11 -2 -13 -2q-1 0 -7 5q-5 5 -4 16l3 32l54 -1q13 0 28 1
q50 3 53 5q0 1 -5 36q-10 63 -11 90q-2 19 -3 25q-2 7 10 10q6 2 17 3z" />
    <glyph glyph-name="uni00B2" unicode="&#xb2;" 
 />
    <glyph glyph-name="uni00B3" unicode="&#xb3;" 
 />
    <glyph glyph-name="acute" unicode="&#xb4;" horiz-adv-x="424" 
d="M334.164 765.814q17.4795 11.9932 21.6699 9.01953q2.2832 -1.8916 7.16602 -10.4365q4.88281 -8.54395 7.91211 -12.0547q3.01562 -4.49805 2.96094 -8.4502q-0.441406 -4.12988 -17.1055 -12.8027q-85.9727 -40.6621 -104.668 -57.1436
q-44.7754 -38.3359 -57.0977 -39.1143q-3.80371 3.15234 -15.0371 25.4551q-1.88086 3.05762 -1.86719 4.0459q-1.39844 10.1533 22.6621 25.1846l36.0928 22.5479q13.5928 9.21973 52.3408 29.0664q32.166 16.8086 44.9707 24.6826z" />
    <glyph glyph-name="mu" unicode="&#xb5;" 
 />
    <glyph glyph-name="paragraph" unicode="&#xb6;" 
 />
    <glyph glyph-name="periodcentered" unicode="&#xb7;" horiz-adv-x="193" 
d="M85 476q16 4 34 0q16 -4 33 -20l6 -15q8 -16 8 -37q-1 -37 -36 -54q-17 -8 -38 -5q-11 1 -19 3q-10 3 -26 18q0 1 -12 21v17q0 39 31 63q9 6 19 9z" />
    <glyph glyph-name="cedilla" unicode="&#xb8;" horiz-adv-x="180" 
d="M66 119q3 6 7 4q12 -6 46 -6q22 1 27 -4q8 -7 -2 -21q-8 -11 -15 -42q-5 -37 -30 -83q-6 -11 -10 -13q-8 -4 -44 -2q-7 1 -7 2l-2 4q0 3 14 61q7 31 12 83q1 12 4 17z" />
    <glyph glyph-name="uni00B9" unicode="&#xb9;" 
 />
    <glyph glyph-name="ordmasculine" unicode="&#xba;" 
 />
    <glyph glyph-name="guillemotright" unicode="&#xbb;" 
 />
    <glyph glyph-name="onequarter" unicode="&#xbc;" 
 />
    <glyph glyph-name="onehalf" unicode="&#xbd;" 
 />
    <glyph glyph-name="threequarters" unicode="&#xbe;" 
 />
    <glyph glyph-name="questiondown" unicode="&#xbf;" horiz-adv-x="419" 
d="M255.084 610.943q-28.7002 -14.6074 -51.9902 -1.09473q-29.4355 20.3857 0.782227 58.0312q11.7246 13.251 34.7207 13.7354q38.9922 0.820312 42.6641 -31.1104q1.25195 -11.9766 -6.53711 -22.1436q-7.76758 -11.166 -19.6396 -17.418zM202.127 36.6797
q-14.9551 -2.31543 -23.9326 -3.50488q-27.9736 -1.58887 -67.4707 21.585q-5.06152 2.89453 -7.10352 4.85156q-34.6445 30.2783 -61.7529 82.7217q-12.502 23.7432 -19.1299 53.6113q-2.12598 5.95605 -3.20996 9.93457q-5.31348 14.8916 -1.17578 55.9902
q3.47461 25.0791 23.7988 57.5156q1.93652 3.04102 3.89453 5.08301q15.6191 18.334 20.5342 22.4385q22.6172 18.4805 61.2959 34.2998q4.97754 1.10449 7.95605 2.16797q17.8916 5.37793 29.8682 6.62988q32.9102 4.69434 34.7842 10.7354
q2.85254 7.0625 0.550781 69.0293q-1.00781 47.9912 -2.0498 49.9697q-3.16699 7.93555 16.7246 13.3564q2.97852 1.0625 6.97754 1.14648q13.9551 2.29492 18.9336 3.39941q21.8701 6.46289 24.0166 -0.494141q2.08301 -3.95703 1.46094 -21.9746
q-0.537109 -22.0176 0.197266 -57.0107q0.839844 -39.9932 -4.85742 -102.129q-2.91504 -4.0625 -35.8877 -5.75684q-33.9727 -1.71582 -42.9082 -4.90527l-46.5928 -19.9854q-21.8066 -9.46191 -35.5107 -23.7539q-3.93555 -3.08398 -8.85059 -7.18848
q-29.4492 -26.627 -0.668945 -111.043q11.7324 -34.7617 21.9619 -45.5498q3.0625 -2.93555 5.14551 -6.89258q5.20898 -9.89355 32.54 -25.3223q2.04199 -1.95703 4.04102 -1.91504l19.207 -9.59766q13.123 -5.72559 23.1426 -6.51465q51.0957 -3.92578 115.509 72.4512
q9.76758 11.208 12.7041 14.2705l6.87207 6.14648l13.124 -5.72559q14.123 -5.70312 18.207 -9.61914l20.1846 -8.57715q1.04199 -1.97852 1.10547 -4.97754q0.104492 -4.99902 -52.8564 -55.127q-9.83008 -8.20898 -11.8086 -9.25098q-9.87305 -6.20996 -10.8516 -7.23047
q-17.5137 -23.375 -94.1641 -40.9932q-7.97754 -1.16895 -13.9551 -2.29492z" />
    <glyph glyph-name="Agrave" unicode="&#xc0;" horiz-adv-x="424" 
d="M193.904 605.278q6.52734 6.05469 19.582 5.18945q2.79785 0 11.1904 -0.864258q32.6367 -3.46094 35.4346 -10.3809q0.932617 -2.59473 0.932617 -8.64941q0 -16.4346 6.52734 -47.5742l4.66211 -22.4902q0 -3.45996 2.79785 -16.4346
q0.932617 -6.91992 13.9873 -84.7695q5.59473 -31.1387 5.59473 -30.2744l12.123 -53.6289q3.72949 -19.8955 6.52734 -28.5449q22.3799 -75.2539 34.502 -135.804l10.2578 -39.7891q0.932617 -4.3252 10.2568 -36.3301q9.3252 -30.2744 10.2578 -32.8691
q6.52734 -15.5703 -6.52734 -24.2197l-3.73047 -1.73047q-14.9199 -6.91992 -30.7725 -1.72949q-8.3916 9.51465 -9.32422 14.7051q0 31.1387 -23.3125 131.479q-2.79785 9.51465 -4.66211 16.4346q-4.66309 16.4346 -6.52832 28.5439q-8.3916 44.1152 -16.7842 45.8447
l-13.9883 0.865234h-0.931641q-58.748 5.19043 -90.4521 5.19043q-28.9072 0 -31.7051 -4.3252q-1.86523 -2.59473 -5.59473 -19.0303q-1.86523 -6.91992 -12.123 -48.4395q-6.52734 -26.8145 -8.39258 -38.9238q-1.86426 -14.7051 -2.79688 -15.5703l-15.8525 -93.4189
q0 -10.3799 -4.66211 -14.7051q-7.45996 -8.64941 -35.4355 1.73047q-13.9873 5.18945 -13.0547 9.51465l11.1904 34.5996q0.931641 12.1094 31.7041 115.908q0.932617 2.5957 5.5957 19.8955q19.582 76.9834 27.042 98.6084q5.59473 21.625 9.3252 42.3848
q6.52734 29.4102 8.39258 38.9248q14.9199 53.6289 17.7168 64.874q2.79785 15.5703 11.1904 41.5195q12.1221 41.5195 21.4473 80.4443q1.86523 7.78418 8.39258 13.8398zM226.541 522.239q-4.66211 28.5439 -8.39258 28.5439q-2.79688 0 -2.79688 -0.864258
q0 -5.19043 -7.45996 -27.6797l-12.1221 -44.1143q-5.5957 -22.4902 -13.0557 -43.25q-29.8398 -100.339 -29.8398 -111.584q0 -0.865234 4.66309 -0.865234q4.66211 0 17.7168 -1.72949l28.9072 -2.59473q4.66309 -0.865234 35.4355 -5.19043
q15.8525 -2.59473 26.1094 -0.864258l6.52734 1.72949l-3.72949 19.0303q-0.932617 6.91992 -9.3252 39.7891q-5.59473 22.4902 -7.45996 32.8691q-3.73047 28.5449 -15.8525 78.7148q-0.932617 1.72949 -9.3252 38.0596zM248.525 673.769
q17.2461 -12.3301 15.8838 -17.2852q-0.998047 -2.79102 -7.35938 -10.2998q-6.36035 -7.50879 -8.62402 -11.5557q-3.19629 -4.37109 -6.92969 -5.66992q-4.03223 -0.995117 -17.8789 11.7021q-67.5977 66.9102 -89.4775 78.8496q-51.3301 28.9834 -56.2734 40.2988
q1.66211 4.65137 18.7822 22.8291q2.23145 2.81348 3.16406 3.1377q9.06445 4.7832 31.415 -12.6953l33.5264 -26.2168q13.3096 -9.62598 45.2051 -39.2627q26.791 -24.4873 38.5664 -33.832z" />
    <glyph glyph-name="Aacute" unicode="&#xc1;" horiz-adv-x="424" 
d="M334.164 765.814q17.4795 11.9932 21.6699 9.01953q2.2832 -1.8916 7.16602 -10.4365q4.88281 -8.54395 7.91211 -12.0547q3.01562 -4.49805 2.96094 -8.4502q-0.441406 -4.12988 -17.1055 -12.8027q-85.9727 -40.6621 -104.668 -57.1436
q-44.7754 -38.3359 -57.0977 -39.1143q-3.80371 3.15234 -15.0371 25.4551q-1.88086 3.05762 -1.86719 4.0459q-1.39844 10.1533 22.6621 25.1846l36.0928 22.5479q13.5928 9.21973 52.3408 29.0664q32.166 16.8086 44.9707 24.6826zM193.904 605.278
q6.52734 6.05469 19.582 5.18945q2.79785 0 11.1904 -0.864258q32.6367 -3.46094 35.4346 -10.3809q0.932617 -2.59473 0.932617 -8.64941q0 -16.4346 6.52734 -47.5742l4.66211 -22.4902q0 -3.45996 2.79785 -16.4346q0.932617 -6.91992 13.9873 -84.7695
q5.59473 -31.1387 5.59473 -30.2744l12.123 -53.6289q3.72949 -19.8955 6.52734 -28.5449q22.3799 -75.2539 34.502 -135.804l10.2578 -39.7891q0.932617 -4.3252 10.2568 -36.3301q9.3252 -30.2744 10.2578 -32.8691q6.52734 -15.5703 -6.52734 -24.2197l-3.73047 -1.73047
q-14.9199 -6.91992 -30.7725 -1.72949q-8.3916 9.51465 -9.32422 14.7051q0 31.1387 -23.3125 131.479q-2.79785 9.51465 -4.66211 16.4346q-4.66309 16.4346 -6.52832 28.5439q-8.3916 44.1152 -16.7842 45.8447l-13.9883 0.865234h-0.931641
q-58.748 5.19043 -90.4521 5.19043q-28.9072 0 -31.7051 -4.3252q-1.86523 -2.59473 -5.59473 -19.0303q-1.86523 -6.91992 -12.123 -48.4395q-6.52734 -26.8145 -8.39258 -38.9238q-1.86426 -14.7051 -2.79688 -15.5703l-15.8525 -93.4189q0 -10.3799 -4.66211 -14.7051
q-7.45996 -8.64941 -35.4355 1.73047q-13.9873 5.18945 -13.0547 9.51465l11.1904 34.5996q0.931641 12.1094 31.7041 115.908q0.932617 2.5957 5.5957 19.8955q19.582 76.9834 27.042 98.6084q5.59473 21.625 9.3252 42.3848q6.52734 29.4102 8.39258 38.9248
q14.9199 53.6289 17.7168 64.874q2.79785 15.5703 11.1904 41.5195q12.1221 41.5195 21.4473 80.4443q1.86523 7.78418 8.39258 13.8398zM226.541 522.239q-4.66211 28.5439 -8.39258 28.5439q-2.79688 0 -2.79688 -0.864258q0 -5.19043 -7.45996 -27.6797
l-12.1221 -44.1143q-5.5957 -22.4902 -13.0557 -43.25q-29.8398 -100.339 -29.8398 -111.584q0 -0.865234 4.66309 -0.865234q4.66211 0 17.7168 -1.72949l28.9072 -2.59473q4.66309 -0.865234 35.4355 -5.19043q15.8525 -2.59473 26.1094 -0.864258l6.52734 1.72949
l-3.72949 19.0303q-0.932617 6.91992 -9.3252 39.7891q-5.59473 22.4902 -7.45996 32.8691q-3.73047 28.5449 -15.8525 78.7148q-0.932617 1.72949 -9.3252 38.0596z" />
    <glyph glyph-name="Acircumflex" unicode="&#xc2;" horiz-adv-x="424" 
d="M221.048 752.253q4.58008 1.78516 9.15918 0.594727q4.58008 -1.18945 6.86914 -1.18945q5.15234 0 6.87012 -8.33008q0 -5.94922 56.0996 -64.2559q33.7744 -35.1035 34.9189 -38.6738q0 -4.16406 -8.01367 -8.3291q-9.15918 -6.54492 -9.73145 -7.73535
q-2.29004 -2.37891 -8.01465 -1.78418t-9.15918 7.13965q-4.00684 7.73438 -9.15918 12.4941l-20.0361 24.9883q-13.166 17.8496 -16.6006 21.4199q-1.14453 1.18945 -8.01465 10.709q-12.5938 16.0645 -16.6006 16.0645q-2.29004 0.594727 -24.6152 -24.9893
q-4.00781 -4.75977 -4.58008 -5.94922q0 -1.19043 -7.44141 -8.9248q-6.29688 -6.54492 -13.166 -17.2539q-10.3047 -16.6592 -17.7461 -25.584q-2.29004 -2.97461 -7.44238 -0.594727l-18.3184 14.2793q-0.572266 1.18945 -1.14453 1.78418l-3.43457 5.35547
l8.58691 13.0889q10.876 17.2549 16.6006 24.3936l13.7393 19.0391l14.3105 18.4443q9.73145 10.1143 12.0215 16.0645q2.8623 5.9502 11.4492 5.9502q11.4492 1.18945 12.5938 1.78418zM193.904 605.278q6.52734 6.05469 19.582 5.18945q2.79785 0 11.1904 -0.864258
q32.6367 -3.46094 35.4346 -10.3809q0.932617 -2.59473 0.932617 -8.64941q0 -16.4346 6.52734 -47.5742l4.66211 -22.4902q0 -3.45996 2.79785 -16.4346q0.932617 -6.91992 13.9873 -84.7695q5.59473 -31.1387 5.59473 -30.2744l12.123 -53.6289
q3.72949 -19.8955 6.52734 -28.5449q22.3799 -75.2539 34.502 -135.804l10.2578 -39.7891q0.932617 -4.3252 10.2568 -36.3301q9.3252 -30.2744 10.2578 -32.8691q6.52734 -15.5703 -6.52734 -24.2197l-3.73047 -1.73047q-14.9199 -6.91992 -30.7725 -1.72949
q-8.3916 9.51465 -9.32422 14.7051q0 31.1387 -23.3125 131.479q-2.79785 9.51465 -4.66211 16.4346q-4.66309 16.4346 -6.52832 28.5439q-8.3916 44.1152 -16.7842 45.8447l-13.9883 0.865234h-0.931641q-58.748 5.19043 -90.4521 5.19043q-28.9072 0 -31.7051 -4.3252
q-1.86523 -2.59473 -5.59473 -19.0303q-1.86523 -6.91992 -12.123 -48.4395q-6.52734 -26.8145 -8.39258 -38.9238q-1.86426 -14.7051 -2.79688 -15.5703l-15.8525 -93.4189q0 -10.3799 -4.66211 -14.7051q-7.45996 -8.64941 -35.4355 1.73047
q-13.9873 5.18945 -13.0547 9.51465l11.1904 34.5996q0.931641 12.1094 31.7041 115.908q0.932617 2.5957 5.5957 19.8955q19.582 76.9834 27.042 98.6084q5.59473 21.625 9.3252 42.3848q6.52734 29.4102 8.39258 38.9248q14.9199 53.6289 17.7168 64.874
q2.79785 15.5703 11.1904 41.5195q12.1221 41.5195 21.4473 80.4443q1.86523 7.78418 8.39258 13.8398zM226.541 522.239q-4.66211 28.5439 -8.39258 28.5439q-2.79688 0 -2.79688 -0.864258q0 -5.19043 -7.45996 -27.6797l-12.1221 -44.1143
q-5.5957 -22.4902 -13.0557 -43.25q-29.8398 -100.339 -29.8398 -111.584q0 -0.865234 4.66309 -0.865234q4.66211 0 17.7168 -1.72949l28.9072 -2.59473q4.66309 -0.865234 35.4355 -5.19043q15.8525 -2.59473 26.1094 -0.864258l6.52734 1.72949l-3.72949 19.0303
q-0.932617 6.91992 -9.3252 39.7891q-5.59473 22.4902 -7.45996 32.8691q-3.73047 28.5449 -15.8525 78.7148q-0.932617 1.72949 -9.3252 38.0596z" />
    <glyph glyph-name="Atilde" unicode="&#xc3;" horiz-adv-x="424" 
d="M182.393 711.952q14.2588 4.21973 32.1973 1.05469q1.37988 0 2.2998 -0.527344q7.81934 -2.11035 15.6387 -10.5498q1.83984 -2.10938 3.21973 -2.10938q0.919922 0 0 -1.05469q-0.459961 -1.05469 2.75977 -3.69238l5.97949 -5.80176q3.21973 -2.6377 6.89941 -5.27539
q3.67969 -2.63672 7.35938 -5.80176q10.1191 -8.9668 23.458 -14.7695q9.19922 -3.69238 24.3779 3.69238q11.0391 5.27539 15.6387 11.0771q4.59961 5.27441 5.97949 5.27441q0.919922 0 7.81934 7.38477t9.65918 9.49414q2.75977 2.6377 3.21973 4.74707
q1.83984 5.27441 10.1191 0.527344q7.81934 -4.21973 10.5791 -8.43945q1.37988 -2.10938 -4.13965 -12.1318q-7.81934 -13.7139 -22.0781 -27.9551q-2.75977 -3.16504 -3.21973 -3.16504q-0.919922 0 -6.43945 -5.27441q-5.05957 -5.80273 -5.05957 -5.27441
q0 0.527344 -3.21973 -1.58301q-2.75977 -2.63672 -9.65918 -6.3291l-11.959 -6.33008q-5.05957 -2.63672 -15.1787 -3.69238q-9.65918 -1.05469 -15.6387 3.16504q-5.51953 3.69238 -6.89941 3.69238q-0.919922 0 -5.51953 3.69238q-4.59961 4.21973 -5.97949 4.21973
t-2.75977 1.58203q-0.919922 1.58301 -5.97949 4.74707q-5.05957 3.16504 -9.19922 7.38477t-11.499 7.91211t-7.81934 4.74707q-3.21973 5.27441 -22.5381 8.43945q-4.13965 0.527344 -6.43945 0.527344q-9.19922 0 -22.998 -10.0215q-4.59961 -3.69238 -5.51953 -3.69238
q-2.2998 0 -15.1787 -13.7139l-1.37988 -1.58301q-0.459961 -1.58203 -1.37988 -0.527344q-1.37988 1.05566 -11.499 -13.1865q-2.2998 -3.69238 -3.21973 -5.80176q-1.83984 -4.21973 -5.97949 -4.21973q-4.13965 -0.527344 -5.97949 3.16406
q-1.37988 3.69238 -4.13965 4.74805q-4.13965 1.05469 -5.05957 7.91211q-0.459961 2.10938 0 3.16406q1.37988 1.58301 1.37988 3.16504q0 3.16504 7.35938 10.0215q2.2998 1.58301 2.75977 1.58301q0.919922 0 0.919922 1.05469q0 2.6377 14.2588 17.4062
q2.75977 3.16504 3.21973 3.16504q1.37988 0 7.35938 6.85645q5.97949 6.85742 9.65918 10.0225q12.8789 11.0771 29.4375 16.8789zM193.904 605.278q6.52734 6.05469 19.582 5.18945q2.79785 0 11.1904 -0.864258q32.6367 -3.46094 35.4346 -10.3809
q0.932617 -2.59473 0.932617 -8.64941q0 -16.4346 6.52734 -47.5742l4.66211 -22.4902q0 -3.45996 2.79785 -16.4346q0.932617 -6.91992 13.9873 -84.7695q5.59473 -31.1387 5.59473 -30.2744l12.123 -53.6289q3.72949 -19.8955 6.52734 -28.5449
q22.3799 -75.2539 34.502 -135.804l10.2578 -39.7891q0.932617 -4.3252 10.2568 -36.3301q9.3252 -30.2744 10.2578 -32.8691q6.52734 -15.5703 -6.52734 -24.2197l-3.73047 -1.73047q-14.9199 -6.91992 -30.7725 -1.72949q-8.3916 9.51465 -9.32422 14.7051
q0 31.1387 -23.3125 131.479q-2.79785 9.51465 -4.66211 16.4346q-4.66309 16.4346 -6.52832 28.5439q-8.3916 44.1152 -16.7842 45.8447l-13.9883 0.865234h-0.931641q-58.748 5.19043 -90.4521 5.19043q-28.9072 0 -31.7051 -4.3252q-1.86523 -2.59473 -5.59473 -19.0303
q-1.86523 -6.91992 -12.123 -48.4395q-6.52734 -26.8145 -8.39258 -38.9238q-1.86426 -14.7051 -2.79688 -15.5703l-15.8525 -93.4189q0 -10.3799 -4.66211 -14.7051q-7.45996 -8.64941 -35.4355 1.73047q-13.9873 5.18945 -13.0547 9.51465l11.1904 34.5996
q0.931641 12.1094 31.7041 115.908q0.932617 2.5957 5.5957 19.8955q19.582 76.9834 27.042 98.6084q5.59473 21.625 9.3252 42.3848q6.52734 29.4102 8.39258 38.9248q14.9199 53.6289 17.7168 64.874q2.79785 15.5703 11.1904 41.5195q12.1221 41.5195 21.4473 80.4443
q1.86523 7.78418 8.39258 13.8398zM226.541 522.239q-4.66211 28.5439 -8.39258 28.5439q-2.79688 0 -2.79688 -0.864258q0 -5.19043 -7.45996 -27.6797l-12.1221 -44.1143q-5.5957 -22.4902 -13.0557 -43.25q-29.8398 -100.339 -29.8398 -111.584
q0 -0.865234 4.66309 -0.865234q4.66211 0 17.7168 -1.72949l28.9072 -2.59473q4.66309 -0.865234 35.4355 -5.19043q15.8525 -2.59473 26.1094 -0.864258l6.52734 1.72949l-3.72949 19.0303q-0.932617 6.91992 -9.3252 39.7891q-5.59473 22.4902 -7.45996 32.8691
q-3.73047 28.5449 -15.8525 78.7148q-0.932617 1.72949 -9.3252 38.0596z" />
    <glyph glyph-name="Adieresis" unicode="&#xc4;" horiz-adv-x="454" 
d="M286.15 659.044q-2.31348 12.6826 4.86133 33.623q2.98242 8.4873 27.3652 7.05762q14.0977 -0.495117 23.6953 -5.9873q11.7129 -7.28418 14.2432 -13.1006l3.03613 -6.98047q3.48926 -9.85938 -3.55957 -26.7949q-2.31348 -4.50195 -4.0127 -6.73242
q-7.32031 -8.33496 -24.6719 -7.72559q-10.3027 0.361328 -21.4902 7.05566q-17.0811 9.19141 -19.4668 19.585zM129.48 665.691q-1.82617 10.9473 5.47656 18.709q11.7842 12.1875 21.1465 16.4414q8.73047 1.41113 23.1357 -6.54102q2.13281 -1.21973 3.18066 -2.40234
q1.57227 -1.77344 5.11523 -9.91699q7.55566 -18.5938 -1.01172 -32.04q-7.87988 -8.8877 -16.0137 -8.60156q-18.4727 -0.49707 -20.0264 1.84863q-0.506836 1.16309 -5.82031 4.78613q-11.1699 7.26562 -15.1826 17.7168zM193.904 605.278q6.52734 6.05469 19.582 5.18945
q2.79785 0 11.1904 -0.864258q32.6367 -3.46094 35.4346 -10.3809q0.932617 -2.59473 0.932617 -8.64941q0 -16.4346 6.52734 -47.5742l4.66211 -22.4902q0 -3.45996 2.79785 -16.4346q0.932617 -6.91992 13.9873 -84.7695q5.59473 -31.1387 5.59473 -30.2744
l12.123 -53.6289q3.72949 -19.8955 6.52734 -28.5449q22.3799 -75.2539 34.502 -135.804l10.2578 -39.7891q0.932617 -4.3252 10.2568 -36.3301q9.3252 -30.2744 10.2578 -32.8691q6.52734 -15.5703 -6.52734 -24.2197l-3.73047 -1.73047
q-14.9199 -6.91992 -30.7725 -1.72949q-8.3916 9.51465 -9.32422 14.7051q0 31.1387 -23.3125 131.479q-2.79785 9.51465 -4.66211 16.4346q-4.66309 16.4346 -6.52832 28.5439q-8.3916 44.1152 -16.7842 45.8447l-13.9883 0.865234h-0.931641
q-58.748 5.19043 -90.4521 5.19043q-28.9072 0 -31.7051 -4.3252q-1.86523 -2.59473 -5.59473 -19.0303q-1.86523 -6.91992 -12.123 -48.4395q-6.52734 -26.8145 -8.39258 -38.9238q-1.86426 -14.7051 -2.79688 -15.5703l-15.8525 -93.4189q0 -10.3799 -4.66211 -14.7051
q-7.45996 -8.64941 -35.4355 1.73047q-13.9873 5.18945 -13.0547 9.51465l11.1904 34.5996q0.931641 12.1094 31.7041 115.908q0.932617 2.5957 5.5957 19.8955q19.582 76.9834 27.042 98.6084q5.59473 21.625 9.3252 42.3848q6.52734 29.4102 8.39258 38.9248
q14.9199 53.6289 17.7168 64.874q2.79785 15.5703 11.1904 41.5195q12.1221 41.5195 21.4473 80.4443q1.86523 7.78418 8.39258 13.8398zM226.541 522.239q-4.66211 28.5439 -8.39258 28.5439q-2.79688 0 -2.79688 -0.864258q0 -5.19043 -7.45996 -27.6797
l-12.1221 -44.1143q-5.5957 -22.4902 -13.0557 -43.25q-29.8398 -100.339 -29.8398 -111.584q0 -0.865234 4.66309 -0.865234q4.66211 0 17.7168 -1.72949l28.9072 -2.59473q4.66309 -0.865234 35.4355 -5.19043q15.8525 -2.59473 26.1094 -0.864258l6.52734 1.72949
l-3.72949 19.0303q-0.932617 6.91992 -9.3252 39.7891q-5.59473 22.4902 -7.45996 32.8691q-3.73047 28.5449 -15.8525 78.7148q-0.932617 1.72949 -9.3252 38.0596z" />
    <glyph glyph-name="Aring" unicode="&#xc5;" horiz-adv-x="424" 
d="M250.019 776.058q22.7227 -2.08496 27.7715 -5.55957q12.624 -9.03418 16.1582 -19.8057q4.54492 -14.5938 4.04004 -40.3066v-3.47461q-3.53516 -29.1885 -5.0498 -34.0527q-4.54395 -12.5088 -7.57422 -16.3311q-13.6328 -20.1533 -23.7324 -26.0605
q-6.56348 -3.82227 -14.1377 -6.25488l-10.6045 -2.43262l-12.623 -0.34668q-13.6338 0.694336 -21.208 3.12695q-15.6533 5.21191 -28.7812 15.9834q-8.58496 7.29688 -12.624 28.1455v3.12793q-0.504883 10.0762 2.52441 28.4922q3.03027 18.0684 10.6045 29.1875
q1.51465 2.78027 4.03906 6.9502q12.624 22.2383 27.2666 31.2725q11.6143 7.29688 23.7324 8.68652q9.08984 1.04199 20.1982 -0.347656zM250.019 759.031q-6.56445 1.73828 -14.6436 -1.38965q-12.623 -4.5166 -20.7031 -12.8564q-8.07812 -7.64453 -7.57324 -7.29688
q-5.55469 -6.25488 -12.624 -17.7207q-3.53418 -6.60254 -3.53418 -17.7217q0 -36.832 2.01953 -43.4336q2.01953 -5.90723 5.55371 -9.72949q11.6143 -12.8564 28.2773 -12.5088q21.208 0.694336 38.376 23.9756q0.504883 0.694336 1.00977 1.7373
q6.05957 8.68652 7.57422 15.9834q1.51465 10.0771 1.00977 30.2305q0 9.38184 -5.55469 22.9326l-2.52441 10.4248q-1.00977 5.21191 -9.08887 13.2041q-0.504883 0.694336 -1.00977 1.38965q-2.52539 1.7373 -6.56445 2.7793zM193.904 605.278
q6.52734 6.05469 19.582 5.18945q2.79785 0 11.1904 -0.864258q32.6367 -3.46094 35.4346 -10.3809q0.932617 -2.59473 0.932617 -8.64941q0 -16.4346 6.52734 -47.5742l4.66211 -22.4902q0 -3.45996 2.79785 -16.4346q0.932617 -6.91992 13.9873 -84.7695
q5.59473 -31.1387 5.59473 -30.2744l12.123 -53.6289q3.72949 -19.8955 6.52734 -28.5449q22.3799 -75.2539 34.502 -135.804l10.2578 -39.7891q0.932617 -4.3252 10.2568 -36.3301q9.3252 -30.2744 10.2578 -32.8691q6.52734 -15.5703 -6.52734 -24.2197l-3.73047 -1.73047
q-14.9199 -6.91992 -30.7725 -1.72949q-8.3916 9.51465 -9.32422 14.7051q0 31.1387 -23.3125 131.479q-2.79785 9.51465 -4.66211 16.4346q-4.66309 16.4346 -6.52832 28.5439q-8.3916 44.1152 -16.7842 45.8447l-13.9883 0.865234h-0.931641
q-58.748 5.19043 -90.4521 5.19043q-28.9072 0 -31.7051 -4.3252q-1.86523 -2.59473 -5.59473 -19.0303q-1.86523 -6.91992 -12.123 -48.4395q-6.52734 -26.8145 -8.39258 -38.9238q-1.86426 -14.7051 -2.79688 -15.5703l-15.8525 -93.4189q0 -10.3799 -4.66211 -14.7051
q-7.45996 -8.64941 -35.4355 1.73047q-13.9873 5.18945 -13.0547 9.51465l11.1904 34.5996q0.931641 12.1094 31.7041 115.908q0.932617 2.5957 5.5957 19.8955q19.582 76.9834 27.042 98.6084q5.59473 21.625 9.3252 42.3848q6.52734 29.4102 8.39258 38.9248
q14.9199 53.6289 17.7168 64.874q2.79785 15.5703 11.1904 41.5195q12.1221 41.5195 21.4473 80.4443q1.86523 7.78418 8.39258 13.8398zM226.541 522.239q-4.66211 28.5439 -8.39258 28.5439q-2.79688 0 -2.79688 -0.864258q0 -5.19043 -7.45996 -27.6797
l-12.1221 -44.1143q-5.5957 -22.4902 -13.0557 -43.25q-29.8398 -100.339 -29.8398 -111.584q0 -0.865234 4.66309 -0.865234q4.66211 0 17.7168 -1.72949l28.9072 -2.59473q4.66309 -0.865234 35.4355 -5.19043q15.8525 -2.59473 26.1094 -0.864258l6.52734 1.72949
l-3.72949 19.0303q-0.932617 6.91992 -9.3252 39.7891q-5.59473 22.4902 -7.45996 32.8691q-3.73047 28.5449 -15.8525 78.7148q-0.932617 1.72949 -9.3252 38.0596z" />
    <glyph glyph-name="AE" unicode="&#xc6;" horiz-adv-x="778" 
d="M638 717l31 1h2q35 0 36 -1l1 -35q1 -14 -2 -16q-4 -3 -74 -3q-67 0 -99 -2q-110 -6 -126 -6q-3 1 -3 -3q-1 -5 0 -45l1 -85v-1q0 -43 3 -46q3 -2 82 0l63 2q4 3 12 0t8 -46q-1 -1 -1 -7h-73q-90 1 -90 -7l2 -28q3 -36 5 -55q3 -26 5 -85q2 -57 5 -79q3 -19 3 -47l-1 -22
h19q24 0 48 3q23 3 66 5l42 2l64 8q11 3 28 7l22 4l7 -9q7 -7 7 -15l1 -13v-1q2 -7 -3 -14q-4 -7 -33 -8q-4 -1 -9 -1l-63 -5q-10 -2 -94 -6q-61 -3 -97 -8q-25 -5 -45 -7q-19 -1 -21 8v15q0 30 -8 123q-1 9 -3 86l-6 250q0 7 -3 94l-6 86q3 4 19 2l62 3q213 4 216 7z
M194 709q7 7 21 6q3 0 12 -1q35 -4 38 -12q1 -3 1 -10q0 -19 7 -55l5 -26q0 -4 3 -19q1 -8 15 -98q6 -36 6 -35l13 -62q4 -23 7 -33q24 -87 37 -157l11 -46q1 -5 11 -42q10 -35 11 -38q7 -18 -7 -28l-4 -2q-16 -8 -33 -2q-9 11 -10 17q0 36 -25 152q-3 11 -5 19q-5 19 -7 33
q-9 51 -18 53l-15 1h-1q-63 6 -97 6q-31 0 -34 -5q-2 -3 -6 -22q-2 -8 -13 -56q-7 -31 -9 -45q-2 -17 -3 -18l-17 -108q0 -12 -5 -17q-8 -10 -38 2q-15 6 -14 11l12 40q1 14 34 134q1 3 6 23q21 89 29 114q6 25 10 49q7 34 9 45q16 62 19 75q3 18 12 48q13 48 23 93
q2 9 9 16zM229 613q-5 33 -9 33q-3 0 -3 -1q0 -6 -8 -32l-13 -51q-6 -26 -14 -50q-32 -116 -32 -129q0 -1 5 -1t19 -2l31 -3q5 -1 38 -6q17 -3 28 -1l7 2l-4 22q-1 8 -10 46q-6 26 -8 38q-4 33 -17 91q-1 2 -10 44z" />
    <glyph glyph-name="Ccedilla" unicode="&#xc7;" horiz-adv-x="470" 
d="M225 92q3 6 7 4q12 -6 46 -6q22 1 27 -4q8 -7 -2 -21q-8 -11 -15 -42q-5 -37 -30 -83q-6 -11 -10 -13q-8 -4 -44 -2q-7 1 -7 2l-2 4q0 3 14 61q7 31 12 83q1 12 4 17zM238 733q40 5 68 -7q26 -10 31 -12q27 -11 38 -27q2 -3 2 -5q0 -5 -9 -16q-13 -18 -14 -21
q-10 -18 -31 2q-6 6 -18 14q-34 16 -49 16q-3 0 -11 -1q-34 -1 -63 -27l-6 -6q-17 -16 -36 -56q-38 -78 -43 -145q-5 -66 13 -162q4 -19 8 -31q15 -45 46 -80q21 -27 59 -47q8 -4 13 -5q14 -3 21 -7q25 -8 56 7q3 1 6 3q35 21 57 49q4 4 5 7q4 9 7 9l7 1h1q5 1 35 -26
q13 -13 11 -18q-1 -2 -3 -4l-14 -14q-13 -21 -28 -27q-3 -1 -4 -3q-5 -5 -33 -17q-31 -13 -36 -16q-9 -6 -69 -3q-6 1 -9 1q-23 4 -66 24q-10 0 -55 41q-17 16 -17 19l-33 46q-14 24 -20 50l-21 96q-3 13 -3 65q0 75 20 128q20 58 15 46l17 30q14 26 17 29l13 20q8 16 21 24
l21 18q19 18 67 34q10 3 16 4z" />
    <glyph glyph-name="Egrave" unicode="&#xc8;" horiz-adv-x="424" 
d="M289.312 579.447l25.6582 0.81543h1.65625q28.9688 0 29.7969 -0.81543l0.827148 -28.5186q0.828125 -11.4072 -1.65527 -13.0371q-3.31055 -2.44434 -61.249 -2.44434q-55.4561 0 -81.9424 -1.62891q-91.0469 -4.88965 -104.29 -4.88965
q-2.4834 0.81543 -2.4834 -2.44434q-0.827148 -4.07422 0 -36.667l0.828125 -69.2598v-0.814453q0 -35.0371 2.4834 -37.4814q2.48242 -1.62988 67.8711 0l52.1445 1.62891q3.31152 2.44531 9.93262 0q6.62109 -2.44434 6.62109 -37.4814
q-0.827148 -0.814453 -0.827148 -5.70312h-60.4219q-74.4932 0.814453 -74.4932 -5.7041l1.65527 -22.8145q2.4834 -29.334 4.13867 -44.8154q2.4834 -21.1855 4.13867 -69.2598q1.65527 -46.4443 4.13867 -64.3711q2.4834 -15.4814 2.4834 -38.2959l-0.828125 -17.9258
h15.7266q19.8643 0 39.7295 2.44434q19.0371 2.44434 54.6279 4.07324l34.7627 1.62988l52.9727 6.51855q9.10547 2.44434 23.1758 5.7041l18.21 3.25879l5.79297 -7.33301q5.79395 -5.7041 5.79395 -12.2227l0.828125 -10.5928v-0.814453
q1.65527 -5.70312 -2.4834 -11.4072q-3.31055 -5.7041 -27.3135 -6.51855q-3.31152 -0.814453 -7.44922 -0.814453l-52.1455 -4.07422q-8.27637 -1.62988 -77.8037 -4.88965q-50.4893 -2.44434 -80.2861 -6.51855q-20.6924 -4.07422 -37.2471 -5.70312
q-15.7256 -0.81543 -17.3809 6.51855v12.2217q0 24.4453 -6.62207 100.223q-0.827148 7.33398 -2.4834 70.0752l-4.96582 203.704q0 5.7041 -2.4834 76.5938l-4.96582 70.0742q2.4834 3.25977 15.7266 1.62988l51.3174 2.44434q176.299 3.25879 178.782 5.70312z
M248.525 673.769q17.2461 -12.3301 15.8838 -17.2852q-0.998047 -2.79102 -7.35938 -10.2998q-6.36035 -7.50879 -8.62402 -11.5557q-3.19629 -4.37109 -6.92969 -5.66992q-4.03223 -0.995117 -17.8789 11.7021q-67.5977 66.9102 -89.4775 78.8496
q-51.3301 28.9834 -56.2734 40.2988q1.66211 4.65137 18.7822 22.8291q2.23145 2.81348 3.16406 3.1377q9.06445 4.7832 31.415 -12.6953l33.5264 -26.2168q13.3096 -9.62598 45.2051 -39.2627q26.791 -24.4873 38.5664 -33.832z" />
    <glyph glyph-name="Eacute" unicode="&#xc9;" horiz-adv-x="424" 
d="M292.312 582.447l25.6582 0.81543h1.65625q28.9688 0 29.7969 -0.81543l0.827148 -28.5186q0.828125 -11.4072 -1.65527 -13.0371q-3.31055 -2.44434 -61.249 -2.44434q-55.4561 0 -81.9424 -1.62891q-91.0469 -4.88965 -104.29 -4.88965
q-2.4834 0.81543 -2.4834 -2.44434q-0.827148 -4.07422 0 -36.667l0.828125 -69.2598v-0.814453q0 -35.0371 2.4834 -37.4814q2.48242 -1.62988 67.8711 0l52.1445 1.62891q3.31152 2.44531 9.93262 0q6.62109 -2.44434 6.62109 -37.4814
q-0.827148 -0.814453 -0.827148 -5.70312h-60.4219q-74.4932 0.814453 -74.4932 -5.7041l1.65527 -22.8145q2.4834 -29.334 4.13867 -44.8154q2.4834 -21.1855 4.13867 -69.2598q1.65527 -46.4443 4.13867 -64.3711q2.4834 -15.4814 2.4834 -38.2959l-0.828125 -17.9258
h15.7266q19.8643 0 39.7295 2.44434q19.0371 2.44434 54.6279 4.07324l34.7627 1.62988l52.9727 6.51855q9.10547 2.44434 23.1758 5.7041l18.21 3.25879l5.79297 -7.33301q5.79395 -5.7041 5.79395 -12.2227l0.828125 -10.5928v-0.814453
q1.65527 -5.70312 -2.4834 -11.4072q-3.31055 -5.7041 -27.3135 -6.51855q-3.31152 -0.814453 -7.44922 -0.814453l-52.1455 -4.07422q-8.27637 -1.62988 -77.8037 -4.88965q-50.4893 -2.44434 -80.2861 -6.51855q-20.6924 -4.07422 -37.2471 -5.70312
q-15.7256 -0.81543 -17.3809 6.51855v12.2217q0 24.4453 -6.62207 100.223q-0.827148 7.33398 -2.4834 70.0752l-4.96582 203.704q0 5.7041 -2.4834 76.5938l-4.96582 70.0742q2.4834 3.25977 15.7266 1.62988l51.3174 2.44434q176.299 3.25879 178.782 5.70312z
M334.164 765.814q17.4795 11.9932 21.6699 9.01953q2.2832 -1.8916 7.16602 -10.4365q4.88281 -8.54395 7.91211 -12.0547q3.01562 -4.49805 2.96094 -8.4502q-0.441406 -4.12988 -17.1055 -12.8027q-85.9727 -40.6621 -104.668 -57.1436
q-44.7754 -38.3359 -57.0977 -39.1143q-3.80371 3.15234 -15.0371 25.4551q-1.88086 3.05762 -1.86719 4.0459q-1.39844 10.1533 22.6621 25.1846l36.0928 22.5479q13.5928 9.21973 52.3408 29.0664q32.166 16.8086 44.9707 24.6826z" />
    <glyph glyph-name="Ecircumflex" unicode="&#xca;" horiz-adv-x="424" 
d="M292.312 582.447l25.6582 0.81543h1.65625q28.9688 0 29.7969 -0.81543l0.827148 -28.5186q0.828125 -11.4072 -1.65527 -13.0371q-3.31055 -2.44434 -61.249 -2.44434q-55.4561 0 -81.9424 -1.62891q-91.0469 -4.88965 -104.29 -4.88965
q-2.4834 0.81543 -2.4834 -2.44434q-0.827148 -4.07422 0 -36.667l0.828125 -69.2598v-0.814453q0 -35.0371 2.4834 -37.4814q2.48242 -1.62988 67.8711 0l52.1445 1.62891q3.31152 2.44531 9.93262 0q6.62109 -2.44434 6.62109 -37.4814
q-0.827148 -0.814453 -0.827148 -5.70312h-60.4219q-74.4932 0.814453 -74.4932 -5.7041l1.65527 -22.8145q2.4834 -29.334 4.13867 -44.8154q2.4834 -21.1855 4.13867 -69.2598q1.65527 -46.4443 4.13867 -64.3711q2.4834 -15.4814 2.4834 -38.2959l-0.828125 -17.9258
h15.7266q19.8643 0 39.7295 2.44434q19.0371 2.44434 54.6279 4.07324l34.7627 1.62988l52.9727 6.51855q9.10547 2.44434 23.1758 5.7041l18.21 3.25879l5.79297 -7.33301q5.79395 -5.7041 5.79395 -12.2227l0.828125 -10.5928v-0.814453
q1.65527 -5.70312 -2.4834 -11.4072q-3.31055 -5.7041 -27.3135 -6.51855q-3.31152 -0.814453 -7.44922 -0.814453l-52.1455 -4.07422q-8.27637 -1.62988 -77.8037 -4.88965q-50.4893 -2.44434 -80.2861 -6.51855q-20.6924 -4.07422 -37.2471 -5.70312
q-15.7256 -0.81543 -17.3809 6.51855v12.2217q0 24.4453 -6.62207 100.223q-0.827148 7.33398 -2.4834 70.0752l-4.96582 203.704q0 5.7041 -2.4834 76.5938l-4.96582 70.0742q2.4834 3.25977 15.7266 1.62988l51.3174 2.44434q176.299 3.25879 178.782 5.70312z
M221.048 752.253q4.58008 1.78516 9.15918 0.594727q4.58008 -1.18945 6.86914 -1.18945q5.15234 0 6.87012 -8.33008q0 -5.94922 56.0996 -64.2559q33.7744 -35.1035 34.9189 -38.6738q0 -4.16406 -8.01367 -8.3291q-9.15918 -6.54492 -9.73145 -7.73535
q-2.29004 -2.37891 -8.01465 -1.78418t-9.15918 7.13965q-4.00684 7.73438 -9.15918 12.4941l-20.0361 24.9883q-13.166 17.8496 -16.6006 21.4199q-1.14453 1.18945 -8.01465 10.709q-12.5938 16.0645 -16.6006 16.0645q-2.29004 0.594727 -24.6152 -24.9893
q-4.00781 -4.75977 -4.58008 -5.94922q0 -1.19043 -7.44141 -8.9248q-6.29688 -6.54492 -13.166 -17.2539q-10.3047 -16.6592 -17.7461 -25.584q-2.29004 -2.97461 -7.44238 -0.594727l-18.3184 14.2793q-0.572266 1.18945 -1.14453 1.78418l-3.43457 5.35547
l8.58691 13.0889q10.876 17.2549 16.6006 24.3936l13.7393 19.0391l14.3105 18.4443q9.73145 10.1143 12.0215 16.0645q2.8623 5.9502 11.4492 5.9502q11.4492 1.18945 12.5938 1.78418z" />
    <glyph glyph-name="Edieresis" unicode="&#xcb;" horiz-adv-x="454" 
d="M319.312 585.447l25.6582 0.81543h1.65625q28.9688 0 29.7969 -0.81543l0.827148 -28.5186q0.828125 -11.4072 -1.65527 -13.0371q-3.31055 -2.44434 -61.249 -2.44434q-55.4561 0 -81.9424 -1.62891q-91.0469 -4.88965 -104.29 -4.88965
q-2.4834 0.81543 -2.4834 -2.44434q-0.827148 -4.07422 0 -36.667l0.828125 -69.2598v-0.814453q0 -35.0371 2.4834 -37.4814q2.48242 -1.62988 67.8711 0l52.1445 1.62891q3.31152 2.44531 9.93262 0q6.62109 -2.44434 6.62109 -37.4814
q-0.827148 -0.814453 -0.827148 -5.70312h-60.4219q-74.4932 0.814453 -74.4932 -5.7041l1.65527 -22.8145q2.4834 -29.334 4.13867 -44.8154q2.4834 -21.1855 4.13867 -69.2598q1.65527 -46.4443 4.13867 -64.3711q2.4834 -15.4814 2.4834 -38.2959l-0.828125 -17.9258
h15.7266q19.8643 0 39.7295 2.44434q19.0371 2.44434 54.6279 4.07324l34.7627 1.62988l52.9727 6.51855q9.10547 2.44434 23.1758 5.7041l18.21 3.25879l5.79297 -7.33301q5.79395 -5.7041 5.79395 -12.2227l0.828125 -10.5928v-0.814453
q1.65527 -5.70312 -2.4834 -11.4072q-3.31055 -5.7041 -27.3135 -6.51855q-3.31152 -0.814453 -7.44922 -0.814453l-52.1455 -4.07422q-8.27637 -1.62988 -77.8037 -4.88965q-50.4893 -2.44434 -80.2861 -6.51855q-20.6924 -4.07422 -37.2471 -5.70312
q-15.7256 -0.81543 -17.3809 6.51855v12.2217q0 24.4453 -6.62207 100.223q-0.827148 7.33398 -2.4834 70.0752l-4.96582 203.704q0 5.7041 -2.4834 76.5938l-4.96582 70.0742q2.4834 3.25977 15.7266 1.62988l51.3174 2.44434q176.299 3.25879 178.782 5.70312z
M286.15 659.044q-2.31348 12.6826 4.86133 33.623q2.98242 8.4873 27.3652 7.05762q14.0977 -0.495117 23.6953 -5.9873q11.7129 -7.28418 14.2432 -13.1006l3.03613 -6.98047q3.48926 -9.85938 -3.55957 -26.7949q-2.31348 -4.50195 -4.0127 -6.73242
q-7.32031 -8.33496 -24.6719 -7.72559q-10.3027 0.361328 -21.4902 7.05566q-17.0811 9.19141 -19.4668 19.585zM129.48 665.691q-1.82617 10.9473 5.47656 18.709q11.7842 12.1875 21.1465 16.4414q8.73047 1.41113 23.1357 -6.54102q2.13281 -1.21973 3.18066 -2.40234
q1.57227 -1.77344 5.11523 -9.91699q7.55566 -18.5938 -1.01172 -32.04q-7.87988 -8.8877 -16.0137 -8.60156q-18.4727 -0.49707 -20.0264 1.84863q-0.506836 1.16309 -5.82031 4.78613q-11.1699 7.26562 -15.1826 17.7168z" />
    <glyph glyph-name="Igrave" unicode="&#xcc;" horiz-adv-x="424" 
d="M291.381 568.799q1.53516 -2.26953 3.07031 -12.8623q1.53613 -13.6182 1.53613 -15.1318v-15.8887q-2.30371 -3.78223 -28.4053 -0.755859q-27.6367 3.02637 -46.0615 -2.26953q-0.768555 -0.756836 -2.30371 -34.0469l-2.30273 -47.666
q-1.53516 -18.9141 -3.07129 -83.9814q-1.53516 -79.4424 -3.07031 -90.791q-2.30371 -36.3164 -2.30371 -80.9551l-0.767578 -83.9814l-0.767578 -24.2109l28.4053 -1.51367q27.6367 -0.755859 29.9404 -6.05273q3.07031 -12.8613 -3.07129 -38.5859
q-0.767578 -1.51367 -19.1924 0q-13.8184 0.756836 -29.1729 1.51367q-62.1836 2.26953 -60.6475 2.26953q-29.9404 1.5127 -33.7793 2.26953l-31.4756 -1.51367q-2.30371 0.756836 -3.07129 1.51367t-0.767578 13.6191l-0.767578 26.4805q2.30273 2.26953 50.668 0
q23.7988 -1.51367 27.6377 0q3.83887 0.755859 3.83887 59.7705v43.8818q0 94.5742 1.53516 186.879q2.30273 68.8496 2.30273 119.541q-0.767578 0.756836 0 36.3164h-38.3848q-38.3848 0 -39.9209 1.51367q-4.60547 4.53906 1.53613 34.0469
q1.53516 7.56543 3.07031 9.07812q3.83887 5.29688 34.5469 1.51367q4.60547 -0.756836 7.67676 -1.51367q15.3545 -3.78223 103.64 -1.5127q8.44434 0.756836 13.8184 0.756836q33.7793 3.7832 36.082 2.26953zM212.525 643.769q17.2461 -12.3301 15.8838 -17.2852
q-0.998047 -2.79102 -7.35938 -10.2998q-6.36035 -7.50879 -8.62402 -11.5557q-3.19629 -4.37109 -6.92969 -5.66992q-4.03223 -0.995117 -17.8789 11.7021q-67.5977 66.9102 -89.4775 78.8496q-51.3301 28.9834 -56.2734 40.2988q1.66211 4.65137 18.7822 22.8291
q2.23145 2.81348 3.16406 3.1377q9.06445 4.7832 31.415 -12.6953l33.5264 -26.2168q13.3096 -9.62598 45.2051 -39.2627q26.791 -24.4873 38.5664 -33.832z" />
    <glyph glyph-name="Iacute" unicode="&#xcd;" horiz-adv-x="424" 
d="M291.381 568.799q1.53516 -2.26953 3.07031 -12.8623q1.53613 -13.6182 1.53613 -15.1318v-15.8887q-2.30371 -3.78223 -28.4053 -0.755859q-27.6367 3.02637 -46.0615 -2.26953q-0.768555 -0.756836 -2.30371 -34.0469l-2.30273 -47.666
q-1.53516 -18.9141 -3.07129 -83.9814q-1.53516 -79.4424 -3.07031 -90.791q-2.30371 -36.3164 -2.30371 -80.9551l-0.767578 -83.9814l-0.767578 -24.2109l28.4053 -1.51367q27.6367 -0.755859 29.9404 -6.05273q3.07031 -12.8613 -3.07129 -38.5859
q-0.767578 -1.51367 -19.1924 0q-13.8184 0.756836 -29.1729 1.51367q-62.1836 2.26953 -60.6475 2.26953q-29.9404 1.5127 -33.7793 2.26953l-31.4756 -1.51367q-2.30371 0.756836 -3.07129 1.51367t-0.767578 13.6191l-0.767578 26.4805q2.30273 2.26953 50.668 0
q23.7988 -1.51367 27.6377 0q3.83887 0.755859 3.83887 59.7705v43.8818q0 94.5742 1.53516 186.879q2.30273 68.8496 2.30273 119.541q-0.767578 0.756836 0 36.3164h-38.3848q-38.3848 0 -39.9209 1.51367q-4.60547 4.53906 1.53613 34.0469
q1.53516 7.56543 3.07031 9.07812q3.83887 5.29688 34.5469 1.51367q4.60547 -0.756836 7.67676 -1.51367q15.3545 -3.78223 103.64 -1.5127q8.44434 0.756836 13.8184 0.756836q33.7793 3.7832 36.082 2.26953zM334.164 765.814q17.4795 11.9932 21.6699 9.01953
q2.2832 -1.8916 7.16602 -10.4365q4.88281 -8.54395 7.91211 -12.0547q3.01562 -4.49805 2.96094 -8.4502q-0.441406 -4.12988 -17.1055 -12.8027q-85.9727 -40.6621 -104.668 -57.1436q-44.7754 -38.3359 -57.0977 -39.1143q-3.80371 3.15234 -15.0371 25.4551
q-1.88086 3.05762 -1.86719 4.0459q-1.39844 10.1533 22.6621 25.1846l36.0928 22.5479q13.5928 9.21973 52.3408 29.0664q32.166 16.8086 44.9707 24.6826z" />
    <glyph glyph-name="Icircumflex" unicode="&#xce;" horiz-adv-x="301" 
d="M240.381 556.799q1.53516 -2.26953 3.07031 -12.8623q1.53613 -13.6182 1.53613 -15.1318v-15.8887q-2.30371 -3.78223 -28.4053 -0.755859q-27.6367 3.02637 -46.0615 -2.26953q-0.768555 -0.756836 -2.30371 -34.0469l-2.30273 -47.666
q-1.53516 -18.9141 -3.07129 -83.9814q-1.53516 -79.4424 -3.07031 -90.791q-2.30371 -36.3164 -2.30371 -80.9551l-0.767578 -83.9814l-0.767578 -24.2109l28.4053 -1.51367q27.6367 -0.755859 29.9404 -6.05273q3.07031 -12.8613 -3.07129 -38.5859
q-0.767578 -1.51367 -19.1924 0q-13.8184 0.756836 -29.1729 1.51367q-62.1836 2.26953 -60.6475 2.26953q-29.9404 1.5127 -33.7793 2.26953l-31.4756 -1.51367q-2.30371 0.756836 -3.07129 1.51367t-0.767578 13.6191l-0.767578 26.4805q2.30273 2.26953 50.668 0
q23.7988 -1.51367 27.6377 0q3.83887 0.755859 3.83887 59.7705v43.8818q0 94.5742 1.53516 186.879q2.30273 68.8496 2.30273 119.541q-0.767578 0.756836 0 36.3164h-38.3848q-38.3848 0 -39.9209 1.51367q-4.60547 4.53906 1.53613 34.0469
q1.53516 7.56543 3.07031 9.07812q3.83887 5.29688 34.5469 1.51367q4.60547 -0.756836 7.67676 -1.51367q15.3545 -3.78223 103.64 -1.5127q8.44434 0.756836 13.8184 0.756836q33.7793 3.7832 36.082 2.26953zM137.048 728.253q4.58008 1.78516 9.15918 0.594727
q4.58008 -1.18945 6.86914 -1.18945q5.15234 0 6.87012 -8.33008q0 -5.94922 56.0996 -64.2559q33.7744 -35.1035 34.9189 -38.6738q0 -4.16406 -8.01367 -8.3291q-9.15918 -6.54492 -9.73145 -7.73535q-2.29004 -2.37891 -8.01465 -1.78418t-9.15918 7.13965
q-4.00684 7.73438 -9.15918 12.4941l-20.0361 24.9883q-13.166 17.8496 -16.6006 21.4199q-1.14453 1.18945 -8.01465 10.709q-12.5938 16.0645 -16.6006 16.0645q-2.29004 0.594727 -24.6152 -24.9893q-4.00781 -4.75977 -4.58008 -5.94922q0 -1.19043 -7.44141 -8.9248
q-6.29688 -6.54492 -13.166 -17.2539q-10.3047 -16.6592 -17.7461 -25.584q-2.29004 -2.97461 -7.44238 -0.594727l-18.3184 14.2793q-0.572266 1.18945 -1.14453 1.78418l-3.43457 5.35547l8.58691 13.0889q10.876 17.2549 16.6006 24.3936l13.7393 19.0391
l14.3105 18.4443q9.73145 10.1143 12.0215 16.0645q2.8623 5.9502 11.4492 5.9502q11.4492 1.18945 12.5938 1.78418z" />
    <glyph glyph-name="Idieresis" unicode="&#xcf;" horiz-adv-x="328" 
d="M240.381 556.799q1.53516 -2.26953 3.07031 -12.8623q1.53613 -13.6182 1.53613 -15.1318v-15.8887q-2.30371 -3.78223 -28.4053 -0.755859q-27.6367 3.02637 -46.0615 -2.26953q-0.768555 -0.756836 -2.30371 -34.0469l-2.30273 -47.666
q-1.53516 -18.9141 -3.07129 -83.9814q-1.53516 -79.4424 -3.07031 -90.791q-2.30371 -36.3164 -2.30371 -80.9551l-0.767578 -83.9814l-0.767578 -24.2109l28.4053 -1.51367q27.6367 -0.755859 29.9404 -6.05273q3.07031 -12.8613 -3.07129 -38.5859
q-0.767578 -1.51367 -19.1924 0q-13.8184 0.756836 -29.1729 1.51367q-62.1836 2.26953 -60.6475 2.26953q-29.9404 1.5127 -33.7793 2.26953l-31.4756 -1.51367q-2.30371 0.756836 -3.07129 1.51367t-0.767578 13.6191l-0.767578 26.4805q2.30273 2.26953 50.668 0
q23.7988 -1.51367 27.6377 0q3.83887 0.755859 3.83887 59.7705v43.8818q0 94.5742 1.53516 186.879q2.30273 68.8496 2.30273 119.541q-0.767578 0.756836 0 36.3164h-38.3848q-38.3848 0 -39.9209 1.51367q-4.60547 4.53906 1.53613 34.0469
q1.53516 7.56543 3.07031 9.07812q3.83887 5.29688 34.5469 1.51367q4.60547 -0.756836 7.67676 -1.51367q15.3545 -3.78223 103.64 -1.5127q8.44434 0.756836 13.8184 0.756836q33.7793 3.7832 36.082 2.26953zM202.15 638.044q-2.31348 12.6826 4.86133 33.623
q2.98242 8.4873 27.3652 7.05762q14.0977 -0.495117 23.6953 -5.9873q11.7129 -7.28418 14.2432 -13.1006l3.03613 -6.98047q3.48926 -9.85938 -3.55957 -26.7949q-2.31348 -4.50195 -4.0127 -6.73242q-7.32031 -8.33496 -24.6719 -7.72559
q-10.3027 0.361328 -21.4902 7.05566q-17.0811 9.19141 -19.4668 19.585zM45.4805 644.691q-1.82617 10.9473 5.47656 18.709q11.7842 12.1875 21.1465 16.4414q8.73047 1.41113 23.1357 -6.54102q2.13281 -1.21973 3.18066 -2.40234q1.57227 -1.77344 5.11523 -9.91699
q7.55566 -18.5938 -1.01172 -32.04q-7.87988 -8.8877 -16.0137 -8.60156q-18.4727 -0.49707 -20.0264 1.84863q-0.506836 1.16309 -5.82031 4.78613q-11.1699 7.26562 -15.1826 17.7168z" />
    <glyph glyph-name="Eth" unicode="&#xd0;" horiz-adv-x="618" 
d="M366 464q5 2 11 1q7 -1 25 -2t22 -1q10 0 14 -23q0 -4 1 -7q0 -13 3 -27q4 -17 -5 -19q-5 -2 -20 -1q-20 2 -35 2q-28 2 -35 1l-249 -2h-6q-5 1 -24 0l-31 -3q-3 1 -4 4l-10 51q0 7 13 15q6 2 79 2q73 1 77 3q10 3 137 4q31 0 37 2zM257 739q34 0 101 -13q4 0 6 -1
q39 -11 41 -14t13 -9q30 -16 47 -39q6 -9 16 -15q14 -11 63 -97q5 -9 6 -12q22 -45 31 -111q1 -3 7 -41q13 -79 -25 -151l-29 -54q-1 -1 -19 -21q-17 -20 -35 -35q-4 -3 -35 -27q-16 -13 -35 -20q-5 -3 -13 -7q-53 -21 -73 -24q-26 -5 -32 -9q-14 -6 -56 -3q-11 1 -13 3
q-6 4 -8 144q-1 47 -2 138q-3 292 -7 334q-4 36 -4 51q-1 18 7 23zM294 682q-22 2 -25 3q-5 0 -7 -4l1 -64l3 -107q9 -324 9 -343q0 -64 3 -67q1 -3 21 1q22 4 28 4q18 0 65 24q8 4 12 7q56 42 79 82l18 30q36 59 27 132q-5 30 -5 40q-5 48 -28 93l-41 63l-15 19
q-4 8 -27 30q-43 44 -113 56q-2 1 -5 1z" />
    <glyph glyph-name="Ntilde" unicode="&#xd1;" horiz-adv-x="378" 
d="M130.393 709.952q14.2588 4.21973 32.1973 1.05469q1.37988 0 2.2998 -0.527344q7.81934 -2.11035 15.6387 -10.5498q1.83984 -2.10938 3.21973 -2.10938q0.919922 0 0 -1.05469q-0.459961 -1.05469 2.75977 -3.69238l5.97949 -5.80176q3.21973 -2.6377 6.89941 -5.27539
q3.67969 -2.63672 7.35938 -5.80176q10.1191 -8.9668 23.458 -14.7695q9.19922 -3.69238 24.3779 3.69238q11.0391 5.27539 15.6387 11.0771q4.59961 5.27441 5.97949 5.27441q0.919922 0 7.81934 7.38477t9.65918 9.49414q2.75977 2.6377 3.21973 4.74707
q1.83984 5.27441 10.1191 0.527344q7.81934 -4.21973 10.5791 -8.43945q1.37988 -2.10938 -4.13965 -12.1318q-7.81934 -13.7139 -22.0781 -27.9551q-2.75977 -3.16504 -3.21973 -3.16504q-0.919922 0 -6.43945 -5.27441q-5.05957 -5.80273 -5.05957 -5.27441
q0 0.527344 -3.21973 -1.58301q-2.75977 -2.63672 -9.65918 -6.3291l-11.959 -6.33008q-5.05957 -2.63672 -15.1787 -3.69238q-9.65918 -1.05469 -15.6387 3.16504q-5.51953 3.69238 -6.89941 3.69238q-0.919922 0 -5.51953 3.69238q-4.59961 4.21973 -5.97949 4.21973
t-2.75977 1.58203q-0.919922 1.58301 -5.97949 4.74707q-5.05957 3.16504 -9.19922 7.38477t-11.499 7.91211t-7.81934 4.74707q-3.21973 5.27441 -22.5381 8.43945q-4.13965 0.527344 -6.43945 0.527344q-9.19922 0 -22.998 -10.0215q-4.59961 -3.69238 -5.51953 -3.69238
q-2.2998 0 -15.1787 -13.7139l-1.37988 -1.58301q-0.459961 -1.58203 -1.37988 -0.527344q-1.37988 1.05566 -11.499 -13.1865q-2.2998 -3.69238 -3.21973 -5.80176q-1.83984 -4.21973 -5.97949 -4.21973q-4.13965 -0.527344 -5.97949 3.16406
q-1.37988 3.69238 -4.13965 4.74805q-4.13965 1.05469 -5.05957 7.91211q-0.459961 2.10938 0 3.16406q1.37988 1.58301 1.37988 3.16504q0 3.16504 7.35938 10.0215q2.2998 1.58301 2.75977 1.58301q0.919922 0 0.919922 1.05469q0 2.6377 14.2588 17.4062
q2.75977 3.16504 3.21973 3.16504q1.37988 0 7.35938 6.85645q5.97949 6.85742 9.65918 10.0225q12.8789 11.0771 29.4375 16.8789zM49.9707 560.316q2.89453 3.84473 10.1309 2.30664q8.68359 -0.768555 11.5781 -1.53809q7.95996 0.769531 11.5781 -9.22656
q0.723633 -3.07617 2.1709 -8.45801q1.44727 -9.99609 7.23633 -26.9121q8.68359 -29.2197 8.68359 -32.2949q5.06543 -15.3789 10.8545 -34.6016q5.06543 -11.5342 13.749 -38.4463q5.78906 -17.6846 15.1963 -42.29q10.8545 -26.1436 15.9199 -41.5225l17.3672 -44.5967
l12.3018 -34.6016q11.5781 -34.6016 25.3271 -70.7412l18.0908 -50.749q4.3418 -12.3027 5.78906 -9.99609q0.723633 3.84473 1.44727 28.4502q1.44727 14.6104 5.06543 93.8086q0.723633 10.7646 1.44727 11.5342q2.89453 20.7607 2.89453 69.2031l0.723633 23.8359
q0 3.84473 2.1709 33.0635q0.723633 29.9883 2.1709 39.9844l2.1709 36.1387q2.1709 26.9131 2.89453 28.4502l1.44727 17.6855q5.06543 49.2109 6.5127 55.3623q1.44727 16.916 0 19.2227q-2.1709 7.68945 9.40723 8.45801q1.44727 0.769531 2.89453 0.769531
q35.458 0.768555 36.9053 -3.84473q0.723633 -1.53809 -0.723633 -6.15137q-5.06543 -13.0723 -5.78906 -49.9805l-0.723633 -20.7607q-2.1709 -2.30664 -2.89453 -26.1426q-2.89453 -35.3711 -3.61816 -41.5225q-2.1709 -29.9873 -2.1709 -36.9082l-3.61816 -46.9043
q-2.89453 -27.6807 -2.1709 -36.1387l-1.44727 -32.2949v-0.768555q-2.89453 -34.6016 -3.61816 -49.2109q-2.1709 -29.2197 -2.89453 -37.6777l-3.61816 -36.1387l-3.61816 -57.6689q-2.89453 -32.2949 -2.1709 -36.1396q-0.723633 -10.7646 -3.61816 -13.0713
q-4.3418 -3.07617 -47.7598 -3.84473q-1.44727 0 -7.95996 15.3779q-7.95996 20.7607 -8.68359 24.6055q-3.61816 10.7656 -8.68359 22.2988q-4.3418 8.45801 -8.68359 23.0674q-5.06543 16.1475 -8.68359 27.6816l-12.3018 33.832q-2.89453 9.99609 -12.3018 36.1396
l-18.8145 51.5176l-17.3672 46.9043q-14.4727 36.1396 -27.498 79.9678q-10.8545 36.1396 -13.0254 36.1396q-2.89453 -0.769531 -1.44727 -2.30664q1.44727 -1.53809 0.723633 -32.2949q-2.1709 -106.111 0 -166.087q0.723633 -36.1396 -0.723633 -66.8965
q-0.723633 -37.6768 1.44727 -79.9678q0.723633 -33.0635 1.44727 -45.3662l2.1709 -14.6094q0 -3.84473 -4.3418 -4.61328q-2.89453 -0.769531 -9.40723 -2.30762q-31.1162 -3.0752 -31.8398 -1.53711q-0.723633 1.53711 2.1709 64.5889v8.45801l0.723633 46.1357
q0.723633 1.53809 1.44727 38.4463l1.44727 53.8242l-0.723633 89.9639l0.723633 43.8281q2.1709 33.833 1.44727 59.9756v53.0557q0.723633 31.5264 0.723633 46.1357q0 23.0674 4.3418 26.9121z" />
    <glyph glyph-name="Ograve" unicode="&#xd2;" horiz-adv-x="403" 
d="M157.72 585.934l60.6875 0.77832q10.3809 0 10.3809 -0.77832l4.79102 -1.55664q1.59668 0 33.5381 -11.6768q11.1787 -3.89258 24.7539 -14.0117q29.5459 -25.6885 29.5459 -29.5811q0 -1.55664 6.3877 -10.1201q6.38867 -7.00586 9.58203 -15.5684
q7.1875 -17.126 9.58301 -22.5752q17.5674 -41.2578 19.9629 -108.203v-4.6709q4.79102 -115.988 -6.38867 -161.138q-4.79102 -20.2393 -15.9697 -47.4844q-9.58301 -28.8027 -27.9492 -52.1562q-19.1641 -21.7959 -48.709 -38.1436q-2.39648 -1.55664 -3.99316 -2.33496
q-13.5752 -6.22754 -41.5234 -7.00586q-56.6943 0 -84.6436 15.5684q-8.7832 5.44922 -20.7607 14.79q-38.3291 29.5811 -58.293 70.0605q-0.797852 1.55664 -1.59668 3.11328q-14.373 28.8027 -23.9561 87.1855q0 2.33496 -0.797852 5.44922
q-3.19434 20.2393 -0.798828 113.652q1.59668 55.2695 19.9629 96.5273q3.19434 7.00586 7.18652 15.5684q17.5674 35.0303 23.9561 42.8145q29.5449 45.9287 75.0615 61.4971zM239.169 543.119q-11.1797 5.44922 -43.9189 3.11426q-5.58984 -0.77832 -8.78418 -1.55762
q-17.5674 -3.11328 -35.9336 -18.6826q-18.3652 -15.5684 -39.9258 -54.4902q-2.39551 -3.89258 -2.39551 -5.44922q-3.19434 -7.78418 -7.18652 -15.5693q-11.1797 -20.2393 -23.1572 -73.1738q-1.59766 -7.00586 -1.59766 -10.8975q-8.7832 -59.9404 6.38867 -133.114
q3.19434 -13.2334 6.38867 -23.3525q11.1787 -35.0303 39.127 -67.7246q4.79102 -5.44922 7.98535 -7.78418q47.1133 -33.4736 92.6289 -23.3535q31.1426 7.00586 44.7168 25.6885q20.7617 27.2451 27.9482 46.7061q3.99316 9.3418 7.1875 21.0186
q19.9629 70.8379 7.18652 189.939q-9.58301 86.4072 -30.3438 115.21q-15.1719 20.2393 -31.1426 27.2451q-12.7764 4.6709 -15.1719 6.22754zM248.525 673.769q17.2461 -12.3301 15.8838 -17.2852q-0.998047 -2.79102 -7.35938 -10.2998
q-6.36035 -7.50879 -8.62402 -11.5557q-3.19629 -4.37109 -6.92969 -5.66992q-4.03223 -0.995117 -17.8789 11.7021q-67.5977 66.9102 -89.4775 78.8496q-51.3301 28.9834 -56.2734 40.2988q1.66211 4.65137 18.7822 22.8291q2.23145 2.81348 3.16406 3.1377
q9.06445 4.7832 31.415 -12.6953l33.5264 -26.2168q13.3096 -9.62598 45.2051 -39.2627q26.791 -24.4873 38.5664 -33.832z" />
    <glyph glyph-name="Oacute" unicode="&#xd3;" horiz-adv-x="424" 
d="M158.064 582.969l61.2256 0.774414q10.4736 0 10.4736 -0.774414l4.83301 -1.54883q1.61133 0 33.8359 -11.6162q11.2783 -3.87207 24.9736 -13.9395q29.8066 -25.5557 29.8066 -29.4277q0 -1.54883 6.44531 -10.0674q6.44434 -6.96973 9.66699 -15.4883
q7.25098 -17.0371 9.66699 -22.458q17.7236 -41.0439 20.1406 -107.644v-4.64648q4.83301 -115.388 -6.44531 -160.304q-4.83301 -20.1348 -16.1113 -47.2393q-9.66797 -28.6533 -28.1963 -51.8857q-19.335 -21.6836 -49.1416 -37.9463q-2.41699 -1.54883 -4.02832 -2.32324
q-13.6953 -6.19531 -41.8916 -6.96973q-57.1973 0 -85.3936 15.4883q-8.8623 5.4209 -20.9463 14.7139q-38.6689 29.4277 -58.8086 69.6973l-1.61133 3.09766q-14.501 28.6533 -24.168 86.7344q0 2.32324 -0.805664 5.4209q-3.22266 20.1348 -0.805664 113.064
q1.61133 54.9834 20.1396 96.0273q3.22266 6.96973 7.25098 15.4883q17.7227 34.8486 24.168 42.5928q29.8076 45.6904 75.7266 61.1787zM240.236 540.376q-11.2783 5.4209 -44.3086 3.09766q-5.63867 -0.774414 -8.86133 -1.54883q-17.7236 -3.09766 -36.252 -18.5859
q-18.5293 -15.4883 -40.2803 -54.209q-2.41699 -3.87207 -2.41699 -5.4209q-3.22266 -7.74414 -7.25 -15.4883q-11.2793 -20.1348 -23.3633 -72.7949q-1.61133 -6.96973 -1.61133 -10.8418q-8.86133 -59.6299 6.44531 -132.425q3.22266 -13.165 6.44531 -23.2324
q11.2783 -34.8486 39.4736 -67.374q4.83398 -5.4209 8.05664 -7.74414q47.5303 -33.2998 93.4502 -23.2324q31.418 6.96973 45.1133 25.5557q20.9453 27.1045 28.1963 46.4648q4.02832 9.29297 7.25 20.9092q20.1406 70.4717 7.25098 188.957
q-9.66797 85.96 -30.6133 114.613q-15.3066 20.1348 -31.418 27.1045q-12.8896 4.64648 -15.3066 6.19531zM334.164 765.814q17.4795 11.9932 21.6699 9.01953q2.2832 -1.8916 7.16602 -10.4365q4.88281 -8.54395 7.91211 -12.0547q3.01562 -4.49805 2.96094 -8.4502
q-0.441406 -4.12988 -17.1055 -12.8027q-85.9727 -40.6621 -104.668 -57.1436q-44.7754 -38.3359 -57.0977 -39.1143q-3.80371 3.15234 -15.0371 25.4551q-1.88086 3.05762 -1.86719 4.0459q-1.39844 10.1533 22.6621 25.1846l36.0928 22.5479
q13.5928 9.21973 52.3408 29.0664q32.166 16.8086 44.9707 24.6826z" />
    <glyph glyph-name="Ocircumflex" unicode="&#xd4;" horiz-adv-x="424" 
d="M159.41 610.438l61.7637 0.814453q10.5645 0 10.5645 -0.814453l4.87598 -1.62891q1.62598 0 34.1328 -12.2168q11.3779 -4.07227 25.1934 -14.6602q30.0693 -26.877 30.0693 -30.9492q0 -1.62891 6.50195 -10.5879q6.50098 -7.33008 9.75195 -16.2891
q7.31445 -17.918 9.75195 -23.6191q17.8789 -43.166 20.3174 -113.209v-4.88672q4.87598 -121.354 -6.50195 -168.592q-4.87598 -21.1758 -16.2529 -49.6816q-9.75293 -30.1348 -28.4443 -54.5684q-19.5049 -22.8047 -49.5732 -39.9082q-2.43848 -1.62891 -4.06348 -2.44336
q-13.8164 -6.51562 -42.2598 -7.33008q-57.7002 0 -86.1445 16.2891q-8.93945 5.70117 -21.1299 15.4746q-39.0088 30.9492 -59.3262 73.3008l-1.625 3.25781q-14.6279 30.1348 -24.3809 91.2188q0 2.44336 -0.8125 5.70117q-3.25098 21.1758 -0.8125 118.91
q1.625 57.8262 20.3174 100.992q3.25 7.33008 7.31348 16.2891q17.8789 36.6504 24.3809 44.7949q30.0693 48.0527 76.3926 64.3418zM242.304 565.643q-11.3779 5.70117 -44.6982 3.25781q-5.68848 -0.814453 -8.93945 -1.62891q-17.8789 -3.25781 -36.5703 -19.5469
t-40.6338 -57.0117q-2.43848 -4.07227 -2.43848 -5.70117q-3.25098 -8.14453 -7.31445 -16.2891q-11.377 -21.1758 -23.5674 -76.5586q-1.62598 -7.33008 -1.62598 -11.4023q-8.93945 -62.7129 6.50195 -139.271q3.25098 -13.8457 6.50195 -24.4336
q11.377 -36.6504 39.8213 -70.8574q4.87598 -5.70117 8.12695 -8.14453q47.9482 -35.0215 94.2705 -24.4336q31.6953 7.33008 45.5107 26.877q21.1299 28.5059 28.4434 48.8672q4.06348 9.77344 7.31445 21.9902q20.3174 74.1152 7.31445 198.727
q-9.75293 90.4043 -30.8818 120.539q-15.4414 21.1758 -31.6953 28.5059q-13.0029 4.88672 -15.4404 6.51562zM188.048 752.253q4.58008 1.78516 9.15918 0.594727q4.58008 -1.18945 6.86914 -1.18945q5.15234 0 6.87012 -8.33008q0 -5.94922 56.0996 -64.2559
q33.7744 -35.1035 34.9189 -38.6738q0 -4.16406 -8.01367 -8.3291q-9.15918 -6.54492 -9.73145 -7.73535q-2.29004 -2.37891 -8.01465 -1.78418t-9.15918 7.13965q-4.00684 7.73438 -9.15918 12.4941l-20.0361 24.9883q-13.166 17.8496 -16.6006 21.4199
q-1.14453 1.18945 -8.01465 10.709q-12.5938 16.0645 -16.6006 16.0645q-2.29004 0.594727 -24.6152 -24.9893q-4.00781 -4.75977 -4.58008 -5.94922q0 -1.19043 -7.44141 -8.9248q-6.29688 -6.54492 -13.166 -17.2539q-10.3047 -16.6592 -17.7461 -25.584
q-2.29004 -2.97461 -7.44238 -0.594727l-18.3184 14.2793q-0.572266 1.18945 -1.14453 1.78418l-3.43457 5.35547l8.58691 13.0889q10.876 17.2549 16.6006 24.3936l13.7393 19.0391l14.3105 18.4443q9.73145 10.1143 12.0215 16.0645q2.8623 5.9502 11.4492 5.9502
q11.4492 1.18945 12.5938 1.78418z" />
    <glyph glyph-name="Otilde" unicode="&#xd5;" horiz-adv-x="424" 
d="M159.41 601.992l61.7637 0.802734q10.5645 0 10.5645 -0.802734l4.87598 -1.60547q1.62598 0 34.1328 -12.0449q11.3779 -4.01562 25.1934 -14.4541q30.0693 -26.498 30.0693 -30.5127q0 -1.60645 6.50195 -10.4395q6.50098 -7.22656 9.75195 -16.0586
q7.31445 -17.666 9.75195 -23.2871q17.8789 -42.5576 20.3174 -111.613v-4.81836q4.87598 -119.644 -6.50195 -166.217q-4.87598 -20.877 -16.2529 -48.9814q-9.75293 -29.71 -28.4443 -53.7998q-19.5049 -22.4834 -49.5732 -39.3457q-2.43848 -1.60547 -4.06348 -2.40918
q-13.8164 -6.42383 -42.2598 -7.22656q-57.7002 0 -86.1445 16.0596q-8.93945 5.62109 -21.1299 15.2568q-39.0088 30.5127 -59.3262 72.2676q-0.8125 1.60645 -1.625 3.21191q-14.6279 29.7109 -24.3809 89.9336q0 2.40918 -0.8125 5.62109
q-3.25098 20.877 -0.8125 117.234q1.625 57.0117 20.3174 99.5703q3.25 7.22656 7.31348 16.0586q17.8789 36.1348 24.3809 44.1641q30.0693 47.376 76.3926 63.4355zM242.304 557.828q-11.3779 5.62109 -44.6982 3.21191q-5.68848 -0.802734 -8.93945 -1.60547
q-17.8789 -3.21191 -36.5703 -19.2715t-40.6338 -56.209q-2.43848 -4.01465 -2.43848 -5.62012q-3.25098 -8.03027 -7.31445 -16.0605q-11.377 -20.877 -23.5674 -75.4795q-1.62598 -7.22656 -1.62598 -11.2412q-8.93945 -61.8301 6.50195 -137.31
q3.25098 -13.6514 6.50195 -24.0898q11.377 -36.1338 39.8213 -69.8584q4.87598 -5.62109 8.12695 -8.03027q47.9482 -34.5283 94.2705 -24.0889q31.6953 7.22656 45.5107 26.498q21.1299 28.1035 28.4434 48.1787q4.06348 9.63574 7.31445 21.6807
q20.3174 73.0703 7.31445 195.926q-9.75293 89.1309 -30.8818 118.842q-15.4414 20.877 -31.6953 28.1035q-13.0029 4.81836 -15.4404 6.42383zM182.393 711.952q14.2588 4.21973 32.1973 1.05469q1.37988 0 2.2998 -0.527344q7.81934 -2.11035 15.6387 -10.5498
q1.83984 -2.10938 3.21973 -2.10938q0.919922 0 0 -1.05469q-0.459961 -1.05469 2.75977 -3.69238l5.97949 -5.80176q3.21973 -2.6377 6.89941 -5.27539q3.67969 -2.63672 7.35938 -5.80176q10.1191 -8.9668 23.458 -14.7695q9.19922 -3.69238 24.3779 3.69238
q11.0391 5.27539 15.6387 11.0771q4.59961 5.27441 5.97949 5.27441q0.919922 0 7.81934 7.38477t9.65918 9.49414q2.75977 2.6377 3.21973 4.74707q1.83984 5.27441 10.1191 0.527344q7.81934 -4.21973 10.5791 -8.43945q1.37988 -2.10938 -4.13965 -12.1318
q-7.81934 -13.7139 -22.0781 -27.9551q-2.75977 -3.16504 -3.21973 -3.16504q-0.919922 0 -6.43945 -5.27441q-5.05957 -5.80273 -5.05957 -5.27441q0 0.527344 -3.21973 -1.58301q-2.75977 -2.63672 -9.65918 -6.3291l-11.959 -6.33008
q-5.05957 -2.63672 -15.1787 -3.69238q-9.65918 -1.05469 -15.6387 3.16504q-5.51953 3.69238 -6.89941 3.69238q-0.919922 0 -5.51953 3.69238q-4.59961 4.21973 -5.97949 4.21973t-2.75977 1.58203q-0.919922 1.58301 -5.97949 4.74707q-5.05957 3.16504 -9.19922 7.38477
t-11.499 7.91211t-7.81934 4.74707q-3.21973 5.27441 -22.5381 8.43945q-4.13965 0.527344 -6.43945 0.527344q-9.19922 0 -22.998 -10.0215q-4.59961 -3.69238 -5.51953 -3.69238q-2.2998 0 -15.1787 -13.7139l-1.37988 -1.58301q-0.459961 -1.58203 -1.37988 -0.527344
q-1.37988 1.05566 -11.499 -13.1865q-2.2998 -3.69238 -3.21973 -5.80176q-1.83984 -4.21973 -5.97949 -4.21973q-4.13965 -0.527344 -5.97949 3.16406q-1.37988 3.69238 -4.13965 4.74805q-4.13965 1.05469 -5.05957 7.91211q-0.459961 2.10938 0 3.16406
q1.37988 1.58301 1.37988 3.16504q0 3.16504 7.35938 10.0215q2.2998 1.58301 2.75977 1.58301q0.919922 0 0.919922 1.05469q0 2.6377 14.2588 17.4062q2.75977 3.16504 3.21973 3.16504q1.37988 0 7.35938 6.85645q5.97949 6.85742 9.65918 10.0225
q12.8789 11.0771 29.4375 16.8789z" />
    <glyph glyph-name="Odieresis" unicode="&#xd6;" horiz-adv-x="376" 
d="M149.303 610.662l56.9209 0.814453q9.7373 0 9.7373 -0.814453l4.49316 -1.62988q1.49805 0 31.457 -12.2207q10.4854 -4.07422 23.2178 -14.666q27.7109 -26.8867 27.7109 -30.9609q0 -1.62891 5.99219 -10.5918q5.99121 -7.33301 8.9873 -16.2949
q6.74121 -17.9248 8.9873 -23.6279q16.4775 -43.1826 18.7246 -113.252v-4.88867q4.49316 -121.398 -5.99219 -168.654q-4.49316 -21.1836 -14.9785 -49.7002q-8.98828 -30.1465 -26.2139 -54.5889q-17.9756 -22.8135 -45.6865 -39.9238
q-2.24707 -1.62891 -3.74512 -2.44336q-12.7324 -6.51855 -38.9463 -7.33301q-53.1758 0 -79.3896 16.2949q-8.23926 5.70312 -19.4736 15.4805q-35.9502 30.9609 -54.6738 73.3281q-0.749023 1.62988 -1.49805 3.25879q-13.4814 30.1465 -22.4688 91.2529
q0 2.44434 -0.749023 5.7041q-2.99609 21.1836 -0.749023 118.954q1.49805 57.8477 18.7236 101.03q2.99609 7.33301 6.74121 16.2949q16.4766 36.6641 22.4688 44.8115q27.7119 48.0713 70.4023 64.3662zM225.697 565.851q-10.4854 5.70312 -41.1934 3.25879
q-5.24219 -0.814453 -8.23828 -1.62988q-16.4775 -3.25879 -33.7031 -19.5537q-17.2266 -16.2949 -37.4482 -57.0332q-2.24707 -4.07422 -2.24707 -5.70312q-2.99609 -8.14746 -6.74023 -16.2949q-10.4863 -21.1836 -21.7207 -76.5879q-1.49805 -7.33301 -1.49805 -11.4062
q-8.23828 -62.7363 5.99219 -139.324q2.99609 -13.8506 5.99219 -24.4424q10.4854 -36.6641 36.6982 -70.8838q4.49414 -5.70312 7.49023 -8.14746q44.1885 -35.0352 86.8799 -24.4434q29.209 7.33301 41.9414 26.8877q19.4727 28.5166 26.2139 48.8848
q3.74512 9.77734 6.74023 21.999q18.7246 74.1426 6.74121 198.801q-8.98828 90.4385 -28.4609 120.584q-14.2305 21.1846 -29.209 28.5166q-11.9834 4.88867 -14.2305 6.51855zM238.15 668.044q-2.31348 12.6826 4.86133 33.623q2.98242 8.4873 27.3652 7.05762
q14.0977 -0.495117 23.6953 -5.9873q11.7129 -7.28418 14.2432 -13.1006l3.03613 -6.98047q3.48926 -9.85938 -3.55957 -26.7949q-2.31348 -4.50195 -4.0127 -6.73242q-7.32031 -8.33496 -24.6719 -7.72559q-10.3027 0.361328 -21.4902 7.05566
q-17.0811 9.19141 -19.4668 19.585zM81.4805 674.691q-1.82617 10.9473 5.47656 18.709q11.7842 12.1875 21.1465 16.4414q8.73047 1.41113 23.1357 -6.54102q2.13281 -1.21973 3.18066 -2.40234q1.57227 -1.77344 5.11523 -9.91699q7.55566 -18.5938 -1.01172 -32.04
q-7.87988 -8.8877 -16.0137 -8.60156q-18.4727 -0.49707 -20.0264 1.84863q-0.506836 1.16309 -5.82031 4.78613q-11.1699 7.26562 -15.1826 17.7168z" />
    <glyph glyph-name="multiply" unicode="&#xd7;" horiz-adv-x="421" 
d="M106 625q24 6 30 2l20 -43q10 -17 39 -65l16 -28l14 -23q5 -9 7 -10q1 0 4 3q14 12 53 66q9 12 15 18q5 6 14 22q14 24 21 33t10 9q5 1 15 -8l25 -23q2 -4 -8 -14q-7 -6 -12 -16q-11 -20 -29 -42q-8 -9 -22 -28q-26 -39 -34 -49q-16 -18 -17 -34q0 -7 38 -68
q14 -23 14 -26q0 -4 51 -86q1 -3 2 -4q12 -21 8 -24q-6 -6 -49 -8l-14 -1q-7 12 -8 17l-30 67q-15 27 -15 30q-3 11 -22 43l-12 21l-9 -8l-16 -21l-40 -49q-22 -27 -27 -32q-19 -20 -34 -38q-24 -30 -31 -30q-6 0 -24 22q-3 4 -6 7q-15 16 -15 23q0 3 28 27q10 9 11 11
q9 10 28 28q18 19 51 59q34 41 42 49q8 9 8 13q0 10 -53 103q-3 6 -6 10q-14 24 -17 29l-17 30q-14 29 -13 32q1 1 16 4z" />
    <glyph glyph-name="Oslash" unicode="&#xd8;" horiz-adv-x="484" 
d="M348.43 780.01q8.54297 9.73242 33.1035 -4.3252q17.0859 -9.73242 27.7646 -12.9766t12.8145 -9.73242q1.06738 -5.40723 3.2041 -9.73242l-12.8145 -27.0342q-6.4082 -8.65039 -6.4082 -11.8945q0 -7.56934 -16.0176 -31.3594q-2.13574 -1.08105 -12.8145 -29.1973
q-11.7461 -31.3594 -63.0039 -138.414q-19.2227 -41.0908 -19.2227 -42.1729l-37.375 -75.6953q-2.13574 -1.08105 -2.13574 -4.3252q0 -4.3252 -2.13574 -4.3252t-9.61133 -16.2207q-28.832 -63.7998 -30.9678 -74.6133q-2.13574 -6.48828 -13.8818 -35.6855
q-10.6797 -28.1152 -14.9512 -38.9287q-4.27148 -11.8945 -13.8818 -32.4404t-26.6963 -69.207q-16.0186 -48.6611 -20.29 -51.9053t-4.27148 -5.40723t-7.47559 -5.40625q-6.40625 -3.24414 -25.6289 5.40625q-19.2207 9.73242 -22.4248 9.73242
q-6.40723 0 -4.27148 17.3018q1.06738 6.48828 3.2041 8.65039q3.20312 1.08203 9.61035 17.3018q7.47559 15.1396 11.7471 22.709t12.8145 32.4404q40.5781 120.031 54.4609 140.577q4.27148 5.40723 4.27148 12.9766t2.13574 10.8135q2.13574 2.16211 11.7471 25.9521
q9.61035 24.8721 11.7461 24.8721q2.13574 1.08105 2.13574 4.3252t4.27148 7.56934t17.0859 38.9287q12.8145 33.5225 16.0186 40.0107q4.27148 6.48828 4.27148 9.73242t16.0176 37.8477q34.1719 77.8574 79.0225 194.645q0 4.3252 3.2041 5.40625
q2.13477 1.08203 6.40625 16.2207q10.6797 38.9287 19.2227 47.5801zM190 736l76 1q13 0 13 -1l6 -2q2 0 42 -15q14 -5 31 -18q37 -33 37 -38q0 -2 8 -13q8 -9 12 -20q9 -22 12 -29q22 -53 25 -139v-6q6 -149 -8 -207q-6 -26 -20 -61q-12 -37 -35 -67q-24 -28 -61 -49
q-3 -2 -5 -3q-17 -8 -52 -9q-71 0 -106 20q-11 7 -26 19q-48 38 -73 90l-2 4q-18 37 -30 112q0 3 -1 7q-4 26 -1 146q2 71 25 124q4 9 9 20q22 45 30 55q37 59 94 79zM292 681q-14 7 -55 4q-7 -1 -11 -2q-22 -4 -45 -24t-50 -70q-3 -5 -3 -7q-4 -10 -9 -20q-14 -26 -29 -94
q-2 -9 -2 -14q-11 -77 8 -171q4 -17 8 -30q14 -45 49 -87q6 -7 10 -10q59 -43 116 -30q39 9 56 33q26 35 35 60q5 12 9 27q25 91 9 244q-12 111 -38 148q-19 26 -39 35q-16 6 -19 8z" />
    <glyph glyph-name="Ugrave" unicode="&#xd9;" horiz-adv-x="379" 
d="M254.514 72.1934q-9.96191 -5.63672 -19.9238 -8.05176q-16.8584 -4.02637 -23.7549 -4.83105q-21.4561 -5.63672 -50.5752 -0.804688q-3.06543 0 -4.59863 0.804688q-5.36328 2.41602 -17.624 4.02539q-29.1201 4.02637 -63.6035 39.4541
q-13.0264 14.4932 -18.3906 25.7656q-10.7285 24.1553 -10.7285 25.7656q-6.12988 20.1299 -10.7275 44.2842q-3.83203 19.3242 -3.83203 128.023q0 115.945 0.766602 123.997q1.53223 8.05176 3.06543 78.1025q1.53223 63.6084 5.36426 67.6348
q3.83105 4.02539 22.9883 3.2207q14.5596 -0.805664 15.3262 -1.61133q6.12988 -1.60938 7.66309 -15.2979l-8.42969 -142.517q-1.53223 -46.6992 -1.53223 -92.5947q0 -94.2061 4.59766 -128.022l3.83105 -28.1816q6.13086 -40.2588 34.4834 -66.8301
q18.3916 -17.7129 60.5381 -24.1543q26.0537 -3.2207 45.2109 16.1035q16.8584 17.7129 20.6904 40.2578q0.765625 8.05273 2.29883 23.3506q6.12988 67.6348 6.12988 107.894q-1.53223 64.4141 9.19629 173.918q1.53223 20.9346 1.53223 70.8555q0 51.5312 2.29883 54.752
q2.29883 4.02539 32.1846 4.02539q23.7549 -0.804688 24.5215 -10.4668q0.766602 -2.41602 0 -5.63672q-3.83203 -29.791 -10.7285 -201.293q-3.83105 -86.959 -9.19531 -154.594q-6.89648 -61.1934 -9.96191 -74.0762q-9.19531 -49.1162 -32.9502 -69.2461
q-3.06543 -2.41504 -6.13086 -4.02539zM248.525 673.769q17.2461 -12.3301 15.8838 -17.2852q-0.998047 -2.79102 -7.35938 -10.2998q-6.36035 -7.50879 -8.62402 -11.5557q-3.19629 -4.37109 -6.92969 -5.66992q-4.03223 -0.995117 -17.8789 11.7021
q-67.5977 66.9102 -89.4775 78.8496q-51.3301 28.9834 -56.2734 40.2988q1.66211 4.65137 18.7822 22.8291q2.23145 2.81348 3.16406 3.1377q9.06445 4.7832 31.415 -12.6953l33.5264 -26.2168q13.3096 -9.62598 45.2051 -39.2627q26.791 -24.4873 38.5664 -33.832z" />
    <glyph glyph-name="Uacute" unicode="&#xda;" horiz-adv-x="367" 
d="M254.514 46.1934q-9.96191 -5.63672 -19.9238 -8.05176q-16.8584 -4.02637 -23.7549 -4.83105q-21.4561 -5.63672 -50.5752 -0.804688q-3.06543 0 -4.59863 0.804688q-5.36328 2.41602 -17.624 4.02539q-29.1201 4.02637 -63.6035 39.4541
q-13.0264 14.4932 -18.3906 25.7656q-10.7285 24.1553 -10.7285 25.7656q-6.12988 20.1299 -10.7275 44.2842q-3.83203 19.3242 -3.83203 128.023q0 115.945 0.766602 123.997q1.53223 8.05176 3.06543 78.1025q1.53223 63.6084 5.36426 67.6348
q3.83105 4.02539 22.9883 3.2207q14.5596 -0.805664 15.3262 -1.61133q6.12988 -1.60938 7.66309 -15.2979l-8.42969 -142.517q-1.53223 -46.6992 -1.53223 -92.5947q0 -94.2061 4.59766 -128.022l3.83105 -28.1816q6.13086 -40.2588 34.4834 -66.8301
q18.3916 -17.7129 60.5381 -24.1543q26.0537 -3.2207 45.2109 16.1035q16.8584 17.7129 20.6904 40.2578q0.765625 8.05273 2.29883 23.3506q6.12988 67.6348 6.12988 107.894q-1.53223 64.4141 9.19629 173.918q1.53223 20.9346 1.53223 70.8555q0 51.5312 2.29883 54.752
q2.29883 4.02539 32.1846 4.02539q23.7549 -0.804688 24.5215 -10.4668q0.766602 -2.41602 0 -5.63672q-3.83203 -29.791 -10.7285 -201.293q-3.83105 -86.959 -9.19531 -154.594q-6.89648 -61.1934 -9.96191 -74.0762q-9.19531 -49.1162 -32.9502 -69.2461
q-3.06543 -2.41504 -6.13086 -4.02539zM295.164 717.814q17.4795 11.9932 21.6699 9.01953q2.2832 -1.8916 7.16602 -10.4365q4.88281 -8.54395 7.91211 -12.0547q3.01562 -4.49805 2.96094 -8.4502q-0.441406 -4.12988 -17.1055 -12.8027
q-85.9727 -40.6621 -104.668 -57.1436q-44.7754 -38.3359 -57.0977 -39.1143q-3.80371 3.15234 -15.0371 25.4551q-1.88086 3.05762 -1.86719 4.0459q-1.39844 10.1533 22.6621 25.1846l36.0928 22.5479q13.5928 9.21973 52.3408 29.0664q32.166 16.8086 44.9707 24.6826z
" />
    <glyph glyph-name="Ucircumflex" unicode="&#xdb;" horiz-adv-x="352" 
d="M240.514 63.1934q-9.96191 -5.63672 -19.9238 -8.05176q-16.8584 -4.02637 -23.7549 -4.83105q-21.4561 -5.63672 -50.5752 -0.804688q-3.06543 0 -4.59863 0.804688q-5.36328 2.41602 -17.624 4.02539q-29.1201 4.02637 -63.6035 39.4541
q-13.0264 14.4932 -18.3906 25.7656q-10.7285 24.1553 -10.7285 25.7656q-6.12988 20.1299 -10.7275 44.2842q-3.83203 19.3242 -3.83203 128.023q0 115.945 0.766602 123.997q1.53223 8.05176 3.06543 78.1025q1.53223 63.6084 5.36426 67.6348
q3.83105 4.02539 22.9883 3.2207q14.5596 -0.805664 15.3262 -1.61133q6.12988 -1.60938 7.66309 -15.2979l-8.42969 -142.517q-1.53223 -46.6992 -1.53223 -92.5947q0 -94.2061 4.59766 -128.022l3.83105 -28.1816q6.13086 -40.2588 34.4834 -66.8301
q18.3916 -17.7129 60.5381 -24.1543q26.0537 -3.2207 45.2109 16.1035q16.8584 17.7129 20.6904 40.2578q0.765625 8.05273 2.29883 23.3506q6.12988 67.6348 6.12988 107.894q-1.53223 64.4141 9.19629 173.918q1.53223 20.9346 1.53223 70.8555q0 51.5312 2.29883 54.752
q2.29883 4.02539 32.1846 4.02539q23.7549 -0.804688 24.5215 -10.4668q0.766602 -2.41602 0 -5.63672q-3.83203 -29.791 -10.7285 -201.293q-3.83105 -86.959 -9.19531 -154.594q-6.89648 -61.1934 -9.96191 -74.0762q-9.19531 -49.1162 -32.9502 -69.2461
q-3.06543 -2.41504 -6.13086 -4.02539zM167.048 752.253q4.58008 1.78516 9.15918 0.594727q4.58008 -1.18945 6.86914 -1.18945q5.15234 0 6.87012 -8.33008q0 -5.94922 56.0996 -64.2559q33.7744 -35.1035 34.9189 -38.6738q0 -4.16406 -8.01367 -8.3291
q-9.15918 -6.54492 -9.73145 -7.73535q-2.29004 -2.37891 -8.01465 -1.78418t-9.15918 7.13965q-4.00684 7.73438 -9.15918 12.4941l-20.0361 24.9883q-13.166 17.8496 -16.6006 21.4199q-1.14453 1.18945 -8.01465 10.709q-12.5938 16.0645 -16.6006 16.0645
q-2.29004 0.594727 -24.6152 -24.9893q-4.00781 -4.75977 -4.58008 -5.94922q0 -1.19043 -7.44141 -8.9248q-6.29688 -6.54492 -13.166 -17.2539q-10.3047 -16.6592 -17.7461 -25.584q-2.29004 -2.97461 -7.44238 -0.594727l-18.3184 14.2793
q-0.572266 1.18945 -1.14453 1.78418l-3.43457 5.35547l8.58691 13.0889q10.876 17.2549 16.6006 24.3936l13.7393 19.0391l14.3105 18.4443q9.73145 10.1143 12.0215 16.0645q2.8623 5.9502 11.4492 5.9502q11.4492 1.18945 12.5938 1.78418z" />
    <glyph glyph-name="Udieresis" unicode="&#xdc;" horiz-adv-x="352" 
d="M248.514 61.1934q-9.96191 -5.63672 -19.9238 -8.05176q-16.8584 -4.02637 -23.7549 -4.83105q-21.4561 -5.63672 -50.5752 -0.804688q-3.06543 0 -4.59863 0.804688q-5.36328 2.41602 -17.624 4.02539q-29.1201 4.02637 -63.6035 39.4541
q-13.0264 14.4932 -18.3906 25.7656q-10.7285 24.1553 -10.7285 25.7656q-6.12988 20.1299 -10.7275 44.2842q-3.83203 19.3242 -3.83203 128.023q0 115.945 0.766602 123.997q1.53223 8.05176 3.06543 78.1025q1.53223 63.6084 5.36426 67.6348
q3.83105 4.02539 22.9883 3.2207q14.5596 -0.805664 15.3262 -1.61133q6.12988 -1.60938 7.66309 -15.2979l-8.42969 -142.517q-1.53223 -46.6992 -1.53223 -92.5947q0 -94.2061 4.59766 -128.022l3.83105 -28.1816q6.13086 -40.2588 34.4834 -66.8301
q18.3916 -17.7129 60.5381 -24.1543q26.0537 -3.2207 45.2109 16.1035q16.8584 17.7129 20.6904 40.2578q0.765625 8.05273 2.29883 23.3506q6.12988 67.6348 6.12988 107.894q-1.53223 64.4141 9.19629 173.918q1.53223 20.9346 1.53223 70.8555q0 51.5312 2.29883 54.752
q2.29883 4.02539 32.1846 4.02539q23.7549 -0.804688 24.5215 -10.4668q0.766602 -2.41602 0 -5.63672q-3.83203 -29.791 -10.7285 -201.293q-3.83105 -86.959 -9.19531 -154.594q-6.89648 -61.1934 -9.96191 -74.0762q-9.19531 -49.1162 -32.9502 -69.2461
q-3.06543 -2.41504 -6.13086 -4.02539zM232.15 668.044q-2.31348 12.6826 4.86133 33.623q2.98242 8.4873 27.3652 7.05762q14.0977 -0.495117 23.6953 -5.9873q11.7129 -7.28418 14.2432 -13.1006l3.03613 -6.98047q3.48926 -9.85938 -3.55957 -26.7949
q-2.31348 -4.50195 -4.0127 -6.73242q-7.32031 -8.33496 -24.6719 -7.72559q-10.3027 0.361328 -21.4902 7.05566q-17.0811 9.19141 -19.4668 19.585zM75.4805 674.691q-1.82617 10.9473 5.47656 18.709q11.7842 12.1875 21.1465 16.4414q8.73047 1.41113 23.1357 -6.54102
q2.13281 -1.21973 3.18066 -2.40234q1.57227 -1.77344 5.11523 -9.91699q7.55566 -18.5938 -1.01172 -32.04q-7.87988 -8.8877 -16.0137 -8.60156q-18.4727 -0.49707 -20.0264 1.84863q-0.506836 1.16309 -5.82031 4.78613q-11.1699 7.26562 -15.1826 17.7168z" />
    <glyph glyph-name="Yacute" unicode="&#xdd;" horiz-adv-x="388" 
d="M280.595 607.209q3.30078 4.94727 20.6289 -3.29785q2.47461 -1.64941 4.125 -2.47363q16.5029 -10.7178 18.9785 -10.7178q4.12598 0 8.25098 -6.5957q0 -2.47363 -4.125 -8.24512q-3.30078 -3.29688 -15.6777 -28.0312q-32.1807 -65.957 -37.1309 -71.7285
q-0.825195 -1.64844 -25.5801 -56.8877q-0.824219 -2.47363 -1.64941 -4.12207l-19.8037 -42.0479l-14.0273 -25.5586v-0.824219l-4.95117 -11.542l-4.9502 -43.6973q-0.825195 -18.9629 -0.825195 -44.5205q0 -112.127 6.60059 -184.68l0.825195 -28.8564
q-1.65039 -1.64844 -11.5518 -3.29785q-23.1035 -4.12207 -27.2295 -3.29785q-4.125 1.64844 -4.9502 27.207q0 9.06934 -0.825195 28.8564l-3.30078 69.2549q-4.95117 151.701 -11.5518 174.786q-5.77637 21.4365 -6.60156 23.085q-32.1797 64.3086 -37.9561 76.6748
q-7.42578 14.8408 -12.377 27.208q-2.47559 8.24414 -11.5518 24.7334q-13.2021 27.207 -30.5303 66.7812q-5.77539 14.0166 -14.0273 26.3828q-8.25098 12.3672 -8.25098 17.3135q0 3.29883 14.8525 11.543q17.3281 9.06934 20.6279 8.24414q0 -0.824219 13.2021 -32.9785
q4.12598 -10.7178 9.90234 -23.084l14.0273 -29.6816q23.9287 -53.5898 51.9834 -105.531l16.502 -29.6797q9.90234 -19.7871 14.0273 -19.7871q6.60156 4.94629 37.1318 87.3926q4.125 12.3672 7.42578 22.2607l44.5576 111.302zM304.164 732.814
q17.4795 11.9932 21.6699 9.01953q2.2832 -1.8916 7.16602 -10.4365q4.88281 -8.54395 7.91211 -12.0547q3.01562 -4.49805 2.96094 -8.4502q-0.441406 -4.12988 -17.1055 -12.8027q-85.9727 -40.6621 -104.668 -57.1436q-44.7754 -38.3359 -57.0977 -39.1143
q-3.80371 3.15234 -15.0371 25.4551q-1.88086 3.05762 -1.86719 4.0459q-1.39844 10.1533 22.6621 25.1846l36.0928 22.5479q13.5928 9.21973 52.3408 29.0664q32.166 16.8086 44.9707 24.6826z" />
    <glyph glyph-name="Thorn" unicode="&#xde;" 
 />
    <glyph glyph-name="germandbls" unicode="&#xdf;" horiz-adv-x="426" 
d="M311 641q28 -26 35 -52q10 -35 12 -70t-2 -71q-1 -12 -7 -24l-11 -25q-17 -37 -36 -52q-6 -4 -19 -13q-27 -18 -27 -20t15 -4q43 -5 81 -46q23 -26 25 -61v-13q0 -40 -11 -63q-1 -2 -2 -5q-30 -61 -90 -73q-41 -8 -69 -17l-27 -5q-26 -5 -49 3q-6 2 0 16q3 6 3 21
q-1 21 3 24q1 1 32 2h11q77 11 102 21q29 13 40 34q10 18 4 38q-8 27 -48 58q-16 13 -23 13q-3 0 -14 5q-37 18 -62 10q-3 -1 -4 -2q-15 -8 -19 16q-1 2 -1 5q0 4 -5 14q-6 13 0 15q58 16 94 36q29 15 39 42q4 12 6 17q11 24 11 77q0 75 -61 120q-25 18 -65 20
q-53 3 -60 -15t-9 -96q0 -46 -2 -50q-1 -4 -3 -60q-2 -69 -5 -71q-6 -5 -7 -238q-1 -71 1 -85q1 -9 3 -33q1 -19 15 -128q1 -3 1 -5q1 -16 3 -31q1 -14 -4 -17l-58 -2q-7 1 -9 2q-3 4 -1 8q3 5 -3 66q-7 66 -1 193l1 91q1 46 1 70q1 92 7 115q4 17 7 189q1 97 2 110l2 13
q24 6 30 10t17 5l71 12q87 8 140 -44z" />
    <glyph glyph-name="agrave" unicode="&#xe0;" horiz-adv-x="384" 
d="M204.525 509.769q17.2461 -12.3301 15.8838 -17.2852q-0.998047 -2.79102 -7.35938 -10.2998q-6.36035 -7.50879 -8.62402 -11.5557q-3.19629 -4.37109 -6.92969 -5.66992q-4.03223 -0.995117 -17.8789 11.7021q-67.5977 66.9102 -89.4775 78.8496
q-51.3301 28.9834 -56.2734 40.2988q1.66211 4.65137 18.7822 22.8291q2.23145 2.81348 3.16406 3.1377q9.06445 4.7832 31.415 -12.6953l33.5264 -26.2168q13.3096 -9.62598 45.2051 -39.2627q26.791 -24.4873 38.5664 -33.832zM288 458q3 -2 4 -10q1 -32 7 -69
q6 -38 10 -70q5 -36 14 -81q2 -8 12 -120q2 -13 9 -39q11 -42 8 -47q-1 -3 -10 -4q-42 -9 -46 -6q-4 4 -2 15q3 11 0 21q-3 9 -6 9q-2 1 -7 -1q-20 -8 -46 -11q-22 -4 -65 -2q-30 2 -53 9q-31 11 -63 42q-2 3 -4 5q-20 23 -23 79q-1 11 0 17q4 24 7 31l23 65l19 40
q19 42 62 70q15 10 27 13q15 4 73 2h4q2 2 -1 21q-3 12 -1 14q4 7 42 7h6zM178 375q-22 -11 -46 -42q-3 -3 -4 -5l-14 -22q-10 -19 -17 -39q-17 -51 -23 -99q-1 -9 4 -24q6 -20 35 -39q3 -2 6 -3q28 -14 67 -15q6 0 14 -1q29 0 49 5q15 4 28 13q9 6 7 31l-7 70q-1 29 -5 47
t-5 36q-2 19 -8 48q-7 30 -7 32q0 6 -21 13q-5 2 -7 2q-22 1 -29 -1q-7 -3 -17 -7z" />
    <glyph glyph-name="aacute" unicode="&#xe1;" horiz-adv-x="384" 
d="M334.164 627.814q17.4795 11.9932 21.6699 9.01953q2.2832 -1.8916 7.16602 -10.4365q4.88281 -8.54395 7.91211 -12.0547q3.01562 -4.49805 2.96094 -8.4502q-0.441406 -4.12988 -17.1055 -12.8027q-85.9727 -40.6621 -104.668 -57.1436
q-44.7754 -38.3359 -57.0977 -39.1143q-3.80371 3.15234 -15.0371 25.4551q-1.88086 3.05762 -1.86719 4.0459q-1.39844 10.1533 22.6621 25.1846l36.0928 22.5479q13.5928 9.21973 52.3408 29.0664q32.166 16.8086 44.9707 24.6826zM288 458q3 -2 4 -10q1 -32 7 -69
q6 -38 10 -70q5 -36 14 -81q2 -8 12 -120q2 -13 9 -39q11 -42 8 -47q-1 -3 -10 -4q-42 -9 -46 -6q-4 4 -2 15q3 11 0 21q-3 9 -6 9q-2 1 -7 -1q-20 -8 -46 -11q-22 -4 -65 -2q-30 2 -53 9q-31 11 -63 42q-2 3 -4 5q-20 23 -23 79q-1 11 0 17q4 24 7 31l23 65l19 40
q19 42 62 70q15 10 27 13q15 4 73 2h4q2 2 -1 21q-3 12 -1 14q4 7 42 7h6zM178 375q-22 -11 -46 -42q-3 -3 -4 -5l-14 -22q-10 -19 -17 -39q-17 -51 -23 -99q-1 -9 4 -24q6 -20 35 -39q3 -2 6 -3q28 -14 67 -15q6 0 14 -1q29 0 49 5q15 4 28 13q9 6 7 31l-7 70q-1 29 -5 47
t-5 36q-2 19 -8 48q-7 30 -7 32q0 6 -21 13q-5 2 -7 2q-22 1 -29 -1q-7 -3 -17 -7z" />
    <glyph glyph-name="acircumflex" unicode="&#xe2;" horiz-adv-x="384" 
d="M165.048 612.253q4.58008 1.78516 9.15918 0.594727q4.58008 -1.18945 6.86914 -1.18945q5.15234 0 6.87012 -8.33008q0 -5.94922 56.0996 -64.2559q33.7744 -35.1035 34.9189 -38.6738q0 -4.16406 -8.01367 -8.3291q-9.15918 -6.54492 -9.73145 -7.73535
q-2.29004 -2.37891 -8.01465 -1.78418t-9.15918 7.13965q-4.00684 7.73438 -9.15918 12.4941l-20.0361 24.9883q-13.166 17.8496 -16.6006 21.4199q-1.14453 1.18945 -8.01465 10.709q-12.5938 16.0645 -16.6006 16.0645q-2.29004 0.594727 -24.6152 -24.9893
q-4.00781 -4.75977 -4.58008 -5.94922q0 -1.19043 -7.44141 -8.9248q-6.29688 -6.54492 -13.166 -17.2539q-10.3047 -16.6592 -17.7461 -25.584q-2.29004 -2.97461 -7.44238 -0.594727l-18.3184 14.2793q-0.572266 1.18945 -1.14453 1.78418l-3.43457 5.35547
l8.58691 13.0889q10.876 17.2549 16.6006 24.3936l13.7393 19.0391l14.3105 18.4443q9.73145 10.1143 12.0215 16.0645q2.8623 5.9502 11.4492 5.9502q11.4492 1.18945 12.5938 1.78418zM288 458q3 -2 4 -10q1 -32 7 -69q6 -38 10 -70q5 -36 14 -81q2 -8 12 -120
q2 -13 9 -39q11 -42 8 -47q-1 -3 -10 -4q-42 -9 -46 -6q-4 4 -2 15q3 11 0 21q-3 9 -6 9q-2 1 -7 -1q-20 -8 -46 -11q-22 -4 -65 -2q-30 2 -53 9q-31 11 -63 42q-2 3 -4 5q-20 23 -23 79q-1 11 0 17q4 24 7 31l23 65l19 40q19 42 62 70q15 10 27 13q15 4 73 2h4q2 2 -1 21
q-3 12 -1 14q4 7 42 7h6zM178 375q-22 -11 -46 -42q-3 -3 -4 -5l-14 -22q-10 -19 -17 -39q-17 -51 -23 -99q-1 -9 4 -24q6 -20 35 -39q3 -2 6 -3q28 -14 67 -15q6 0 14 -1q29 0 49 5q15 4 28 13q9 6 7 31l-7 70q-1 29 -5 47t-5 36q-2 19 -8 48q-7 30 -7 32q0 6 -21 13
q-5 2 -7 2q-22 1 -29 -1q-7 -3 -17 -7z" />
    <glyph glyph-name="atilde" unicode="&#xe3;" horiz-adv-x="384" 
d="M124.393 583.952q14.2588 4.21973 32.1973 1.05469q1.37988 0 2.2998 -0.527344q7.81934 -2.11035 15.6387 -10.5498q1.83984 -2.10938 3.21973 -2.10938q0.919922 0 0 -1.05469q-0.459961 -1.05469 2.75977 -3.69238l5.97949 -5.80176q3.21973 -2.6377 6.89941 -5.27539
q3.67969 -2.63672 7.35938 -5.80176q10.1191 -8.9668 23.458 -14.7695q9.19922 -3.69238 24.3779 3.69238q11.0391 5.27539 15.6387 11.0771q4.59961 5.27441 5.97949 5.27441q0.919922 0 7.81934 7.38477t9.65918 9.49414q2.75977 2.6377 3.21973 4.74707
q1.83984 5.27441 10.1191 0.527344q7.81934 -4.21973 10.5791 -8.43945q1.37988 -2.10938 -4.13965 -12.1318q-7.81934 -13.7139 -22.0781 -27.9551q-2.75977 -3.16504 -3.21973 -3.16504q-0.919922 0 -6.43945 -5.27441q-5.05957 -5.80273 -5.05957 -5.27441
q0 0.527344 -3.21973 -1.58301q-2.75977 -2.63672 -9.65918 -6.3291l-11.959 -6.33008q-5.05957 -2.63672 -15.1787 -3.69238q-9.65918 -1.05469 -15.6387 3.16504q-5.51953 3.69238 -6.89941 3.69238q-0.919922 0 -5.51953 3.69238q-4.59961 4.21973 -5.97949 4.21973
t-2.75977 1.58203q-0.919922 1.58301 -5.97949 4.74707q-5.05957 3.16504 -9.19922 7.38477t-11.499 7.91211t-7.81934 4.74707q-3.21973 5.27441 -22.5381 8.43945q-4.13965 0.527344 -6.43945 0.527344q-9.19922 0 -22.998 -10.0215q-4.59961 -3.69238 -5.51953 -3.69238
q-2.2998 0 -15.1787 -13.7139l-1.37988 -1.58301q-0.459961 -1.58203 -1.37988 -0.527344q-1.37988 1.05566 -11.499 -13.1865q-2.2998 -3.69238 -3.21973 -5.80176q-1.83984 -4.21973 -5.97949 -4.21973q-4.13965 -0.527344 -5.97949 3.16406
q-1.37988 3.69238 -4.13965 4.74805q-4.13965 1.05469 -5.05957 7.91211q-0.459961 2.10938 0 3.16406q1.37988 1.58301 1.37988 3.16504q0 3.16504 7.35938 10.0215q2.2998 1.58301 2.75977 1.58301q0.919922 0 0.919922 1.05469q0 2.6377 14.2588 17.4062
q2.75977 3.16504 3.21973 3.16504q1.37988 0 7.35938 6.85645q5.97949 6.85742 9.65918 10.0225q12.8789 11.0771 29.4375 16.8789zM288 458q3 -2 4 -10q1 -32 7 -69q6 -38 10 -70q5 -36 14 -81q2 -8 12 -120q2 -13 9 -39q11 -42 8 -47q-1 -3 -10 -4q-42 -9 -46 -6
q-4 4 -2 15q3 11 0 21q-3 9 -6 9q-2 1 -7 -1q-20 -8 -46 -11q-22 -4 -65 -2q-30 2 -53 9q-31 11 -63 42q-2 3 -4 5q-20 23 -23 79q-1 11 0 17q4 24 7 31l23 65l19 40q19 42 62 70q15 10 27 13q15 4 73 2h4q2 2 -1 21q-3 12 -1 14q4 7 42 7h6zM178 375q-22 -11 -46 -42
q-3 -3 -4 -5l-14 -22q-10 -19 -17 -39q-17 -51 -23 -99q-1 -9 4 -24q6 -20 35 -39q3 -2 6 -3q28 -14 67 -15q6 0 14 -1q29 0 49 5q15 4 28 13q9 6 7 31l-7 70q-1 29 -5 47t-5 36q-2 19 -8 48q-7 30 -7 32q0 6 -21 13q-5 2 -7 2q-22 1 -29 -1q-7 -3 -17 -7z" />
    <glyph glyph-name="adieresis" unicode="&#xe4;" horiz-adv-x="384" 
d="M252.15 531.044q-2.31348 12.6826 4.86133 33.623q2.98242 8.4873 27.3652 7.05762q14.0977 -0.495117 23.6953 -5.9873q11.7129 -7.28418 14.2432 -13.1006l3.03613 -6.98047q3.48926 -9.85938 -3.55957 -26.7949q-2.31348 -4.50195 -4.0127 -6.73242
q-7.32031 -8.33496 -24.6719 -7.72559q-10.3027 0.361328 -21.4902 7.05566q-17.0811 9.19141 -19.4668 19.585zM95.4805 537.691q-1.82617 10.9473 5.47656 18.709q11.7842 12.1875 21.1465 16.4414q8.73047 1.41113 23.1357 -6.54102q2.13281 -1.21973 3.18066 -2.40234
q1.57227 -1.77344 5.11523 -9.91699q7.55566 -18.5938 -1.01172 -32.04q-7.87988 -8.8877 -16.0137 -8.60156q-18.4727 -0.49707 -20.0264 1.84863q-0.506836 1.16309 -5.82031 4.78613q-11.1699 7.26562 -15.1826 17.7168zM288 458q3 -2 4 -10q1 -32 7 -69q6 -38 10 -70
q5 -36 14 -81q2 -8 12 -120q2 -13 9 -39q11 -42 8 -47q-1 -3 -10 -4q-42 -9 -46 -6q-4 4 -2 15q3 11 0 21q-3 9 -6 9q-2 1 -7 -1q-20 -8 -46 -11q-22 -4 -65 -2q-30 2 -53 9q-31 11 -63 42q-2 3 -4 5q-20 23 -23 79q-1 11 0 17q4 24 7 31l23 65l19 40q19 42 62 70
q15 10 27 13q15 4 73 2h4q2 2 -1 21q-3 12 -1 14q4 7 42 7h6zM178 375q-22 -11 -46 -42q-3 -3 -4 -5l-14 -22q-10 -19 -17 -39q-17 -51 -23 -99q-1 -9 4 -24q6 -20 35 -39q3 -2 6 -3q28 -14 67 -15q6 0 14 -1q29 0 49 5q15 4 28 13q9 6 7 31l-7 70q-1 29 -5 47t-5 36
q-2 19 -8 48q-7 30 -7 32q0 6 -21 13q-5 2 -7 2q-22 1 -29 -1q-7 -3 -17 -7z" />
    <glyph glyph-name="aring" unicode="&#xe5;" horiz-adv-x="384" 
d="M218.019 604.058q22.7227 -2.08496 27.7715 -5.55957q12.624 -9.03418 16.1582 -19.8057q4.54492 -14.5938 4.04004 -40.3066v-3.47461q-3.53516 -29.1885 -5.0498 -34.0527q-4.54395 -12.5088 -7.57422 -16.3311q-13.6328 -20.1533 -23.7324 -26.0605
q-6.56348 -3.82227 -14.1377 -6.25488l-10.6045 -2.43262l-12.623 -0.34668q-13.6338 0.694336 -21.208 3.12695q-15.6533 5.21191 -28.7812 15.9834q-8.58496 7.29688 -12.624 28.1455v3.12793q-0.504883 10.0762 2.52441 28.4922q3.03027 18.0684 10.6045 29.1875
q1.51465 2.78027 4.03906 6.9502q12.624 22.2383 27.2666 31.2725q11.6143 7.29688 23.7324 8.68652q9.08984 1.04199 20.1982 -0.347656zM218.019 587.031q-6.56445 1.73828 -14.6436 -1.38965q-12.623 -4.5166 -20.7031 -12.8564q-8.07812 -7.64453 -7.57324 -7.29688
q-5.55469 -6.25488 -12.624 -17.7207q-3.53418 -6.60254 -3.53418 -17.7217q0 -36.832 2.01953 -43.4336q2.01953 -5.90723 5.55371 -9.72949q11.6143 -12.8564 28.2773 -12.5088q21.208 0.694336 38.376 23.9756q0.504883 0.694336 1.00977 1.7373
q6.05957 8.68652 7.57422 15.9834q1.51465 10.0771 1.00977 30.2305q0 9.38184 -5.55469 22.9326l-2.52441 10.4248q-1.00977 5.21191 -9.08887 13.2041q-0.504883 0.694336 -1.00977 1.38965q-2.52539 1.7373 -6.56445 2.7793zM288 458q3 -2 4 -10q1 -32 7 -69
q6 -38 10 -70q5 -36 14 -81q2 -8 12 -120q2 -13 9 -39q11 -42 8 -47q-1 -3 -10 -4q-42 -9 -46 -6q-4 4 -2 15q3 11 0 21q-3 9 -6 9q-2 1 -7 -1q-20 -8 -46 -11q-22 -4 -65 -2q-30 2 -53 9q-31 11 -63 42q-2 3 -4 5q-20 23 -23 79q-1 11 0 17q4 24 7 31l23 65l19 40
q19 42 62 70q15 10 27 13q15 4 73 2h4q2 2 -1 21q-3 12 -1 14q4 7 42 7h6zM178 375q-22 -11 -46 -42q-3 -3 -4 -5l-14 -22q-10 -19 -17 -39q-17 -51 -23 -99q-1 -9 4 -24q6 -20 35 -39q3 -2 6 -3q28 -14 67 -15q6 0 14 -1q29 0 49 5q15 4 28 13q9 6 7 31l-7 70q-1 29 -5 47
t-5 36q-2 19 -8 48q-7 30 -7 32q0 6 -21 13q-5 2 -7 2q-22 1 -29 -1q-7 -3 -17 -7z" />
    <glyph glyph-name="ae" unicode="&#xe6;" horiz-adv-x="656" 
d="M442 440q35 15 69 5q16 -5 32 -21t19 -22q12 -27 16 -44q12 -54 13 -64v-21q-1 -11 -2 -11q-18 -7 -41 -10q-33 -4 -34 -5l-49 -11l-87 -25l-19 -6l-3 -3q-5 -5 6 -40q8 -30 25 -46q34 -33 64 -40q25 -6 57 -2q61 6 78 16q4 2 15 7q8 4 11 4q6 0 13 -14l15 -28
q2 -5 -15 -13q-36 -17 -107 -26q-29 -3 -78 5q-21 3 -28 6q-46 23 -60 35q-16 14 -37 55q-4 9 -7 15q-12 23 -15 57q-3 44 8 76q11 33 16 42q6 11 14 23q45 68 83 92q13 7 28 14zM491 398q-21 9 -39 3q-51 -24 -81 -89q-10 -22 -13 -26q-6 -11 -5 -38q3 0 63 18q11 3 46 11
l71 19h1q5 0 6 6q1 26 -10 46q-23 41 -32 46q-2 2 -7 4zM288 458q3 -2 4 -10q1 -32 7 -69q6 -38 10 -70q5 -36 14 -81q2 -8 12 -120q2 -13 9 -39q11 -42 8 -47q-1 -3 -10 -4q-42 -9 -46 -6q-4 4 -2 15q3 11 0 21q-3 9 -6 9q-2 1 -7 -1q-20 -8 -46 -11q-22 -4 -65 -2
q-30 2 -53 9q-31 11 -63 42q-2 3 -4 5q-20 23 -23 79q-1 11 0 17q4 24 7 31l23 65l19 40q19 42 62 70q15 10 27 13q15 4 73 2h4q2 2 -1 21q-3 12 -1 14q4 7 42 7h6zM178 375q-22 -11 -46 -42q-3 -3 -4 -5l-14 -22q-10 -19 -17 -39q-17 -51 -23 -99q-1 -9 4 -24q6 -20 35 -39
q3 -2 6 -3q28 -14 67 -15q6 0 14 -1q29 0 49 5q15 4 28 13q9 6 7 31l-7 70q-1 29 -5 47t-5 36q-2 19 -8 48q-7 30 -7 32q0 6 -21 13q-5 2 -7 2q-22 1 -29 -1q-7 -3 -17 -7z" />
    <glyph glyph-name="ccedilla" unicode="&#xe7;" horiz-adv-x="377" 
d="M172 53q3 6 7 4q12 -6 46 -6q22 1 27 -4q8 -7 -2 -21q-8 -11 -15 -42q-5 -37 -30 -83q-6 -11 -10 -13q-8 -4 -44 -2q-7 1 -7 2l-2 4q0 3 14 61q7 31 12 83q1 12 4 17zM158 464q29 8 85 -2q10 -2 17 -5l20 -5q3 -2 -1 -34q-1 -14 -5 -16q-2 0 -34 8q-45 10 -69 -3
q-54 -29 -75 -99q-10 -34 -12 -76q-2 -35 3 -58q5 -21 25 -50q15 -23 49 -38q10 -5 28 -9q23 -6 42 -3q21 2 37 12q11 5 42 37q5 8 13 4q23 -11 23 -20q0 -17 -39 -46q-7 -5 -13 -9q-34 -22 -88 -22q-31 -1 -56 6q-43 12 -72 42l-4 4q-16 23 -35 71q-11 26 -11 76
q-2 35 8 84q7 23 9 26q3 7 13 29q18 38 43 60q34 29 57 36z" />
    <glyph glyph-name="egrave" unicode="&#xe8;" horiz-adv-x="384" 
d="M174 456q35 15 69 5q16 -5 32 -21t19 -22q12 -27 16 -44q12 -54 13 -64v-21q-1 -11 -2 -11q-18 -7 -41 -10q-33 -4 -34 -5l-49 -11l-87 -25l-19 -6l-3 -3q-5 -5 6 -40q8 -30 25 -46q34 -33 64 -40q25 -6 57 -2q61 6 78 16q4 2 15 7q8 4 11 4q6 0 13 -14l15 -28
q2 -5 -15 -13q-36 -17 -107 -26q-29 -3 -78 5q-21 3 -28 6q-46 23 -60 35q-16 14 -37 55q-4 9 -7 15q-12 23 -15 57q-3 44 8 76q11 33 16 42q6 11 14 23q45 68 83 92q13 7 28 14zM223 414q-21 9 -39 3q-51 -24 -81 -89q-10 -22 -13 -26q-6 -11 -5 -38q3 0 63 18q11 3 46 11
l71 19h1q5 0 6 6q1 26 -10 46q-23 41 -32 46q-2 2 -7 4zM204.525 545.769q17.2461 -12.3301 15.8838 -17.2852q-0.998047 -2.79102 -7.35938 -10.2998q-6.36035 -7.50879 -8.62402 -11.5557q-3.19629 -4.37109 -6.92969 -5.66992q-4.03223 -0.995117 -17.8789 11.7021
q-67.5977 66.9102 -89.4775 78.8496q-51.3301 28.9834 -56.2734 40.2988q1.66211 4.65137 18.7822 22.8291q2.23145 2.81348 3.16406 3.1377q9.06445 4.7832 31.415 -12.6953l33.5264 -26.2168q13.3096 -9.62598 45.2051 -39.2627q26.791 -24.4873 38.5664 -33.832z" />
    <glyph glyph-name="eacute" unicode="&#xe9;" horiz-adv-x="384" 
d="M174 456q35 15 69 5q16 -5 32 -21t19 -22q12 -27 16 -44q12 -54 13 -64v-21q-1 -11 -2 -11q-18 -7 -41 -10q-33 -4 -34 -5l-49 -11l-87 -25l-19 -6l-3 -3q-5 -5 6 -40q8 -30 25 -46q34 -33 64 -40q25 -6 57 -2q61 6 78 16q4 2 15 7q8 4 11 4q6 0 13 -14l15 -28
q2 -5 -15 -13q-36 -17 -107 -26q-29 -3 -78 5q-21 3 -28 6q-46 23 -60 35q-16 14 -37 55q-4 9 -7 15q-12 23 -15 57q-3 44 8 76q11 33 16 42q6 11 14 23q45 68 83 92q13 7 28 14zM223 414q-21 9 -39 3q-51 -24 -81 -89q-10 -22 -13 -26q-6 -11 -5 -38q3 0 63 18q11 3 46 11
l71 19h1q5 0 6 6q1 26 -10 46q-23 41 -32 46q-2 2 -7 4zM334.164 627.814q17.4795 11.9932 21.6699 9.01953q2.2832 -1.8916 7.16602 -10.4365q4.88281 -8.54395 7.91211 -12.0547q3.01562 -4.49805 2.96094 -8.4502q-0.441406 -4.12988 -17.1055 -12.8027
q-85.9727 -40.6621 -104.668 -57.1436q-44.7754 -38.3359 -57.0977 -39.1143q-3.80371 3.15234 -15.0371 25.4551q-1.88086 3.05762 -1.86719 4.0459q-1.39844 10.1533 22.6621 25.1846l36.0928 22.5479q13.5928 9.21973 52.3408 29.0664q32.166 16.8086 44.9707 24.6826z
" />
    <glyph glyph-name="ecircumflex" unicode="&#xea;" horiz-adv-x="384" 
d="M174 456q35 15 69 5q16 -5 32 -21t19 -22q12 -27 16 -44q12 -54 13 -64v-21q-1 -11 -2 -11q-18 -7 -41 -10q-33 -4 -34 -5l-49 -11l-87 -25l-19 -6l-3 -3q-5 -5 6 -40q8 -30 25 -46q34 -33 64 -40q25 -6 57 -2q61 6 78 16q4 2 15 7q8 4 11 4q6 0 13 -14l15 -28
q2 -5 -15 -13q-36 -17 -107 -26q-29 -3 -78 5q-21 3 -28 6q-46 23 -60 35q-16 14 -37 55q-4 9 -7 15q-12 23 -15 57q-3 44 8 76q11 33 16 42q6 11 14 23q45 68 83 92q13 7 28 14zM223 414q-21 9 -39 3q-51 -24 -81 -89q-10 -22 -13 -26q-6 -11 -5 -38q3 0 63 18q11 3 46 11
l71 19h1q5 0 6 6q1 26 -10 46q-23 41 -32 46q-2 2 -7 4zM165.048 612.253q4.58008 1.78516 9.15918 0.594727q4.58008 -1.18945 6.86914 -1.18945q5.15234 0 6.87012 -8.33008q0 -5.94922 56.0996 -64.2559q33.7744 -35.1035 34.9189 -38.6738q0 -4.16406 -8.01367 -8.3291
q-9.15918 -6.54492 -9.73145 -7.73535q-2.29004 -2.37891 -8.01465 -1.78418t-9.15918 7.13965q-4.00684 7.73438 -9.15918 12.4941l-20.0361 24.9883q-13.166 17.8496 -16.6006 21.4199q-1.14453 1.18945 -8.01465 10.709q-12.5938 16.0645 -16.6006 16.0645
q-2.29004 0.594727 -24.6152 -24.9893q-4.00781 -4.75977 -4.58008 -5.94922q0 -1.19043 -7.44141 -8.9248q-6.29688 -6.54492 -13.166 -17.2539q-10.3047 -16.6592 -17.7461 -25.584q-2.29004 -2.97461 -7.44238 -0.594727l-18.3184 14.2793
q-0.572266 1.18945 -1.14453 1.78418l-3.43457 5.35547l8.58691 13.0889q10.876 17.2549 16.6006 24.3936l13.7393 19.0391l14.3105 18.4443q9.73145 10.1143 12.0215 16.0645q2.8623 5.9502 11.4492 5.9502q11.4492 1.18945 12.5938 1.78418z" />
    <glyph glyph-name="edieresis" unicode="&#xeb;" horiz-adv-x="384" 
d="M174 456q35 15 69 5q16 -5 32 -21t19 -22q12 -27 16 -44q12 -54 13 -64v-21q-1 -11 -2 -11q-18 -7 -41 -10q-33 -4 -34 -5l-49 -11l-87 -25l-19 -6l-3 -3q-5 -5 6 -40q8 -30 25 -46q34 -33 64 -40q25 -6 57 -2q61 6 78 16q4 2 15 7q8 4 11 4q6 0 13 -14l15 -28
q2 -5 -15 -13q-36 -17 -107 -26q-29 -3 -78 5q-21 3 -28 6q-46 23 -60 35q-16 14 -37 55q-4 9 -7 15q-12 23 -15 57q-3 44 8 76q11 33 16 42q6 11 14 23q45 68 83 92q13 7 28 14zM223 414q-21 9 -39 3q-51 -24 -81 -89q-10 -22 -13 -26q-6 -11 -5 -38q3 0 63 18q11 3 46 11
l71 19h1q5 0 6 6q1 26 -10 46q-23 41 -32 46q-2 2 -7 4zM252.15 531.044q-2.31348 12.6826 4.86133 33.623q2.98242 8.4873 27.3652 7.05762q14.0977 -0.495117 23.6953 -5.9873q11.7129 -7.28418 14.2432 -13.1006l3.03613 -6.98047q3.48926 -9.85938 -3.55957 -26.7949
q-2.31348 -4.50195 -4.0127 -6.73242q-7.32031 -8.33496 -24.6719 -7.72559q-10.3027 0.361328 -21.4902 7.05566q-17.0811 9.19141 -19.4668 19.585zM95.4805 537.691q-1.82617 10.9473 5.47656 18.709q11.7842 12.1875 21.1465 16.4414q8.73047 1.41113 23.1357 -6.54102
q2.13281 -1.21973 3.18066 -2.40234q1.57227 -1.77344 5.11523 -9.91699q7.55566 -18.5938 -1.01172 -32.04q-7.87988 -8.8877 -16.0137 -8.60156q-18.4727 -0.49707 -20.0264 1.84863q-0.506836 1.16309 -5.82031 4.78613q-11.1699 7.26562 -15.1826 17.7168z" />
    <glyph glyph-name="igrave" unicode="&#xec;" horiz-adv-x="231" 
d="M125 430q5 4 25 3l18 -1q19 0 20 -2l-4 -173q1 -40 -2 -82q-1 -10 -2 -27v-44v-32q0 -30 -2 -32q-2 -1 -11 0l-44 -2q-3 0 -5 2q-5 10 0 22q4 5 2 168q-1 192 5 200zM179 526q17 -12 16 -17q-1 -2 -7 -11q-7 -7 -9 -11q-3 -4 -7 -6q-4 -1 -18 12q-68 67 -89 79
q-50 28 -57 40l22 26q9 5 32 -13l33 -26q14 -9 45 -39q27 -25 39 -34z" />
    <glyph glyph-name="iacute" unicode="&#xed;" horiz-adv-x="269" 
d="M38 429q5 4 25 3l17 -1q20 0 20 -3l-3 -172q1 -40 -2 -82q-1 -10 -1 -28l-1 -43q-1 -10 -1 -32q0 -30 -1 -31q-2 -2 -11 -1l-44 -2q-3 0 -4 3q-6 9 -1 21q4 5 2 168q-1 192 5 200zM200 590q18 13 22 8q2 -2 7 -10t8 -12t3 -8q-1 -4 -17 -13q-86 -41 -105 -57
q-44 -37 -57 -39l-17 29q-1 10 23 26l36 22q13 9 52 29q32 17 45 25z" />
    <glyph glyph-name="icircumflex" unicode="&#xee;" horiz-adv-x="271" 
d="M100 429q5 4 25 3l17 -1q20 0 20 -3l-3 -172q1 -40 -2 -82q-1 -10 -1 -28l-1 -43q-1 -10 -1 -32q0 -30 -1 -31q-2 -2 -11 -1l-44 -2q-3 0 -4 3q-6 9 -1 21q4 5 2 168q-1 192 5 200zM128 597q4 1 9 0q4 -1 7 -1q6 0 6 -8q0 -6 57 -65q33 -35 34 -38q0 -4 -8 -9
q-9 -6 -9 -7q-3 -3 -8 -2q-6 1 -9 7q-5 7 -10 12l-20 25q-13 18 -16 22q-1 1 -8 11q-13 16 -17 16q-3 1 -26 -27q-3 -3 -3 -4t-8 -9q-6 -7 -13 -17q-10 -17 -17 -26q-3 -3 -8 -1q0 1 -19 16l-4 6l9 13q11 17 16 24l14 19l14 19q10 10 12 16q4 6 12 6q11 1 13 2z" />
    <glyph glyph-name="idieresis" unicode="&#xef;" horiz-adv-x="291" 
d="M102 426q6 5 26 4l17 -2q19 0 20 -2l-4 -144q0 -15 1 -29q0 -10 -3 -83q-1 -13 -1 -26v-44q-1 -9 -1 -32q0 -29 -1 -31q-2 -2 -12 -1l-43 -2q-4 1 -5 3q-5 10 -1 21q4 6 3 169q-2 192 4 199zM182 492q-2 14 5 34q3 8 28 7q14 -1 23 -7q12 -7 14 -13l3 -7q5 -12 -5 -29
q-1 -3 -2 -4q-7 -8 -25 -8q-10 1 -21 7q-18 10 -20 20zM26 498q-2 12 5 19q15 16 21 17q11 1 26 -9q2 -2 6 -10q8 -22 -1 -32q-8 -9 -17 -9q-18 0 -19 2q-1 1 -6 5q-14 9 -15 17z" />
    <glyph glyph-name="eth" unicode="&#xf0;" 
 />
    <glyph glyph-name="ntilde" unicode="&#xf1;" horiz-adv-x="336" 
d="M108.393 601.952q14.2588 4.21973 32.1973 1.05469q1.37988 0 2.2998 -0.527344q7.81934 -2.11035 15.6387 -10.5498q1.83984 -2.10938 3.21973 -2.10938q0.919922 0 0 -1.05469q-0.459961 -1.05469 2.75977 -3.69238l5.97949 -5.80176q3.21973 -2.6377 6.89941 -5.27539
q3.67969 -2.63672 7.35938 -5.80176q10.1191 -8.9668 23.458 -14.7695q9.19922 -3.69238 24.3779 3.69238q11.0391 5.27539 15.6387 11.0771q4.59961 5.27441 5.97949 5.27441q0.919922 0 7.81934 7.38477t9.65918 9.49414q2.75977 2.6377 3.21973 4.74707
q1.83984 5.27441 10.1191 0.527344q7.81934 -4.21973 10.5791 -8.43945q1.37988 -2.10938 -4.13965 -12.1318q-7.81934 -13.7139 -22.0781 -27.9551q-2.75977 -3.16504 -3.21973 -3.16504q-0.919922 0 -6.43945 -5.27441q-5.05957 -5.80273 -5.05957 -5.27441
q0 0.527344 -3.21973 -1.58301q-2.75977 -2.63672 -9.65918 -6.3291l-11.959 -6.33008q-5.05957 -2.63672 -15.1787 -3.69238q-9.65918 -1.05469 -15.6387 3.16504q-5.51953 3.69238 -6.89941 3.69238q-0.919922 0 -5.51953 3.69238q-4.59961 4.21973 -5.97949 4.21973
t-2.75977 1.58203q-0.919922 1.58301 -5.97949 4.74707q-5.05957 3.16504 -9.19922 7.38477t-11.499 7.91211t-7.81934 4.74707q-3.21973 5.27441 -22.5381 8.43945q-4.13965 0.527344 -6.43945 0.527344q-9.19922 0 -22.998 -10.0215q-4.59961 -3.69238 -5.51953 -3.69238
q-2.2998 0 -15.1787 -13.7139l-1.37988 -1.58301q-0.459961 -1.58203 -1.37988 -0.527344q-1.37988 1.05566 -11.499 -13.1865q-2.2998 -3.69238 -3.21973 -5.80176q-1.83984 -4.21973 -5.97949 -4.21973q-4.13965 -0.527344 -5.97949 3.16406
q-1.37988 3.69238 -4.13965 4.74805q-4.13965 1.05469 -5.05957 7.91211q-0.459961 2.10938 0 3.16406q1.37988 1.58301 1.37988 3.16504q0 3.16504 7.35938 10.0215q2.2998 1.58301 2.75977 1.58301q0.919922 0 0.919922 1.05469q0 2.6377 14.2588 17.4062
q2.75977 3.16504 3.21973 3.16504q1.37988 0 7.35938 6.85645q5.97949 6.85742 9.65918 10.0225q12.8789 11.0771 29.4375 16.8789zM36 471q3 5 36 -1q8 -2 10 -4q7 -6 4 -24q0 -3 -1 -4q-5 -10 2 -27q2 0 22 19q28 28 53 33q21 5 52 2q20 -2 28 -10l4 -4q26 -28 42 -111
q1 -5 1 -10q13 -71 14 -81q0 -11 1 -29q0 -62 -1 -95q-3 -95 -4 -96q-8 -5 -46 1q-6 1 -8 2l-7 3v85q0 64 4 93v13q-3 79 -12 116q-3 15 -5 30q-3 25 -17 45q-14 18 -32 19q-20 2 -47 -21l-4 -4q-10 -11 -13 -11t-28 -31l-1 -82q-1 -76 -4 -88t-1 -33t1 -42q0 -21 3 -40
q6 -37 -12 -42q-3 -1 -6 -1q-15 -2 -21 -3q-5 -2 -9 2q-5 5 -4 85q0 6 3 37v4q0 3 -2 143q4 160 5 162z" />
    <glyph glyph-name="ograve" unicode="&#xf2;" horiz-adv-x="384" 
d="M206 452q45 -6 55 -16q25 -26 32 -57q9 -42 8 -116v-10q-7 -84 -10 -98q-9 -36 -15 -47q-27 -58 -47 -75q-13 -11 -28 -18l-21 -7l-25 -1q-27 2 -42 9q-31 15 -57 46q-17 21 -25 81v9q-1 29 5 82q6 52 21 84q3 8 8 20q25 64 54 90q23 21 47 25q18 3 40 -1zM206 403
q-13 5 -29 -4q-25 -13 -41 -37q-16 -22 -15 -21q-11 -18 -25 -51q-7 -19 -7 -51q0 -106 4 -125q4 -17 11 -28q23 -37 56 -36q42 2 76 69q1 2 2 5q12 25 15 46q3 29 2 87q0 27 -11 66l-5 30q-2 15 -18 38l-2 4q-5 5 -13 8zM204.525 545.769
q17.2461 -12.3301 15.8838 -17.2852q-0.998047 -2.79102 -7.35938 -10.2998q-6.36035 -7.50879 -8.62402 -11.5557q-3.19629 -4.37109 -6.92969 -5.66992q-4.03223 -0.995117 -17.8789 11.7021q-67.5977 66.9102 -89.4775 78.8496q-51.3301 28.9834 -56.2734 40.2988
q1.66211 4.65137 18.7822 22.8291q2.23145 2.81348 3.16406 3.1377q9.06445 4.7832 31.415 -12.6953l33.5264 -26.2168q13.3096 -9.62598 45.2051 -39.2627q26.791 -24.4873 38.5664 -33.832z" />
    <glyph glyph-name="oacute" unicode="&#xf3;" horiz-adv-x="384" 
d="M206 452q45 -6 55 -16q25 -26 32 -57q9 -42 8 -116v-10q-7 -84 -10 -98q-9 -36 -15 -47q-27 -58 -47 -75q-13 -11 -28 -18l-21 -7l-25 -1q-27 2 -42 9q-31 15 -57 46q-17 21 -25 81v9q-1 29 5 82q6 52 21 84q3 8 8 20q25 64 54 90q23 21 47 25q18 3 40 -1zM206 403
q-13 5 -29 -4q-25 -13 -41 -37q-16 -22 -15 -21q-11 -18 -25 -51q-7 -19 -7 -51q0 -106 4 -125q4 -17 11 -28q23 -37 56 -36q42 2 76 69q1 2 2 5q12 25 15 46q3 29 2 87q0 27 -11 66l-5 30q-2 15 -18 38l-2 4q-5 5 -13 8zM334.164 627.814q17.4795 11.9932 21.6699 9.01953
q2.2832 -1.8916 7.16602 -10.4365q4.88281 -8.54395 7.91211 -12.0547q3.01562 -4.49805 2.96094 -8.4502q-0.441406 -4.12988 -17.1055 -12.8027q-85.9727 -40.6621 -104.668 -57.1436q-44.7754 -38.3359 -57.0977 -39.1143q-3.80371 3.15234 -15.0371 25.4551
q-1.88086 3.05762 -1.86719 4.0459q-1.39844 10.1533 22.6621 25.1846l36.0928 22.5479q13.5928 9.21973 52.3408 29.0664q32.166 16.8086 44.9707 24.6826z" />
    <glyph glyph-name="ocircumflex" unicode="&#xf4;" horiz-adv-x="384" 
d="M206 452q45 -6 55 -16q25 -26 32 -57q9 -42 8 -116v-10q-7 -84 -10 -98q-9 -36 -15 -47q-27 -58 -47 -75q-13 -11 -28 -18l-21 -7l-25 -1q-27 2 -42 9q-31 15 -57 46q-17 21 -25 81v9q-1 29 5 82q6 52 21 84q3 8 8 20q25 64 54 90q23 21 47 25q18 3 40 -1zM206 403
q-13 5 -29 -4q-25 -13 -41 -37q-16 -22 -15 -21q-11 -18 -25 -51q-7 -19 -7 -51q0 -106 4 -125q4 -17 11 -28q23 -37 56 -36q42 2 76 69q1 2 2 5q12 25 15 46q3 29 2 87q0 27 -11 66l-5 30q-2 15 -18 38l-2 4q-5 5 -13 8zM165.048 612.253q4.58008 1.78516 9.15918 0.594727
q4.58008 -1.18945 6.86914 -1.18945q5.15234 0 6.87012 -8.33008q0 -5.94922 56.0996 -64.2559q33.7744 -35.1035 34.9189 -38.6738q0 -4.16406 -8.01367 -8.3291q-9.15918 -6.54492 -9.73145 -7.73535q-2.29004 -2.37891 -8.01465 -1.78418t-9.15918 7.13965
q-4.00684 7.73438 -9.15918 12.4941l-20.0361 24.9883q-13.166 17.8496 -16.6006 21.4199q-1.14453 1.18945 -8.01465 10.709q-12.5938 16.0645 -16.6006 16.0645q-2.29004 0.594727 -24.6152 -24.9893q-4.00781 -4.75977 -4.58008 -5.94922q0 -1.19043 -7.44141 -8.9248
q-6.29688 -6.54492 -13.166 -17.2539q-10.3047 -16.6592 -17.7461 -25.584q-2.29004 -2.97461 -7.44238 -0.594727l-18.3184 14.2793q-0.572266 1.18945 -1.14453 1.78418l-3.43457 5.35547l8.58691 13.0889q10.876 17.2549 16.6006 24.3936l13.7393 19.0391
l14.3105 18.4443q9.73145 10.1143 12.0215 16.0645q2.8623 5.9502 11.4492 5.9502q11.4492 1.18945 12.5938 1.78418z" />
    <glyph glyph-name="otilde" unicode="&#xf5;" horiz-adv-x="384" 
d="M206 452q45 -6 55 -16q25 -26 32 -57q9 -42 8 -116v-10q-7 -84 -10 -98q-9 -36 -15 -47q-27 -58 -47 -75q-13 -11 -28 -18l-21 -7l-25 -1q-27 2 -42 9q-31 15 -57 46q-17 21 -25 81v9q-1 29 5 82q6 52 21 84q3 8 8 20q25 64 54 90q23 21 47 25q18 3 40 -1zM206 403
q-13 5 -29 -4q-25 -13 -41 -37q-16 -22 -15 -21q-11 -18 -25 -51q-7 -19 -7 -51q0 -106 4 -125q4 -17 11 -28q23 -37 56 -36q42 2 76 69q1 2 2 5q12 25 15 46q3 29 2 87q0 27 -11 66l-5 30q-2 15 -18 38l-2 4q-5 5 -13 8zM124.393 583.952q14.2588 4.21973 32.1973 1.05469
q1.37988 0 2.2998 -0.527344q7.81934 -2.11035 15.6387 -10.5498q1.83984 -2.10938 3.21973 -2.10938q0.919922 0 0 -1.05469q-0.459961 -1.05469 2.75977 -3.69238l5.97949 -5.80176q3.21973 -2.6377 6.89941 -5.27539q3.67969 -2.63672 7.35938 -5.80176
q10.1191 -8.9668 23.458 -14.7695q9.19922 -3.69238 24.3779 3.69238q11.0391 5.27539 15.6387 11.0771q4.59961 5.27441 5.97949 5.27441q0.919922 0 7.81934 7.38477t9.65918 9.49414q2.75977 2.6377 3.21973 4.74707q1.83984 5.27441 10.1191 0.527344
q7.81934 -4.21973 10.5791 -8.43945q1.37988 -2.10938 -4.13965 -12.1318q-7.81934 -13.7139 -22.0781 -27.9551q-2.75977 -3.16504 -3.21973 -3.16504q-0.919922 0 -6.43945 -5.27441q-5.05957 -5.80273 -5.05957 -5.27441q0 0.527344 -3.21973 -1.58301
q-2.75977 -2.63672 -9.65918 -6.3291l-11.959 -6.33008q-5.05957 -2.63672 -15.1787 -3.69238q-9.65918 -1.05469 -15.6387 3.16504q-5.51953 3.69238 -6.89941 3.69238q-0.919922 0 -5.51953 3.69238q-4.59961 4.21973 -5.97949 4.21973t-2.75977 1.58203
q-0.919922 1.58301 -5.97949 4.74707q-5.05957 3.16504 -9.19922 7.38477t-11.499 7.91211t-7.81934 4.74707q-3.21973 5.27441 -22.5381 8.43945q-4.13965 0.527344 -6.43945 0.527344q-9.19922 0 -22.998 -10.0215q-4.59961 -3.69238 -5.51953 -3.69238
q-2.2998 0 -15.1787 -13.7139l-1.37988 -1.58301q-0.459961 -1.58203 -1.37988 -0.527344q-1.37988 1.05566 -11.499 -13.1865q-2.2998 -3.69238 -3.21973 -5.80176q-1.83984 -4.21973 -5.97949 -4.21973q-4.13965 -0.527344 -5.97949 3.16406
q-1.37988 3.69238 -4.13965 4.74805q-4.13965 1.05469 -5.05957 7.91211q-0.459961 2.10938 0 3.16406q1.37988 1.58301 1.37988 3.16504q0 3.16504 7.35938 10.0215q2.2998 1.58301 2.75977 1.58301q0.919922 0 0.919922 1.05469q0 2.6377 14.2588 17.4062
q2.75977 3.16504 3.21973 3.16504q1.37988 0 7.35938 6.85645q5.97949 6.85742 9.65918 10.0225q12.8789 11.0771 29.4375 16.8789z" />
    <glyph glyph-name="odieresis" unicode="&#xf6;" horiz-adv-x="366" 
d="M206 452q45 -6 55 -16q25 -26 32 -57q9 -42 8 -116v-10q-7 -84 -10 -98q-9 -36 -15 -47q-27 -58 -47 -75q-13 -11 -28 -18l-21 -7l-25 -1q-27 2 -42 9q-31 15 -57 46q-17 21 -25 81v9q-1 29 5 82q6 52 21 84q3 8 8 20q25 64 54 90q23 21 47 25q18 3 40 -1zM206 403
q-13 5 -29 -4q-25 -13 -41 -37q-16 -22 -15 -21q-11 -18 -25 -51q-7 -19 -7 -51q0 -106 4 -125q4 -17 11 -28q23 -37 56 -36q42 2 76 69q1 2 2 5q12 25 15 46q3 29 2 87q0 27 -11 66l-5 30q-2 15 -18 38l-2 4q-5 5 -13 8zM252.15 531.044q-2.31348 12.6826 4.86133 33.623
q2.98242 8.4873 27.3652 7.05762q14.0977 -0.495117 23.6953 -5.9873q11.7129 -7.28418 14.2432 -13.1006l3.03613 -6.98047q3.48926 -9.85938 -3.55957 -26.7949q-2.31348 -4.50195 -4.0127 -6.73242q-7.32031 -8.33496 -24.6719 -7.72559
q-10.3027 0.361328 -21.4902 7.05566q-17.0811 9.19141 -19.4668 19.585zM95.4805 537.691q-1.82617 10.9473 5.47656 18.709q11.7842 12.1875 21.1465 16.4414q8.73047 1.41113 23.1357 -6.54102q2.13281 -1.21973 3.18066 -2.40234q1.57227 -1.77344 5.11523 -9.91699
q7.55566 -18.5938 -1.01172 -32.04q-7.87988 -8.8877 -16.0137 -8.60156q-18.4727 -0.49707 -20.0264 1.84863q-0.506836 1.16309 -5.82031 4.78613q-11.1699 7.26562 -15.1826 17.7168z" />
    <glyph glyph-name="divide" unicode="&#xf7;" horiz-adv-x="476" 
d="M223 332q22 5 59 -7q15 -5 14 -50q0 -26 -9 -44q-12 -22 -22 -27l-12 -6q-17 -7 -47 5q-8 4 -12 7q-15 13 -15 45q0 19 11 40q15 32 33 37zM225 621q19 4 33 -9q22 -21 30 -38q3 -16 -10 -43q-2 -4 -4 -6q-3 -3 -17 -10q-32 -15 -56 0q-16 14 -16 29q-2 34 2 37q2 1 8 11
q12 21 30 29zM369 461q5 2 11 1q7 -1 25 -2t22 -1q10 0 14 -23q0 -4 1 -7q0 -13 3 -27q4 -17 -5 -19q-5 -2 -20 -1q-20 2 -35 2q-28 2 -35 1l-249 -2h-6q-5 1 -24 0l-31 -3q-3 1 -4 4l-10 51q0 7 13 15q6 2 79 2q73 1 77 3q10 3 137 4q31 0 37 2z" />
    <glyph glyph-name="oslash" unicode="&#xf8;" horiz-adv-x="331" 
d="M255.194 491.741q6.8623 7.22949 26.5908 -3.21289q13.7246 -7.22949 22.3027 -9.63965t10.2939 -7.22949q0.857422 -4.0166 2.57324 -7.22949l-10.2939 -20.082q-5.14648 -6.42676 -5.14648 -8.83594q0 -5.62305 -12.8662 -23.2959
q-1.71582 -0.802734 -10.2939 -21.6885q-9.43555 -23.2949 -50.6094 -102.82q-15.4404 -30.5244 -15.4404 -31.3281l-30.0225 -56.2295q-1.71582 -0.803711 -1.71582 -3.21289q0 -3.21387 -1.71484 -3.21387q-1.71582 0 -7.7207 -12.0488
q-23.1602 -47.3936 -24.876 -55.4268q-1.71582 -4.81934 -11.1514 -26.5078q-8.57715 -20.8857 -12.0088 -28.9189q-3.43066 -8.83594 -11.1514 -24.0986q-7.71973 -15.2617 -21.4443 -51.4102q-12.8672 -36.1475 -16.2979 -38.5576q-3.43164 -2.40918 -3.43164 -4.01562
q0 -1.60742 -6.00391 -4.0166q-5.14746 -2.41016 -20.5869 4.0166q-15.4404 7.22949 -18.0137 7.22949q-5.14746 0 -3.43164 12.8525q0.858398 4.81934 2.57324 6.42578q2.57422 0.803711 7.7207 12.8525q6.00391 11.2461 9.43555 16.8691q3.43066 5.62305 10.293 24.0986
q32.5967 89.1641 43.748 104.427q3.43066 4.0166 3.43066 9.63965t1.71582 8.03223q1.71484 1.60645 9.43555 19.2793q7.71973 18.4756 9.43555 18.4756q1.71582 0.802734 1.71582 3.21289t3.43066 5.62305q3.43164 3.21289 13.7246 28.918q10.2939 24.9023 12.8672 29.7217
q3.43066 4.81934 3.43066 7.22949t12.8672 28.1152q27.4492 57.8359 63.4766 144.591q0 3.21289 2.57324 4.0166q1.71582 0.802734 5.14648 12.0488q8.57812 28.9189 15.4404 35.3447zM206 452q45 -6 55 -16q25 -26 32 -57q9 -42 8 -116v-10q-7 -84 -10 -98q-9 -36 -15 -47
q-27 -58 -47 -75q-13 -11 -28 -18l-21 -7l-25 -1q-27 2 -42 9q-31 15 -57 46q-17 21 -25 81v9q-1 29 5 82q6 52 21 84q3 8 8 20q25 64 54 90q23 21 47 25q18 3 40 -1zM206 403q-13 5 -29 -4q-25 -13 -41 -37q-16 -22 -15 -21q-11 -18 -25 -51q-7 -19 -7 -51q0 -106 4 -125
q4 -17 11 -28q23 -37 56 -36q42 2 76 69q1 2 2 5q12 25 15 46q3 29 2 87q0 27 -11 66l-5 30q-2 15 -18 38l-2 4q-5 5 -13 8z" />
    <glyph glyph-name="ugrave" unicode="&#xf9;" horiz-adv-x="384" 
d="M38 435q10 4 27 1l21 -3q5 -3 6 -134q0 -142 2 -150q2 -16 12 -31q18 -24 41 -30l20 -5q8 -2 49 17q18 7 38 42q3 5 5 10l20 49q5 12 -3 105v6q-3 29 -6 67t-3 42q-1 9 43 8q14 0 15 -2q1 -1 0 -13q-1 -6 -1 -15q0 -19 3 -37q2 -19 5 -59l6 -117l13 -85l20 -88v-1
q-1 -4 -22 -4q-3 0 -5 -1q-29 -6 -37 2q-4 5 -12 80q-3 33 -5 35q-1 1 -8 -14q-16 -34 -50 -63q-28 -24 -51 -25q-41 -1 -75 10q-29 9 -40 22q-1 1 -4 6q-23 28 -29 65q-7 47 -1 78q4 11 1 168q0 18 -1 27l-1 35zM204.525 545.769q17.2461 -12.3301 15.8838 -17.2852
q-0.998047 -2.79102 -7.35938 -10.2998q-6.36035 -7.50879 -8.62402 -11.5557q-3.19629 -4.37109 -6.92969 -5.66992q-4.03223 -0.995117 -17.8789 11.7021q-67.5977 66.9102 -89.4775 78.8496q-51.3301 28.9834 -56.2734 40.2988q1.66211 4.65137 18.7822 22.8291
q2.23145 2.81348 3.16406 3.1377q9.06445 4.7832 31.415 -12.6953l33.5264 -26.2168q13.3096 -9.62598 45.2051 -39.2627q26.791 -24.4873 38.5664 -33.832z" />
    <glyph glyph-name="uacute" unicode="&#xfa;" horiz-adv-x="384" 
d="M38 435q10 4 27 1l21 -3q5 -3 6 -134q0 -142 2 -150q2 -16 12 -31q18 -24 41 -30l20 -5q8 -2 49 17q18 7 38 42q3 5 5 10l20 49q5 12 -3 105v6q-3 29 -6 67t-3 42q-1 9 43 8q14 0 15 -2q1 -1 0 -13q-1 -6 -1 -15q0 -19 3 -37q2 -19 5 -59l6 -117l13 -85l20 -88v-1
q-1 -4 -22 -4q-3 0 -5 -1q-29 -6 -37 2q-4 5 -12 80q-3 33 -5 35q-1 1 -8 -14q-16 -34 -50 -63q-28 -24 -51 -25q-41 -1 -75 10q-29 9 -40 22q-1 1 -4 6q-23 28 -29 65q-7 47 -1 78q4 11 1 168q0 18 -1 27l-1 35zM334.164 627.814q17.4795 11.9932 21.6699 9.01953
q2.2832 -1.8916 7.16602 -10.4365q4.88281 -8.54395 7.91211 -12.0547q3.01562 -4.49805 2.96094 -8.4502q-0.441406 -4.12988 -17.1055 -12.8027q-85.9727 -40.6621 -104.668 -57.1436q-44.7754 -38.3359 -57.0977 -39.1143q-3.80371 3.15234 -15.0371 25.4551
q-1.88086 3.05762 -1.86719 4.0459q-1.39844 10.1533 22.6621 25.1846l36.0928 22.5479q13.5928 9.21973 52.3408 29.0664q32.166 16.8086 44.9707 24.6826z" />
    <glyph glyph-name="ucircumflex" unicode="&#xfb;" horiz-adv-x="384" 
d="M38 435q10 4 27 1l21 -3q5 -3 6 -134q0 -142 2 -150q2 -16 12 -31q18 -24 41 -30l20 -5q8 -2 49 17q18 7 38 42q3 5 5 10l20 49q5 12 -3 105v6q-3 29 -6 67t-3 42q-1 9 43 8q14 0 15 -2q1 -1 0 -13q-1 -6 -1 -15q0 -19 3 -37q2 -19 5 -59l6 -117l13 -85l20 -88v-1
q-1 -4 -22 -4q-3 0 -5 -1q-29 -6 -37 2q-4 5 -12 80q-3 33 -5 35q-1 1 -8 -14q-16 -34 -50 -63q-28 -24 -51 -25q-41 -1 -75 10q-29 9 -40 22q-1 1 -4 6q-23 28 -29 65q-7 47 -1 78q4 11 1 168q0 18 -1 27l-1 35zM165.048 612.253q4.58008 1.78516 9.15918 0.594727
q4.58008 -1.18945 6.86914 -1.18945q5.15234 0 6.87012 -8.33008q0 -5.94922 56.0996 -64.2559q33.7744 -35.1035 34.9189 -38.6738q0 -4.16406 -8.01367 -8.3291q-9.15918 -6.54492 -9.73145 -7.73535q-2.29004 -2.37891 -8.01465 -1.78418t-9.15918 7.13965
q-4.00684 7.73438 -9.15918 12.4941l-20.0361 24.9883q-13.166 17.8496 -16.6006 21.4199q-1.14453 1.18945 -8.01465 10.709q-12.5938 16.0645 -16.6006 16.0645q-2.29004 0.594727 -24.6152 -24.9893q-4.00781 -4.75977 -4.58008 -5.94922q0 -1.19043 -7.44141 -8.9248
q-6.29688 -6.54492 -13.166 -17.2539q-10.3047 -16.6592 -17.7461 -25.584q-2.29004 -2.97461 -7.44238 -0.594727l-18.3184 14.2793q-0.572266 1.18945 -1.14453 1.78418l-3.43457 5.35547l8.58691 13.0889q10.876 17.2549 16.6006 24.3936l13.7393 19.0391
l14.3105 18.4443q9.73145 10.1143 12.0215 16.0645q2.8623 5.9502 11.4492 5.9502q11.4492 1.18945 12.5938 1.78418z" />
    <glyph glyph-name="udieresis" unicode="&#xfc;" horiz-adv-x="366" 
d="M38 435q10 4 27 1l21 -3q5 -3 6 -134q0 -142 2 -150q2 -16 12 -31q18 -24 41 -30l20 -5q8 -2 49 17q18 7 38 42q3 5 5 10l20 49q5 12 -3 105v6q-3 29 -6 67t-3 42q-1 9 43 8q14 0 15 -2q1 -1 0 -13q-1 -6 -1 -15q0 -19 3 -37q2 -19 5 -59l6 -117l13 -85l20 -88v-1
q-1 -4 -22 -4q-3 0 -5 -1q-29 -6 -37 2q-4 5 -12 80q-3 33 -5 35q-1 1 -8 -14q-16 -34 -50 -63q-28 -24 -51 -25q-41 -1 -75 10q-29 9 -40 22q-1 1 -4 6q-23 28 -29 65q-7 47 -1 78q4 11 1 168q0 18 -1 27l-1 35zM252.15 531.044q-2.31348 12.6826 4.86133 33.623
q2.98242 8.4873 27.3652 7.05762q14.0977 -0.495117 23.6953 -5.9873q11.7129 -7.28418 14.2432 -13.1006l3.03613 -6.98047q3.48926 -9.85938 -3.55957 -26.7949q-2.31348 -4.50195 -4.0127 -6.73242q-7.32031 -8.33496 -24.6719 -7.72559
q-10.3027 0.361328 -21.4902 7.05566q-17.0811 9.19141 -19.4668 19.585zM95.4805 537.691q-1.82617 10.9473 5.47656 18.709q11.7842 12.1875 21.1465 16.4414q8.73047 1.41113 23.1357 -6.54102q2.13281 -1.21973 3.18066 -2.40234q1.57227 -1.77344 5.11523 -9.91699
q7.55566 -18.5938 -1.01172 -32.04q-7.87988 -8.8877 -16.0137 -8.60156q-18.4727 -0.49707 -20.0264 1.84863q-0.506836 1.16309 -5.82031 4.78613q-11.1699 7.26562 -15.1826 17.7168z" />
    <glyph glyph-name="yacute" unicode="&#xfd;" horiz-adv-x="384" 
d="M22 436q5 6 33 4q6 -1 8 -2q3 -2 9 -19q24 -65 27 -69q2 -2 8 -18q28 -76 33 -82l29 -70l5 -18q10 -31 16 -38q4 -6 9 3q0 3 17 40q3 7 8 15q16 27 55 130l39 99q3 5 6 7q5 4 44 -14q13 -6 13 -9l-24 -48q-6 -16 -18 -39l-27 -58l-1 -2l-43 -86l-22 -48l-25 -63l-13 -25
l-24 -53q-18 -41 -37 -71q-10 -16 -13 -22q-10 -22 -17 -42q-5 -14 -20 -11q-46 14 -53 24q-4 6 1 16q4 10 8 13l60 87q0 2 7 12t14 24q6 14 14 27q9 13 10 18q3 6 -8 39l-9 19q-2 6 -7 18l-10 29l-9 32q-13 43 -20 51q-3 4 -10 22q-7 19 -9 24q-7 17 -17 44l-25 57
q-19 45 -12 53zM334.164 627.814q17.4795 11.9932 21.6699 9.01953q2.2832 -1.8916 7.16602 -10.4365q4.88281 -8.54395 7.91211 -12.0547q3.01562 -4.49805 2.96094 -8.4502q-0.441406 -4.12988 -17.1055 -12.8027q-85.9727 -40.6621 -104.668 -57.1436
q-44.7754 -38.3359 -57.0977 -39.1143q-3.80371 3.15234 -15.0371 25.4551q-1.88086 3.05762 -1.86719 4.0459q-1.39844 10.1533 22.6621 25.1846l36.0928 22.5479q13.5928 9.21973 52.3408 29.0664q32.166 16.8086 44.9707 24.6826z" />
    <glyph glyph-name="thorn" unicode="&#xfe;" 
 />
    <glyph glyph-name="ydieresis" unicode="&#xff;" horiz-adv-x="394" 
d="M22 436q5 6 33 4q6 -1 8 -2q3 -2 9 -19q24 -65 27 -69q2 -2 8 -18q28 -76 33 -82l29 -70l5 -18q10 -31 16 -38q4 -6 9 3q0 3 17 40q3 7 8 15q16 27 55 130l39 99q3 5 6 7q5 4 44 -14q13 -6 13 -9l-24 -48q-6 -16 -18 -39l-27 -58l-1 -2l-43 -86l-22 -48l-25 -63l-13 -25
l-24 -53q-18 -41 -37 -71q-10 -16 -13 -22q-10 -22 -17 -42q-5 -14 -20 -11q-46 14 -53 24q-4 6 1 16q4 10 8 13l60 87q0 2 7 12t14 24q6 14 14 27q9 13 10 18q3 6 -8 39l-9 19q-2 6 -7 18l-10 29l-9 32q-13 43 -20 51q-3 4 -10 22q-7 19 -9 24q-7 17 -17 44l-25 57
q-19 45 -12 53zM252.15 531.044q-2.31348 12.6826 4.86133 33.623q2.98242 8.4873 27.3652 7.05762q14.0977 -0.495117 23.6953 -5.9873q11.7129 -7.28418 14.2432 -13.1006l3.03613 -6.98047q3.48926 -9.85938 -3.55957 -26.7949q-2.31348 -4.50195 -4.0127 -6.73242
q-7.32031 -8.33496 -24.6719 -7.72559q-10.3027 0.361328 -21.4902 7.05566q-17.0811 9.19141 -19.4668 19.585zM95.4805 537.691q-1.82617 10.9473 5.47656 18.709q11.7842 12.1875 21.1465 16.4414q8.73047 1.41113 23.1357 -6.54102q2.13281 -1.21973 3.18066 -2.40234
q1.57227 -1.77344 5.11523 -9.91699q7.55566 -18.5938 -1.01172 -32.04q-7.87988 -8.8877 -16.0137 -8.60156q-18.4727 -0.49707 -20.0264 1.84863q-0.506836 1.16309 -5.82031 4.78613q-11.1699 7.26562 -15.1826 17.7168z" />
    </font>
</defs>
</svg>
