<?xml version="1.0" standalone="no"?>
<!DOCTYPE svg PUBLIC "-//W3C//DTD SVG 1.1//EN" "http://www.w3.org/Graphics/SVG/1.1/DTD/svg11.dtd" >
<svg xmlns="http://www.w3.org/2000/svg" xmlns:xlink="http://www.w3.org/1999/xlink" version="1.1">
<metadata>
Created by FontForge 20230101 at Thu Sep  3 16:38:17 1998
 By Glenn Lewis
http://members.aol.com/vroomfonde/ttf/ - Hydrogen Score Copyright (c) 1998 Tom Murphy 7 - Use freely, but don't resell. ImightbeTM@aol.com - 339 Still Hill Rd - Hamden CT 06518 - USA.      People are mostly hydrogen.
</metadata>
<defs>
<font id="HydrogenScore" horiz-adv-x="293" >
  <font-face 
    font-family="Hydrogen"
    font-weight="400"
    font-stretch="normal"
    units-per-em="1000"
    panose-1="0 0 4 0 0 0 0 0 0 0"
    ascent="800"
    descent="-200"
    x-height="698"
    cap-height="788"
    bbox="4 -135 808 800"
    underline-thickness="20"
    underline-position="-143"
    unicode-range="U+0020-2026"
  />
<missing-glyph horiz-adv-x="500" 
d="M63 0v800h375v-800h-375zM125 63h250v675h-250v-675z" />
    <glyph glyph-name=".notdef" horiz-adv-x="500" 
d="M63 0v800h375v-800h-375zM125 63h250v675h-250v-675z" />
    <glyph glyph-name=".null" horiz-adv-x="0" 
 />
    <glyph glyph-name="nonmarkingreturn" horiz-adv-x="500" 
 />
    <glyph glyph-name="space" unicode=" " horiz-adv-x="500" 
 />
    <glyph glyph-name="exclam" unicode="!" horiz-adv-x="215" 
d="M184 168h-133v308h-17v303h144v-207h6v-404zM164 12h-139v113h139v-113zM164 208v343h-96v-343h96zM115 30v75h-78v-75h78z" />
    <glyph glyph-name="quotedbl" unicode="&#x22;" horiz-adv-x="374" 
d="M164 546h-49v72h-24v26h-63v141h136v-239zM143 658v112h-98v-72h58v-40h40zM349 540h-49v72h-24v26h-63v141h136v-239zM328 652v112h-98v-72h58v-40h40z" />
    <glyph glyph-name="numbersign" unicode="#" 
d="M241 289h-196v210h196v-210zM207 404v55h-58v-55h58zM129 404v72h-69v-72h69zM221 303v87h-81v-87h81zM117 338v43h-54v-43h54z" />
    <glyph glyph-name="dollar" unicode="$" horiz-adv-x="622" 
d="M584 102h-31v-35h-188v-49h-118v84h-29v-26h-184v26h-12v83h110v-31h63v2h52v176h-187v12h-32v314h9v9h152v34h96v67h60v-67h139v-37h63v-87h-144v44h-58v-98h20v-98h202v-24h17v-299zM550 130v251h-107v-251h107zM285 523v98h-21v-24h-92v-172h75v98h38zM345 263v242
h-83v-242h83zM432 151v181h-67v-176h35v-5h32zM120 113v58h-92v-58h92z" />
    <glyph glyph-name="percent" unicode="%" 
d="M241 289h-196v210h196v-210zM207 404v55h-58v-55h58zM129 404v72h-69v-72h69zM221 303v87h-81v-87h81zM117 338v43h-54v-43h54z" />
    <glyph glyph-name="ampersand" unicode="&#x26;" 
d="M241 289h-196v210h196v-210zM207 404v55h-58v-55h58zM129 404v72h-69v-72h69zM221 303v87h-81v-87h81zM117 338v43h-54v-43h54z" />
    <glyph glyph-name="quotesingle" unicode="'" horiz-adv-x="184" 
d="M164 546h-49v72h-24v26h-63v141h136v-239zM143 658v112h-98v-72h58v-40h40z" />
    <glyph glyph-name="parenleft" unicode="(" horiz-adv-x="406" 
d="M372 643h-8v18h-160v-585h130v16h14q0 -18 8 -16v-57h-243q-13 12 -43 16l-50 4v701h184v-10h168v-87zM158 91v621h-122v-621h26v588h82v-588h14z" />
    <glyph glyph-name="parenright" unicode=")" horiz-adv-x="423" 
d="M393 103q-4 0 -6 -1v-89h-119q0 15 -2 20h-5v-14h-29v14h-196v82h10v20h17v-20h169v570h-185v-20h-11v20h-16v44h42v34h206v14h119v-598q2 -2 6 -2v-74zM267 116v569h-5v-569h5zM381 115v48h-51v-48h51z" />
    <glyph glyph-name="asterisk" unicode="*" horiz-adv-x="446" 
d="M426 497h-104v-15h23v-112h-60v83h-75v-95h-64v130h6v17h-130v52h130v52h23v81h115v-81h32v-55h104v-57zM302 482v110h-29v78h-81v-78h-20v-110h130z" />
    <glyph glyph-name="plus" unicode="+" horiz-adv-x="478" 
d="M432 387h-139v-127h-80v115h-173v84h121v156h121v-139h11v-34h139v-55zM264 413v173h-89v-173h89z" />
    <glyph glyph-name="comma" unicode="," horiz-adv-x="267" 
d="M241 -71h-26v-32h-89v-32h-58v43h52v61h12v49h-55v121h153v-86h11v-124zM198 -80v164h-49v-164h49z" />
    <glyph glyph-name="hyphen" unicode="-" horiz-adv-x="383" 
d="M348 292h-118v37h-216v93h288v-78h46v-52zM264 347v37h-230v-37h230z" />
    <glyph glyph-name="hyphen" unicode="&#x2010;" horiz-adv-x="383" 
d="M348 292h-118v37h-216v93h288v-78h46v-52zM264 347v37h-230v-37h230z" />
    <glyph glyph-name="hyphen" unicode="&#x2010;" horiz-adv-x="383" 
d="M348 292h-118v37h-216v93h288v-78h46v-52zM264 347v37h-230v-37h230z" />
    <glyph glyph-name="period" unicode="." horiz-adv-x="262" 
d="M204 35h-148v154h24v8h106q2 -8 8 -9q5 1 10 1v-154zM166 69v42h-86v54h-6v-96h92z" />
    <glyph glyph-name="slash" unicode="/" horiz-adv-x="472" 
d="M455 635h-61v-130h-11v-89h-75v-35h52v-144h-84v20h-23v-72h-32v-20h-69v-75h-17v-60h-107v100h43v101h81v-23h6v162h40v92h92v153h44v106h43v78h78v-164zM440 649v142h-52v-142h52zM348 257v107h-61v-107h61zM236 208v72h-70v-72h70z" />
    <glyph glyph-name="zero" unicode="0" horiz-adv-x="642" 
d="M600 209h-54v-59h10v-105h-467v105h16v58q-27 -2 -54 1v138h-26v333h66v64h417v-54h54v-134h38v-347zM500 689v45h-171v-95h113v50h58zM582 375v165h-35v132h-89l-1 -297h125zM464 259v99h-22v268h-219v-24h-26v-182h-40v-5h34v-172h22v-92h219v108h32zM176 441v161h-50
v60h-83v-221h133zM532 65v185h-87v-185h87zM194 71v135h-65v-135h65zM384 321h-101v123h101v-123zM372 369v65h-69v-65h69z" />
    <glyph glyph-name="one" unicode="1" horiz-adv-x="452" 
d="M419 30h-403v36h26v24h35v-24h104v28h-12q0 16 6 19v519h-28v-36h-33v134h17v20h154v-20h12v-98q-5 0 -6 -2v-454h26v-110h30v24h24v-24h48v-36zM277 692v52h-138v-52h138zM265 176v456h-44v-456h44zM301 52v108h-80v-50h-22v-58h102z" />
    <glyph glyph-name="two" unicode="2" horiz-adv-x="654" 
d="M617 0h-160v34h-81v-28h-319v26h-42v211h79q0 -4 2 -6h47v40q-2 0 22 0q15 0 20 6h90v44h68v58h54v92h34v185h-295v-74h-105v97h56v92h407v-64h112v-289h-82v-90h-68v-36h-68v-42h-38v-44h-74v-28h-80v-89h147v44h274v-139zM588 648v45h-95v-45h95zM466 478v183h-9v-183
h9zM424 676v85h-271v-85h271zM486 350v115h-29v-22h-27v22h-19v-115h75zM606 10v23h-141v-23h141zM264 206v65h-67v-65h67zM362 24v59h-267v-52h-24v-7h291zM114 100v107h-55v-107h55z" />
    <glyph glyph-name="three" unicode="3" horiz-adv-x="556" 
d="M525 396h-20v-292h-50v-82h-425v102h318v30h34v246h-238v44h244v212h-195v-40h-109v40h-32v108h403v-70h70v-298zM423 444v212h-5v-212h5zM177 632v58h-75v-58h75zM487 124v292h-93v-262h14v-30h79zM263 44v72h-209v-72h209z" />
    <glyph glyph-name="four" unicode="4" horiz-adv-x="625" 
d="M596 573h-28v-96h-16v-53h28v-86q1 -2 6 -2v-337h-89v66h-8q-3 -23 0 -50h-61v30q1 16 -6 20v256h-374v54h-14v163h52v246h174v-265h-78v-61h46v-34h174q0 6 1 18q27 15 53 18v241h-36v83h78v-20h98v-191zM522 717v41h-78v-41h78zM558 485v149h-48v-149h48zM190 549v205
h-88v-205h88zM562 89v243h-98v-243h98zM216 383v63h-74v-63h74z" />
    <glyph glyph-name="five" unicode="5" horiz-adv-x="654" 
d="M617 121h-62v-64h-209v24h-71v-40h-227v103h178v26h132q1 -1 2 -1q-1 -3 2 -3h90v60h44v63h-38v50h-416v64h-10v35h44v188h-44v100h22v34h192q3 0 3.5 -1.5t3.5 -1.5h251q2 0 1.5 -2.5t2.5 -2.5h87v-127h-24v-12h-79v12h-70v80h-99v-42h-72v-37h-68v-188h297v16h107v-36
h30v-297zM527 683v61h-85v-109h49v48h36zM579 377v67h-87v-67h87zM241 637v25h-165v-25h165zM541 83v129h-71v-129h71zM77 351v77h-25v-77h25zM261 49v31h-36v50h-169v-81h205z" />
    <glyph glyph-name="six" unicode="6" horiz-adv-x="570" 
d="M550 66h-84v-50h-360v38h-22v30h-38v216h-20v303h48v130h62v56h260v-42h128v-121h-156v26h-160v-126q-7 0 -8 -2v-119h176v-34h146v-86h28v-219zM384 670v93h-146v-93h146zM504 276v83h-184v-117h128v34h56zM186 322v267h-148v-267h148zM438 164v69h-128v88h-110v-22h-28
v-136h-46v-15h90q2 -2 2 -8h144v24h76zM218 30v83h-84v-83h84z" />
    <glyph glyph-name="seven" unicode="7" horiz-adv-x="625" 
d="M581 659h-10v-106q0 -1 4 -1v-295h-44v-222h-158v335h80v107h-34v182h-244v-112h-150v151h76v74h480v-113zM511 553v105h-26v-105h26zM563 447v87h-94v-87h94zM281 685v77h-118v-43h10v-34h108zM159 643v19h-52v24h-70v-121h46v78h76zM513 55v205h-58v98h-68v-303h126z
" />
    <glyph glyph-name="eight" unicode="8" horiz-adv-x="558" 
d="M528 31h-470v11h-16v40h-12v383h10q8 0 10 9h28v268h160q1 -1 1 -2.5t3 -1.5h126q3 6 18 6l24 -1v12h114v-103h-16v-240q-5 0 -6 -2v-17h26v-362zM512 668v75h-86v-75h86zM488 396v15h-20v230h-74v-141h50v-104h44zM370 500v144h-130v-225h111v81h19zM188 394v323h-74
v-323h74zM510 46v75h-134v24h-6v-99h140zM346 140v193h-130v-193h130zM126 52v75h-68v-75h68z" />
    <glyph glyph-name="nine" unicode="9" horiz-adv-x="564" 
d="M523 38h-93q-1 9 -16 8h-22v346h-302v26h-44v261h30v51h312q2 1 2 5h121v-244h12v-453zM389 466v159h-197v-30h-18v-129h215zM495 130v291h-19v-291h19zM457 130v303h-33v-42h-20v-329h25v68h28zM153 434v161h-26v51h26v23h-85v-235h85z" />
    <glyph glyph-name="colon" unicode=":" horiz-adv-x="262" 
d="M192 416h-121v110h121v-110zM202 68h-147v154h24v8h105q3 -8 9 -8h9v-154zM164 428v86h-81v-86h81zM164 102v42h-86v54h-5v-96h91z" />
    <glyph glyph-name="semicolon" unicode=";" horiz-adv-x="299" 
d="M273 315h-37v-29h-165v170h32v32h170v-173zM187 35h-3v-78h-67v-31h-69v60h52v49h-72v136h159v-136zM230 329v121h-115v-121h115zM166 -19v103h-51v-103h51z" />
    <glyph glyph-name="less" unicode="&#x3c;" horiz-adv-x="507" 
d="M472 670h-170v-98h-40v-78h-61v-84h-61v-60h21v-35h34v-43h15v-75h77v-72h41v-44h112v-75h-138v61h-61v49h-49v46h-49v84h-60v86h-58v118h49v81h81v58h11v104h38v72h268v-95zM241 514v161h-60v-161h60z" />
    <glyph glyph-name="equal" unicode="=" horiz-adv-x="383" 
d="M348 292h-118v37h-216v93h288v-78h46v-52zM264 347v37h-230v-37h230zM354 471h-337v77h337v-77zM97 482v43h-43v-43h43z" />
    <glyph glyph-name="greater" unicode="&#x3e;" horiz-adv-x="558" 
d="M512 326h-109v-123h-90v-75h6v-61h-161v-35h-130v81h81v15h127v103h40v119h72v25h-11v119h-78v106h-153v67h-81v101h127v-61h156v-86h101v-93h37v-106h66v-96zM432 384v136h-44v86h-106v-95h66v-127h84zM140 50v46h-103v-46h103z" />
    <glyph glyph-name="question" unicode="?" horiz-adv-x="573" 
d="M535 370h-43v-20h-106v-81h-44v-81h-115v133h52v92h78v26h80v179h-37v34h-245v-83h-40v-90h-93v127h44v118h51v58h315v-40h49v-38h54v-334zM391 24h-37v-52h-144v141h49v32h132v-121zM524 626v61h-72v-61h72zM518 390v173h-69v-173h69zM138 586v112h-61v-112h61zM357 50
v78h-87v-78h87z" />
    <glyph glyph-name="at" unicode="@" 
d="M241 289h-196v210h196v-210zM207 404v55h-58v-55h58zM129 404v72h-69v-72h69zM221 303v87h-81v-87h81zM117 338v43h-54v-43h54z" />
    <glyph glyph-name="A" unicode="A" horiz-adv-x="697" 
d="M666 22h-136v30h-34v124q5 0 6 1v71h-118v-22h-118v-204h-232v408h50v244h60v44h336v16h72v-108h28v-192h86v-412zM542 632v84h-54v-84h54zM234 646v16h-38v-16h38zM646 44v380h-114v-52q7 0 8 -1v-48q-1 -1 -8 -1v-30h16v-116q7 0 8 -1v-123h-24v-8h114zM494 340v12h-30
v198h-218v-120h20v-106h92v16h136zM158 646v16h-58v-16h58zM536 184v96h-20v-96h20zM548 64v108h-46v-108h46zM374 240v8h-16v62h-106v-70h122zM234 72v380h-48q2 -7 6 -119t4 -142v-109h-38v370h-58v-380h134z" />
    <glyph glyph-name="B" unicode="B" horiz-adv-x="619" 
d="M577 480h-16v-106h-42v-19h52v-263h-26v-36q-26 -3 -31 -4q-16 -3 -17 -12h-238v-12h-233v363h28v362h186q3 0 3.5 -2t3.5 -2h268v-28h46v-32h16v-209zM549 690v9h-113v-9h113zM549 394v85h-113v-85h113zM413 378v275h-167v-247h14v-28h153zM231 418v79h-22v49h22v107
h-108v88h-37v-202q0 -3 5 -17.5t6 -17.5q4 -29 19 -86h115zM461 150v171h-201v-171h201zM201 336v45h-33v-45h33zM236 276v45h-3v-45h3zM187 276v45h-52v52h-65v-97h117zM239 150v109h-5v-109h5zM187 150v109h-135v-215h59v106h76z" />
    <glyph glyph-name="C" unicode="C" horiz-adv-x="544" 
d="M510 17h-334v101h-134l-8 259l-7 304h166v61q87 17 191 17q6 0 21 -7t19.5 -7.5t64.5 -2.5v-117h-291l3 -454q18 3 62 0q61 -4 85 -4q4 0 14.5 -3t16.5 -4h131v-143zM175 451v209h-128v-256h112q-7 16 -7 23q0 14 23 24zM174 151v231h-111v-231h111z" />
    <glyph glyph-name="D" unicode="D" horiz-adv-x="659" 
d="M620 207h-46v-106h-52v-78h-450v-10h-31v224q0 -8 7 23q3 16 3 26h68v371h-50v51h50v18h83v-18h294v-39h78v-125h46v-337zM502 629v33h-47v-33h47zM560 125v401h-59v-401h59zM478 139v469h-36v48h-239v-517h275zM508 43v57h-30v20h-405v-77h29v42h75v-42h331z" />
    <glyph glyph-name="E" unicode="E" horiz-adv-x="570" 
d="M533 -8h-286v62h-205v357h53v288h100q5 33 0 73h338v-140h-295v-141h245v-152h-218v-186h268v-161zM511 674h-182l2 -19l178 3zM447 367v89h-196q14 -21 14 -46q-1 -36 1 -43h181zM219 436l-5 26v168q-4 0 -18 4v46h-81l7 -274l87 -8v7q0 8 10 31zM209 84v300h-53v-300
h53zM102 84v300h-8v-300h8z" />
    <glyph glyph-name="F" unicode="F" horiz-adv-x="623" 
d="M591 692h-22v-110q-6 0 -7 -1v-5h9v-16h-307v-70q6 -5 6 -17q0 -24 -1 -23h304v-108h-304l1 -19q0 -13 -6 -15v-263q1 1 -16 1q-12 0 -15 -7h-62q-2 0 -24 -2t-25 -2h-20q0 27 -2.5 29.5t-22.5 2.5q-48 0 -43 0v519q20 15 29 61q4 21 2 52q-3 27 -5 53h203v-14h328v-46z
M557 602v118h-221v-118h221zM531 576v6h-208v10h-59v-16h267zM323 644v48h-59v-48h59zM513 362v74h-283v-74h283zM105 616v66h-31v-66h31zM189 354v116h-5v-116h5zM241 99v211h-37v-211h37zM105 99v393h-31v-393h31z" />
    <glyph glyph-name="G" unicode="G" horiz-adv-x="662" 
d="M625 308h-70q0 -12 6 -14v-212h-58v-30h-392v18h-52v224h20v12h-38v256h30v126h12v36h430v-28h50v-182h-96q-3 9 -16 8v94h-118v-28h-88v28h-12v18h12v26h88v-26h118v62h46v16h-402v-78h64v-18h-22v-54h78v-256h-40v-12h36v-154h218v154q9 -1 12 1v6h-98v41h148v24h134
v-58zM467 534v148h-10v-148h10zM617 316v44h-122v-20h18v-24q7 4 19 4h18l1.5 -2t4.5 -2h61zM543 132v176h-90v-78h46v-92h-46v-6h90zM199 316v228h-62v-16h-66v16h-10v-228q16 2 24 2v128h78v-72h28v-48h-16v-10h24zM145 294v12h-12v-12h12zM491 68v14h-62v48h-310v-62h372
z" />
    <glyph glyph-name="H" unicode="H" horiz-adv-x="573" 
d="M528 609h-42v-283h14v-317h-96v164q-6 6 -6 5q1 10 -6.5 26t-7.5 18v121h-234v-39h32v-289h-157v289h28v295h-16v147h125v-147h-12v-183h27v34h109v-34h98v274q1 1 1 2q2 -1 3 0q1 48 -3 60h143v-143zM516 627v107h-105v-107h51v24h24v-24h30zM462 327v281h-14v-281h14z
M146 647v83h-12v-83h12zM72 615v115h-12v-115h12zM108 359v239h-41v-239h41zM104 73v105h-40v82h-12v30h-9v-217h61z" />
    <glyph glyph-name="I" unicode="I" horiz-adv-x="763" 
d="M726 677h-224v-557h139q6 1 14 -10q1 -4 1 -36h48v-77h-90q-30 0 -75 -5q-3 -1 -13.5 -4t-12.5 -3h-482v89h118v16q1 1 25 1q16 0 20 4.5t7 26.5h30v294h32v235h-198v62h-36v75h421v-16h276v-95zM452 689v19h-24v14h-61v-293h61v215h-18v45h42zM352 429v295h-29v-295h29z
M264 667v41h-185v-41h185zM630 53v23h-198v328h-185v-281h14v-74h169q1 1 1.5 2.5t2.5 1.5h196z" />
    <glyph glyph-name="J" unicode="J" horiz-adv-x="731" 
d="M700 633h-115v-99q-7 0 -9 -2v-371h-26v-71h-38v-46h-456v51h-35v142h100q8 -14 18 -42v-61h312v27h-29v441h-37v31h-111v65h306q7 -12 15 -13h105v-52zM501 611v21h-46v-21h46zM536 359v233h-92v-233h92zM512 134v26h-24v-26h24zM494 64v56h-420v-56h420z" />
    <glyph glyph-name="K" unicode="K" horiz-adv-x="515" 
d="M470 71h-114v163q7 0 8 2v24h-40v39h-78q2 41 -3 60q-2 9 -12 9h-71v-70h28v-232h-146v290h14v372h140v-258h12v64h58v80h96q-1 13 1 36q0 1 11 22q8 15 6 24h34v-198h-16v-26h-100v-54h-60v-16q24 -20 53 -40h91v-48h46v-80q19 -3 42 0v-163zM240 342h-30v18h30v-18z
M368 530v40h-90v-40h90zM374 274v78h-46v-78h46zM178 470v124h-56v94h56v20h-102v-350h50v112h52zM446 120v100h-42v-100h42zM176 105v163q-47 3 -94 0v-9h38v-171q-13 -1 -38 0v-10h82q-1 23 12 27z" />
    <glyph glyph-name="L" unicode="L" horiz-adv-x="706" 
d="M665 36h-34v-18h-473v18h-50v60h-74v647h203v-600q9 3 23 -3q11 -4 21 -9v-22h384v-73zM115 636v75q-17 0 -20 1q-3 10 -13 10q-3 0 -13 -9q1 -1 2 -38q1 -47 25 -47q14 0 19 8zM219 122v589h-21v-589h21zM653 66v29h-83q0 -6 -2 -8h-327v12h-117v-43h45q0 6 2 8h407v-18
h19v20h56zM177 120v191h-107v-191h107z" />
    <glyph glyph-name="M" unicode="M" horiz-adv-x="708" 
d="M640 32h-121v24h-24v390h24v93h-141v-67h10v-144h-10v-154h-63v154h-133v-192h36v-97q1 0 -19 0q-13 0 -17 -7h-139v406h36v33h-24v61h85v-60h109v38h66v172h299q2 -7 11 -7q15 0 15 1v-644zM606 555v121h-273v-121h273zM624 55v431h-77v-41h70v-389l-71 -1h78zM374 340
v122h-47q0 -6 -2 -8h-75q-2 2 -2 8h-151v-122h277zM204 52v76h-93v-76h93zM76 52v76h-9v-76h9z" />
    <glyph glyph-name="N" unicode="N" horiz-adv-x="645" 
d="M625 30h-125v92h-148v136h-79v284h-54v-54h-30v-424h30v-30l6 -7h-194v644h194v-24h171v106h7v-416h84v-129q-6 0 -8 -2v-7h21v472h17v26h108v-275h-11v196h-97q1 15 0 34h-9v-529h30v176h81q0 2 0 -16q0 -11 6 -12v-241zM355 274v273h-72v-273h72zM471 224v105h-83v-105
h83zM109 576v85h-66v-85h66zM499 171v3l-19 2v-3zM137 111v386h-48v-434h20v48h28z" />
    <glyph glyph-name="O" unicode="O" horiz-adv-x="736" 
d="M704 116h-67q-7 -45 1 -98h-546v53q-21 7 -51 5v594l112 7q5 45 0 103h458v-103q32 2 93 7v-568zM689 140v518h-10v-518h10zM663 142v378q-10 0 -10 15q1 11 -1 33q-1 28 -1 37q0 36 12 53h-119v-516q100 5 119 0zM519 197v415h-299v-50q17 -3 52 -11v-49q-17 -6 -52 -6
v-299h299zM201 93v450h-97v-450h97z" />
    <glyph glyph-name="P" unicode="P" horiz-adv-x="533" 
d="M498 489h-22v-78h-36v-46h-264v-364h-172v427h32v284h54v56h222v22h96v-32h90v-269zM400 683v93h-78v-93h78zM466 425v83h-46v-83h46zM408 431v57h-38v162h-236v-5h92v-59h-92v-85h36v-70h238zM120 549v123h-60v-123h60zM426 389v11h-258v-11h258zM160 421v59h-50v-59h50
zM156 107v273h-112v-273h112z" />
    <glyph glyph-name="Q" unicode="Q" horiz-adv-x="752" 
d="M722 40h-73v22h-180v22h-358v48h-42v112h-50v332h34v166h86v20h345v-16h70v-192h66v-124h-26v-116h-16v-162h104v-52h40v-60zM608 434v102h-75v-102h75zM520 328v130h-65v-130h65zM258 608v82h-107v-82h107zM510 472v34h-48v132h-187v-52h-74v-56h-17v-332h276v18h-120
v56h120v42h-22v158h72zM670 106v26h-108v76h-67v-76h-376v-26h551zM166 282v284h-137v-284h137z" />
    <glyph glyph-name="R" unicode="R" horiz-adv-x="535" 
d="M496 377h-50v-352h-84v56q0 40 -16 43v253h-170v-367h-125v589h46v98q9 -3 16 -3q17 0 17 22q0 7 -3 26q-2 16 -1 22h291v-67q15 -5 57 -5l5 -205l14 -1zM464 502v164h-40v-164h40zM484 398v66h-50v-66h50zM425 485l-12 1l-6 164h-226q-2 -8 0 -24q2 -22 2 -26
q0 -25 -18 -27v-128h259zM163 595v55q-26 0 -36 5l-13 27v-87h49zM417 393v40h-268v-40h268zM428 139v237h-40v-237h40zM132 398v175q-33 0 -60 10v-185h60zM158 36v335h-91v-335h91z" />
    <glyph glyph-name="S" unicode="S" horiz-adv-x="564" 
d="M528 55q-32 1 -68 -3q-2 -1 -4.5 -10.5t-10.5 -9.5q-4 0 -11 2v-47h-298q-17 66 -17 62q0 11 14 19q2 44 2 120h234q2 15 16 16q26 2 30 4v99h-278v149q-50 4 -100 0v240h122q5 35 0 67h242v-114q11 3 36.5 0t38.5 0v-164h-79q-4 76 0 151q-7 4 -215 -1v-168
q16 -6 16 -33q0 -4 -2 -31q-2 -20 0 -31h238v-47q44 -6 94 0v-270zM461 603q0 29 -48 30v-122h47q-10 15 -10 34q0 14 5.5 33.5t5.5 24.5zM153 495v188q-6 1 -100 0v-188h100zM414 352h-259q38 -7 107 -18zM419 97v96q-22 3 -29 -7q-3 -9 -5 -18h-195q-10 0 -23 -7.5
t-16 -15.5v-80h252q5 7 11 15.5t5 16.5zM403 26v9l-239 -5v-9z" />
    <glyph glyph-name="T" unicode="T" horiz-adv-x="711" 
d="M671 609h-212v-3h24v-369h-24v-184h-150v552h-7v-528h-26v528h-248v106h38v18h63v-19h49v19h55v-19h79v34h359v-135zM619 627v109h-289v-53h50v-56h239zM465 257v335h-99v-97h74v-238h25zM119 649v69h-45v-69h45z" />
    <glyph glyph-name="U" unicode="U" horiz-adv-x="642" 
d="M610 377h-10v-178h-20v-154h-513v94h-40v81h32v151h-42v327q9 -4 30 -4t30 4h103v-139q0 -1 -1 -2q-2 1 -3 0v-103h44v-113h-26v-121h10v-44h223v428q6 0 8 2v66h85q0 -6 2 -8h62v-60h26v-227zM508 579v77h-53v-77h53zM566 367v289h-45v-154h-74v-173h45v38h74zM556 115
v83h-64v68h-43v-151h107zM166 463v95h-90v118h-35v-213h125zM210 351v95h-69v-39h24v-56h45zM130 63v263h-24v52h-19v-315h43z" />
    <glyph glyph-name="V" unicode="V" horiz-adv-x="619" 
d="M562 324h-10v-64h-20v-84h-44v-36h-52v-14h-44v-44h-42v-22h-117v66h-52v14h-60v110h-90v202h50v28h-56v236h137v-236h-12v-28h22v-136h54v-64h50v-48h89q3 7 -4 10v104h46v94h36v17q-2 1 -8 1v288h127v-394zM542 446v264h-87v-264h87zM524 412v18h-49v-18h49zM450 156
v126h-15v-68h-56v-58h71zM146 270v168h-95v-168h95zM264 178v60h-65v-60h65z" />
    <glyph glyph-name="W" unicode="W" horiz-adv-x="674" 
d="M626 36h-258q0 4 -1 7h-283v37h-50v127h26v137h-44v379h160v-240h12v-218h60v-46h44v-58h14v40h22v118h78v-122h32v-42h30v80h20v89h-10v9h12v179h-12v13q9 -1 16 6v100h38v118h52v-74h32v-85h-16v-161h20v-271h-14v-29h20v-93zM604 178v215h-18v118h-58v-131h40v-79h-50
v-123h86zM572 130v27h-6v-27h6zM152 408v307h-116v-307h116zM394 162v131h-34v-131h34zM536 58v83h-32v-72h-58v-11h90zM164 224v55h-94v-63h54q2 8 17 8q24 0 23 0zM278 60v135h-130v-135h130z" />
    <glyph glyph-name="X" unicode="X" horiz-adv-x="677" 
d="M650 590h-22v-118h-90v-68q0 -1 -5 -8.5t-6 -11.5q-5 -15 -1 -46h-28v-31h40v-59h-16v-34h112v-192h-145v110h-80v100h-93v-82h-17v44h-105v-87h127v36h7v-41h-86q-2 -2 -2 -8h-66v-54q-56 -6 -59 -6h-42v60h-28v93h44v46h74v54h116v75h-48l-44 50v58h-38v86h-94v97h16
v56h207v-22h24v-160h62v-74q-60 1 -62 0v-6h149v200h36v42h66v54h97v-153zM612 488v147h-25v-50h-93v50h-29v-147h147zM450 338v69h-67v-69h67zM154 564v133h-51v-133h51zM236 478v75h-75v-75h75zM453 309h-72v-53h72q-1 36 0 53zM618 28v113h-115v-113h115z" />
    <glyph glyph-name="Y" unicode="Y" horiz-adv-x="654" 
d="M633 413h-38v-42h-120v-336h-26v300h-106v-215h9v200h85v-305h-84q1 19 -1 30h-9v-10h-62v336h-140v40h-114v355h174v-138h10v-160h232v32h56q-4 -27 3 -32v278q16 11 22 10h59v-48h50v-295zM623 427v271h-84v-271h84zM165 629v131h-124v-131h124zM165 443v7h-124v-7h124
zM371 55v39q-7 6 -16 18h-36v-57h52z" />
    <glyph glyph-name="Z" unicode="Z" horiz-adv-x="711" 
d="M678 654h-35v-103h-30v-13h-89v-89h-40v-75h-58v-38h-38v-36h-191v-101h53v-46q-24 2 -53 0v-7h310q6 -15 47 -16q38 0 38 -20q0 -4 -1 -10h66v-94q-4 1 -12 -5h-527q-1 6 -11 6l-18 -1v57h-41v83h13v240h26v-240h21v240h103v19h29v-60h12v11q0 -2 5 -2q14 0 7 60
q-1 9 3 37h99v7q-2 1 -76 0v64h78v39q16 -2 34 0v6h-13v41h66v15h21v31h-458v116h34v16h221v-15h182l2 -4q0 -5 1 -6q9 -11 102 -11q3 0 46.5 1t45.5 1q-4 0 26 -6v-92zM197 432h-89v13h89v-13zM87 432h-26v13h26v-13zM632 565v113h-79v-113h79zM454 561v5h-20v-5h20z
M259 690v92h-196v-92h79q-20 4 -36 1v88h127v-89h26zM471 387v77h-54v-20h43v-37h-43v-20h54zM634 29v18h-503v-18h503z" />
    <glyph glyph-name="bracketleft" unicode="[" horiz-adv-x="406" 
d="M372 643h-8v18h-160v-585h130v16h14q0 -18 8 -16v-57h-243q-13 12 -43 16l-50 4v701h184v-10h168v-87zM158 91v621h-122v-621h26v588h82v-588h14z" />
    <glyph glyph-name="backslash" unicode="\" horiz-adv-x="576" 
d="M538 35h-66v58h-46v63h-66v67h-52v95h-52v26h-46v101h46v31h-75v41h-66v98h-73v132h110v-72h58v-89h95v-63h46v-136h60v-101h38v-98h58v-63h31v-90zM198 577v87h-72v-130h29v43h43zM331 355v70h-104v-70h104zM492 110v64h-55v-64h55z" />
    <glyph glyph-name="bracketright" unicode="]" horiz-adv-x="423" 
d="M393 103q-4 0 -6 -1v-89h-119q0 15 -2 20h-5v-14h-29v14h-196v82h10v20h17v-20h169v570h-185v-20h-11v20h-16v44h42v34h206v14h119v-598q2 -2 6 -2v-74zM267 116v569h-5v-569h5zM381 115v48h-51v-48h51z" />
    <glyph glyph-name="asciicircum" unicode="^" horiz-adv-x="299" 
d="M270 603h-92v69h-49v-63h-95v92h63v61h101v-61h72v-98z" />
    <glyph glyph-name="underscore" unicode="_" horiz-adv-x="711" 
d="M691 12h-239v40h-438v99h584v-83h93v-56zM522 71v40h-467v-40h467z" />
    <glyph glyph-name="grave" unicode="`" horiz-adv-x="256" 
d="M233 606h-75v15h-78v49h-61v100h116v-72h63v-57h35v-35zM115 678v78h-84v-78h84z" />
    <glyph glyph-name="a" unicode="a" horiz-adv-x="697" 
d="M666 22h-136v30h-34v124q5 0 6 1v71h-118v-22h-118v-204h-232v408h50v244h60v44h336v16h72v-108h28v-192h86v-412zM542 632v84h-54v-84h54zM234 646v16h-38v-16h38zM646 44v380h-114v-52q7 0 8 -1v-48q-1 -1 -8 -1v-30h16v-116q7 0 8 -1v-123h-24v-8h114zM494 340v12h-30
v198h-218v-120h20v-106h92v16h136zM158 646v16h-58v-16h58zM536 184v96h-20v-96h20zM548 64v108h-46v-108h46zM374 240v8h-16v62h-106v-70h122zM234 72v380h-48q2 -7 6 -119t4 -142v-109h-38v370h-58v-380h134z" />
    <glyph glyph-name="b" unicode="b" horiz-adv-x="619" 
d="M577 480h-16v-106h-42v-19h52v-263h-26v-36q-26 -3 -31 -4q-16 -3 -17 -12h-238v-12h-233v363h28v362h186q3 0 3.5 -2t3.5 -2h268v-28h46v-32h16v-209zM549 690v9h-113v-9h113zM549 394v85h-113v-85h113zM413 378v275h-167v-247h14v-28h153zM231 418v79h-22v49h22v107
h-108v88h-37v-202q0 -3 5 -17.5t6 -17.5q4 -29 19 -86h115zM461 150v171h-201v-171h201zM201 336v45h-33v-45h33zM236 276v45h-3v-45h3zM187 276v45h-52v52h-65v-97h117zM239 150v109h-5v-109h5zM187 150v109h-135v-215h59v106h76z" />
    <glyph glyph-name="c" unicode="c" horiz-adv-x="544" 
d="M510 17h-334v101h-134l-8 259l-7 304h166v61q87 17 191 17q6 0 21 -7t19.5 -7.5t64.5 -2.5v-117h-291l3 -454q18 3 62 0q61 -4 85 -4q4 0 14.5 -3t16.5 -4h131v-143zM175 451v209h-128v-256h112q-7 16 -7 23q0 14 23 24zM174 151v231h-111v-231h111z" />
    <glyph glyph-name="d" unicode="d" horiz-adv-x="659" 
d="M620 207h-46v-106h-52v-78h-450v-10h-31v224q0 -8 7 23q3 16 3 26h68v371h-50v51h50v18h83v-18h294v-39h78v-125h46v-337zM502 629v33h-47v-33h47zM560 125v401h-59v-401h59zM478 139v469h-36v48h-239v-517h275zM508 43v57h-30v20h-405v-77h29v42h75v-42h331z" />
    <glyph glyph-name="e" unicode="e" horiz-adv-x="570" 
d="M533 -8h-286v62h-205v357h53v288h100q5 33 0 73h338v-140h-295v-141h245v-152h-218v-186h268v-161zM511 674h-182l2 -19l178 3zM447 367v89h-196q14 -21 14 -46q-1 -36 1 -43h181zM219 436l-5 26v168q-4 0 -18 4v46h-81l7 -274l87 -8v7q0 8 10 31zM209 84v300h-53v-300
h53zM102 84v300h-8v-300h8z" />
    <glyph glyph-name="f" unicode="f" horiz-adv-x="623" 
d="M591 692h-22v-110q-6 0 -7 -1v-5h9v-16h-307v-70q6 -5 6 -17q0 -24 -1 -23h304v-108h-304l1 -19q0 -13 -6 -15v-263q1 1 -16 1q-12 0 -15 -7h-62q-2 0 -24 -2t-25 -2h-20q0 27 -2.5 29.5t-22.5 2.5q-48 0 -43 0v519q20 15 29 61q4 21 2 52q-3 27 -5 53h203v-14h328v-46z
M557 602v118h-221v-118h221zM531 576v6h-208v10h-59v-16h267zM323 644v48h-59v-48h59zM513 362v74h-283v-74h283zM105 616v66h-31v-66h31zM189 354v116h-5v-116h5zM241 99v211h-37v-211h37zM105 99v393h-31v-393h31z" />
    <glyph glyph-name="g" unicode="g" horiz-adv-x="662" 
d="M625 308h-70q0 -12 6 -14v-212h-58v-30h-392v18h-52v224h20v12h-38v256h30v126h12v36h430v-28h50v-182h-96q-3 9 -16 8v94h-118v-28h-88v28h-12v18h12v26h88v-26h118v62h46v16h-402v-78h64v-18h-22v-54h78v-256h-40v-12h36v-154h218v154q9 -1 12 1v6h-98v41h148v24h134
v-58zM467 534v148h-10v-148h10zM617 316v44h-122v-20h18v-24q7 4 19 4h18l1.5 -2t4.5 -2h61zM543 132v176h-90v-78h46v-92h-46v-6h90zM199 316v228h-62v-16h-66v16h-10v-228q16 2 24 2v128h78v-72h28v-48h-16v-10h24zM145 294v12h-12v-12h12zM491 68v14h-62v48h-310v-62h372
z" />
    <glyph glyph-name="h" unicode="h" horiz-adv-x="573" 
d="M528 609h-42v-283h14v-317h-96v164q-6 6 -6 5q1 10 -6.5 26t-7.5 18v121h-234v-39h32v-289h-157v289h28v295h-16v147h125v-147h-12v-183h27v34h109v-34h98v274q1 1 1 2q2 -1 3 0q1 48 -3 60h143v-143zM516 627v107h-105v-107h51v24h24v-24h30zM462 327v281h-14v-281h14z
M146 647v83h-12v-83h12zM72 615v115h-12v-115h12zM108 359v239h-41v-239h41zM104 73v105h-40v82h-12v30h-9v-217h61z" />
    <glyph glyph-name="i" unicode="i" horiz-adv-x="763" 
d="M726 677h-224v-557h139q6 1 14 -10q1 -4 1 -36h48v-77h-90q-30 0 -75 -5q-3 -1 -13.5 -4t-12.5 -3h-482v89h118v16q1 1 25 1q16 0 20 4.5t7 26.5h30v294h32v235h-198v62h-36v75h421v-16h276v-95zM452 689v19h-24v14h-61v-293h61v215h-18v45h42zM352 429v295h-29v-295h29z
M264 667v41h-185v-41h185zM630 53v23h-198v328h-185v-281h14v-74h169q1 1 1.5 2.5t2.5 1.5h196z" />
    <glyph glyph-name="j" unicode="j" horiz-adv-x="731" 
d="M700 633h-115v-99q-7 0 -9 -2v-371h-26v-71h-38v-46h-456v51h-35v142h100q8 -14 18 -42v-61h312v27h-29v441h-37v31h-111v65h306q7 -12 15 -13h105v-52zM501 611v21h-46v-21h46zM536 359v233h-92v-233h92zM512 134v26h-24v-26h24zM494 64v56h-420v-56h420z" />
    <glyph glyph-name="k" unicode="k" horiz-adv-x="515" 
d="M470 71h-114v163q7 0 8 2v24h-40v39h-78q2 41 -3 60q-2 9 -12 9h-71v-70h28v-232h-146v290h14v372h140v-258h12v64h58v80h96q-1 13 1 36q0 1 11 22q8 15 6 24h34v-198h-16v-26h-100v-54h-60v-16q24 -20 53 -40h91v-48h46v-80q19 -3 42 0v-163zM240 342h-30v18h30v-18z
M368 530v40h-90v-40h90zM374 274v78h-46v-78h46zM178 470v124h-56v94h56v20h-102v-350h50v112h52zM446 120v100h-42v-100h42zM176 105v163q-47 3 -94 0v-9h38v-171q-13 -1 -38 0v-10h82q-1 23 12 27z" />
    <glyph glyph-name="l" unicode="l" horiz-adv-x="706" 
d="M665 36h-34v-18h-473v18h-50v60h-74v647h203v-600q9 3 23 -3q11 -4 21 -9v-22h384v-73zM115 636v75q-17 0 -20 1q-3 10 -13 10q-3 0 -13 -9q1 -1 2 -38q1 -47 25 -47q14 0 19 8zM219 122v589h-21v-589h21zM653 66v29h-83q0 -6 -2 -8h-327v12h-117v-43h45q0 6 2 8h407v-18
h19v20h56zM177 120v191h-107v-191h107z" />
    <glyph glyph-name="m" unicode="m" horiz-adv-x="708" 
d="M640 32h-121v24h-24v390h24v93h-141v-67h10v-144h-10v-154h-63v154h-133v-192h36v-97q1 0 -19 0q-13 0 -17 -7h-139v406h36v33h-24v61h85v-60h109v38h66v172h299q2 -7 11 -7q15 0 15 1v-644zM606 555v121h-273v-121h273zM624 55v431h-77v-41h70v-389l-71 -1h78zM374 340
v122h-47q0 -6 -2 -8h-75q-2 2 -2 8h-151v-122h277zM204 52v76h-93v-76h93zM76 52v76h-9v-76h9z" />
    <glyph glyph-name="n" unicode="n" horiz-adv-x="645" 
d="M625 30h-125v92h-148v136h-79v284h-54v-54h-30v-424h30v-30l6 -7h-194v644h194v-24h171v106h7v-416h84v-129q-6 0 -8 -2v-7h21v472h17v26h108v-275h-11v196h-97q1 15 0 34h-9v-529h30v176h81q0 2 0 -16q0 -11 6 -12v-241zM355 274v273h-72v-273h72zM471 224v105h-83v-105
h83zM109 576v85h-66v-85h66zM499 171v3l-19 2v-3zM137 111v386h-48v-434h20v48h28z" />
    <glyph glyph-name="o" unicode="o" horiz-adv-x="736" 
d="M704 116h-67q-7 -45 1 -98h-546v53q-21 7 -51 5v594l112 7q5 45 0 103h458v-103q32 2 93 7v-568zM689 140v518h-10v-518h10zM663 142v378q-10 0 -10 15q1 11 -1 33q-1 28 -1 37q0 36 12 53h-119v-516q100 5 119 0zM519 197v415h-299v-50q17 -3 52 -11v-49q-17 -6 -52 -6
v-299h299zM201 93v450h-97v-450h97z" />
    <glyph glyph-name="p" unicode="p" horiz-adv-x="533" 
d="M498 489h-22v-78h-36v-46h-264v-364h-172v427h32v284h54v56h222v22h96v-32h90v-269zM400 683v93h-78v-93h78zM466 425v83h-46v-83h46zM408 431v57h-38v162h-236v-5h92v-59h-92v-85h36v-70h238zM120 549v123h-60v-123h60zM426 389v11h-258v-11h258zM160 421v59h-50v-59h50
zM156 107v273h-112v-273h112z" />
    <glyph glyph-name="q" unicode="q" horiz-adv-x="752" 
d="M722 40h-73v22h-180v22h-358v48h-42v112h-50v332h34v166h86v20h345v-16h70v-192h66v-124h-26v-116h-16v-162h104v-52h40v-60zM608 434v102h-75v-102h75zM520 328v130h-65v-130h65zM258 608v82h-107v-82h107zM510 472v34h-48v132h-187v-52h-74v-56h-17v-332h276v18h-120
v56h120v42h-22v158h72zM670 106v26h-108v76h-67v-76h-376v-26h551zM166 282v284h-137v-284h137z" />
    <glyph glyph-name="r" unicode="r" horiz-adv-x="535" 
d="M496 377h-50v-352h-84v56q0 40 -16 43v253h-170v-367h-125v589h46v98q9 -3 16 -3q17 0 17 22q0 7 -3 26q-2 16 -1 22h291v-67q15 -5 57 -5l5 -205l14 -1zM464 502v164h-40v-164h40zM484 398v66h-50v-66h50zM425 485l-12 1l-6 164h-226q-2 -8 0 -24q2 -22 2 -26
q0 -25 -18 -27v-128h259zM163 595v55q-26 0 -36 5l-13 27v-87h49zM417 393v40h-268v-40h268zM428 139v237h-40v-237h40zM132 398v175q-33 0 -60 10v-185h60zM158 36v335h-91v-335h91z" />
    <glyph glyph-name="s" unicode="s" horiz-adv-x="564" 
d="M528 55q-32 1 -68 -3q-2 -1 -4.5 -10.5t-10.5 -9.5q-4 0 -11 2v-47h-298q-17 66 -17 62q0 11 14 19q2 44 2 120h234q2 15 16 16q26 2 30 4v99h-278v149q-50 4 -100 0v240h122q5 35 0 67h242v-114q11 3 36.5 0t38.5 0v-164h-79q-4 76 0 151q-7 4 -215 -1v-168
q16 -6 16 -33q0 -4 -2 -31q-2 -20 0 -31h238v-47q44 -6 94 0v-270zM461 603q0 29 -48 30v-122h47q-10 15 -10 34q0 14 5.5 33.5t5.5 24.5zM153 495v188q-6 1 -100 0v-188h100zM414 352h-259q38 -7 107 -18zM419 97v96q-22 3 -29 -7q-3 -9 -5 -18h-195q-10 0 -23 -7.5
t-16 -15.5v-80h252q5 7 11 15.5t5 16.5zM403 26v9l-239 -5v-9z" />
    <glyph glyph-name="t" unicode="t" horiz-adv-x="711" 
d="M671 609h-212v-3h24v-369h-24v-184h-150v552h-7v-528h-26v528h-248v106h38v18h63v-19h49v19h55v-19h79v34h359v-135zM619 627v109h-289v-53h50v-56h239zM465 257v335h-99v-97h74v-238h25zM119 649v69h-45v-69h45z" />
    <glyph glyph-name="u" unicode="u" horiz-adv-x="642" 
d="M610 377h-10v-178h-20v-154h-513v94h-40v81h32v151h-42v327q9 -4 30 -4t30 4h103v-139q0 -1 -1 -2q-2 1 -3 0v-103h44v-113h-26v-121h10v-44h223v428q6 0 8 2v66h85q0 -6 2 -8h62v-60h26v-227zM508 579v77h-53v-77h53zM566 367v289h-45v-154h-74v-173h45v38h74zM556 115
v83h-64v68h-43v-151h107zM166 463v95h-90v118h-35v-213h125zM210 351v95h-69v-39h24v-56h45zM130 63v263h-24v52h-19v-315h43z" />
    <glyph glyph-name="v" unicode="v" horiz-adv-x="619" 
d="M562 324h-10v-64h-20v-84h-44v-36h-52v-14h-44v-44h-42v-22h-117v66h-52v14h-60v110h-90v202h50v28h-56v236h137v-236h-12v-28h22v-136h54v-64h50v-48h89q3 7 -4 10v104h46v94h36v17q-2 1 -8 1v288h127v-394zM542 446v264h-87v-264h87zM524 412v18h-49v-18h49zM450 156
v126h-15v-68h-56v-58h71zM146 270v168h-95v-168h95zM264 178v60h-65v-60h65z" />
    <glyph glyph-name="w" unicode="w" horiz-adv-x="674" 
d="M626 36h-258q0 4 -1 7h-283v37h-50v127h26v137h-44v379h160v-240h12v-218h60v-46h44v-58h14v40h22v118h78v-122h32v-42h30v80h20v89h-10v9h12v179h-12v13q9 -1 16 6v100h38v118h52v-74h32v-85h-16v-161h20v-271h-14v-29h20v-93zM604 178v215h-18v118h-58v-131h40v-79h-50
v-123h86zM572 130v27h-6v-27h6zM152 408v307h-116v-307h116zM394 162v131h-34v-131h34zM536 58v83h-32v-72h-58v-11h90zM164 224v55h-94v-63h54q2 8 17 8q24 0 23 0zM278 60v135h-130v-135h130z" />
    <glyph glyph-name="x" unicode="x" horiz-adv-x="677" 
d="M650 590h-22v-118h-90v-68q0 -1 -5 -8.5t-6 -11.5q-5 -15 -1 -46h-28v-31h40v-59h-16v-34h112v-192h-145v110h-80v100h-93v-82h-17v44h-105v-87h127v36h7v-41h-86q-2 -2 -2 -8h-66v-54q-56 -6 -59 -6h-42v60h-28v93h44v46h74v54h116v75h-48l-44 50v58h-38v86h-94v97h16
v56h207v-22h24v-160h62v-74q-60 1 -62 0v-6h149v200h36v42h66v54h97v-153zM612 488v147h-25v-50h-93v50h-29v-147h147zM450 338v69h-67v-69h67zM154 564v133h-51v-133h51zM236 478v75h-75v-75h75zM453 309h-72v-53h72q-1 36 0 53zM618 28v113h-115v-113h115z" />
    <glyph glyph-name="y" unicode="y" horiz-adv-x="654" 
d="M633 413h-38v-42h-120v-336h-26v300h-106v-215h9v200h85v-305h-84q1 19 -1 30h-9v-10h-62v336h-140v40h-114v355h174v-138h10v-160h232v32h56q-4 -27 3 -32v278q16 11 22 10h59v-48h50v-295zM623 427v271h-84v-271h84zM165 629v131h-124v-131h124zM165 443v7h-124v-7h124
zM371 55v39q-7 6 -16 18h-36v-57h52z" />
    <glyph glyph-name="z" unicode="z" horiz-adv-x="711" 
d="M678 654h-35v-103h-30v-13h-89v-89h-40v-75h-58v-38h-38v-36h-191v-101h53v-46q-24 2 -53 0v-7h310q6 -15 47 -16q38 0 38 -20q0 -4 -1 -10h66v-94q-4 1 -12 -5h-527q-1 6 -11 6l-18 -1v57h-41v83h13v240h26v-240h21v240h103v19h29v-60h12v11q0 -2 5 -2q14 0 7 60
q-1 9 3 37h99v7q-2 1 -76 0v64h78v39q16 -2 34 0v6h-13v41h66v15h21v31h-458v116h34v16h221v-15h182l2 -4q0 -5 1 -6q9 -11 102 -11q3 0 46.5 1t45.5 1q-4 0 26 -6v-92zM197 432h-89v13h89v-13zM87 432h-26v13h26v-13zM632 565v113h-79v-113h79zM454 561v5h-20v-5h20z
M259 690v92h-196v-92h79q-20 4 -36 1v88h127v-89h26zM471 387v77h-54v-20h43v-37h-43v-20h54zM634 29v18h-503v-18h503z" />
    <glyph glyph-name="braceleft" unicode="{" horiz-adv-x="479" 
d="M449 643h-7v18h-161v-585h131v16h13q0 -18 8 -16v-57h-243q-12 12 -43 16q-24 2 -49 4v701h183v-10h168v-87zM235 91v621h-121v-621h25v588h83v-588h13zM87 341h-75v72h75v-72zM82 358v43h-49v-43h49z" />
    <glyph glyph-name="bar" unicode="|" horiz-adv-x="233" 
d="M201 -17h-115v35h-29v323h3v37h-26v392h112v-360h35v-58h-55v26h-29v-37h67v-66h37v-292zM172 364v29h-32v-29h32zM184 1v256h-84v-256h84z" />
    <glyph glyph-name="braceright" unicode="}" horiz-adv-x="510" 
d="M393 103q-4 0 -6 -1v-89h-119q0 15 -2 20h-5v-14h-29v14h-196v82h10v20h17v-20h169v570h-185v-20h-11v20h-16v44h42v34h206v14h119v-598q2 -2 6 -2v-74zM267 116v569h-5v-569h5zM381 115v48h-51v-48h51zM487 355h-80v75h80v-75zM453 367v37h-35v-37h35z" />
    <glyph glyph-name="asciitilde" unicode="~" horiz-adv-x="386" 
d="M348 704h-69v-43h-101v46h-46v-43h-107v60h58v38h106v-41h49v41h110v-58zM152 721v26h-52v-26h52z" />
    <glyph glyph-name="exclamdown" unicode="&#xa1;" horiz-adv-x="215" 
d="M25 623h133v-308h17v-303h-144v208h-6v403zM45 779h139v-112h-139v112zM45 583v-343h95v343h-95zM94 762v-75h78v75h-78z" />
    <glyph glyph-name="section" unicode="&#xa7;" horiz-adv-x="835" 
d="M808 384q0 -76 -20 -130q-30 -79 -66 -121q-23 -27 -55 -55q-10 -9 -50 -34q-51 -31 -68 -31q-2 0 -22 -7.5t-33 -7.5q-3 0 -8.5 -1.5t-9.5 -1.5t-11.5 -2t-10.5 -3q-42 -3 -85 0q-14 1 -24 1q-30 0 -86 26q-43 19 -72 39q-40 28 -80 74q-54 62 -72 133q-17 68 -17 121
q0 137 84 245q91 117 243 144q30 6 109 6q4 0 11 -3t10.5 -3t27.5 -6.5t27 -6.5q20 0 100 -44q91 -60 138 -156q40 -84 40 -176zM790 384q0 43 -19 117q-15 56 -68 122q-58 72 -119 97q-55 22 -63 22q-4 0 -37 9t-37 9q-119 0 -200 -37q-98 -47 -163 -158q-48 -82 -48 -181
q0 -66 23 -127q35 -97 115.5 -165t179.5 -82q28 -3 93 -3q4 0 12 1.5t12 1.5t8.5 1.5t8.5 1.5t27.5 7.5t25.5 7.5t44 19q69 32 119 94q25 32 47 76q39 79 39 167zM644 633q0 -8 -16 -45t-22 -37q-5 0 -19 7q0 2 1 6q5 2 17 10q-2 12 -11.5 39t-9.5 30q0 4 4 8q19 -12 19 -40
q3 0 8 -6q6 12 18 37q11 0 11 -9zM577 619q0 -29 -25 -29q-4 0 -15.5 2t-16.5 2v41.5v42.5q15 -8 15 -25q3 -1 8.5 1.5t8.5 2.5q8 0 16.5 -15t8.5 -23zM438 637q-7 -8 -25 -9t-18 -10q0 -5 8 -13q5 0 14 9h11q0 -8 -1 -11q-5 -10 -15 -10h-11q-13 0 -21 16q-6 12 -6 19
q0 38 44 38q4 0 9.5 -10t10.5 -19zM371 594q-40 -10 -47 -10q-17 0 -17 27q0 22 19 35q7 2 23 10q3 10 3 12t5 7q1 0 9 -5q5 -18 5 -17v-59zM297 657q-1 0 -6.5 -1.5t-6.5 -1.5q-7 6 -1 18h14v-15zM495 446q0 -11 -12 -11q-4 0 -18 7v11q10 0 23 6q7 -7 7 -13zM304 637
q0 -2 -6 -9q-1 -11 -1 -53q-1 0 -7.5 -1.5t-9.5 -1.5q0 3 -1.5 8.5t-1.5 9.5q0 24 7 56q4 1 12 5q8 -8 8 -14zM431 448q-8 -5 -26 -16l-1.5 7.5t-1.5 16.5l8 1.5t18 1.5l3 -3v-8zM272 638l-10 -38q-6 -22 -17 -37q-15 5 -32 57q1 0 3.5 2t6.5 2t8.5 -10t7.5 -18
q11 3 16.5 21.5t16.5 20.5zM204 638l-4 -14h-14v9q-1 5 2.5 6t3.5 2q8 0 12 -3zM538 270l-11 5l5 31zM206 555q-5 -9 -20 -16q-1 46 3 73l-3 5h20v-62zM656 336q0 -24 -7 -34q-17 -16 -47 -52q0 -5 -5 -15q-18 -22 -54 -24q-30 -1 -61 -2q-6 -4 -4 -9q-37 -23 -48 -23
q-3 0 -17 7.5t-18 7.5t-40.5 -6t-39.5 -6q-34 0 -73 16.5t-58 16.5q-22 0 -62 -11q6 7 46 23t46 16q8 0 35 -24.5t43 -24.5h39q27 0 59 13q5 2 6 3.5t1 3.5q-2 4 -2 7q54 2 153 7q25 2 38 17q3 3 7 43q0 -5 7 -18q11 15 11 24q0 4 -6 21.5t-6 21.5q0 11 12 23q2 7 -11 7
q-17 0 -45 -25q1 -3 4 -3q-8 -9 -16 -10q-32 -7 -70 -7q4 0 -66 20q31 2 31 19q0 13 -18 24q5 -2 19 -8.5t18 -6.5q10 0 17 12q4 10 8 19v-31h24q11 6 35 15q-8 -8 -15 -22v-17l0.5 -1.5t5.5 -1.5l28 20q6 4 39 18q0 7 -4 17q-54 64 -146 106l-6 -6q-18 -3 -81 -24
q20 17 43 29q10 3 20 5q14 5 19 15h-50q-5 -1 -49 -20q-49 -21 -75 -36q-3 -2 -50 -36q-40 -30 -46 -30h-65q20 12 23 12q4 0 5 -1.5t4 -1.5q29 0 39 6q22 19 73 56q45 29 79 43q63 25 78 25q47 0 95 -31q38 -26 64 -60q13 -13 37 -46q6 -9 -4 -19q3 -6 16 -9t14 -3
q24 -20 24 -34zM179 539q-41 -25 -47 -25q-15 0 -13 26q0 23 23 46q12 2 14.5 8t8.5 23h11q3 -26 3 -78zM571 107q0 -23 -10 -42q-3 -4 -9 -9q-2 0 -8 -3.5t-11 -3.5q-18 0 -29 23q-9 18 -9 38q0 10 2 17q4 12 20.5 23.5t24.5 11.5q17 0 24 -26q5 -15 5 -29zM486 117l-7 -7
q-2 1 -9 16q-5 11 -10 11q-21 0 -21 -44q0 -27 5 -46q-13 -7 -21 -3v79q-1 6 12.5 19.5t18.5 13.5q32 0 32 -23v-16zM407 98q-6 0 -23.5 1.5t-20.5 1.5q-10 0 -10 -9q0 -34 23.5 -34t27.5 -4q-8 -11 -24 -11q-20 0 -31.5 18t-11.5 35q0 29 11 39.5t39 10.5q6 0 13 -11t7 -17
v-20zM325 135q-17 -17 -52 -56q33 -9 37 -9q11 0 15 -4v-10q-35 5 -50 5l-9 -3q-6 0 -20 7v14q12 20 52 54q-3 7 -25.5 10.5t-26.5 10.5v10q29 -6 79 -15v-14zM559 606v29q-7 7 -12 7q-4 0 -12 -7v-26q8 -7 14 -7t10 4zM412 640q3 8 -10 14l-7 -7v-11h14zM517 487l-17 10
l-2 -4l17 -10zM349 618q0 17 -10 18q-14 3 -14 -22q0 -11 4 -18h13q7 8 7 22zM641 324v20q-5 0 -12 1.5t-11 1.5q-10 0 -10 -18q0 -11 7 -31q1 1 13 4q13 11 13 22zM161 558q0 15 -11 20q-16 -19 -16 -30q0 -4 1.5 -9t1.5 -6q1 0 2 1t5 1q17 0 17 23zM465 209q-5 0 -16 2
t-14 2q-12 0 -19 -14q8 -4 19 -4q18 0 30 14zM556 107q0 39 -15 39q-13 0 -21.5 -12t-8.5 -29q4 -38 21 -38q4 0 4 1.5t3 1.5q17 0 17 37zM395 114q-3 6 -10.5 13t-10.5 7q-15 0 -18 -20q40 0 39 0z" />
    <glyph glyph-name="degree" unicode="&#xb0;" 
d="M238 540h-196v210h196v-210zM204 655v55h-58v-55h58zM126 655v72h-69v-72h69zM218 554v87h-81v-87h81zM114 589v43h-54v-43h54z" />
    <glyph glyph-name="paragraph" unicode="&#xb6;" 
d="M241 289h-196v210h196v-210zM207 404v55h-58v-55h58zM129 404v72h-69v-72h69zM221 303v87h-81v-87h81zM117 338v43h-54v-43h54z" />
    <glyph glyph-name="middot" unicode="&#xb7;" 
d="M241 289h-196v210h196v-210zM207 404v55h-58v-55h58zM129 404v72h-69v-72h69zM221 303v87h-81v-87h81zM117 338v43h-54v-43h54z" />
    <glyph glyph-name="middot" unicode="&#x2219;" 
d="M241 289h-196v210h196v-210zM207 404v55h-58v-55h58zM129 404v72h-69v-72h69zM221 303v87h-81v-87h81zM117 338v43h-54v-43h54z" />
    <glyph glyph-name="middot" unicode="&#x2219;" 
d="M241 289h-196v210h196v-210zM207 404v55h-58v-55h58zM129 404v72h-69v-72h69zM221 303v87h-81v-87h81zM117 338v43h-54v-43h54z" />
    <glyph glyph-name="questiondown" unicode="&#xbf;" horiz-adv-x="573" 
d="M22 384h44v20h106v81h43v81h116v-133h-52v-92h-78v-26h-81v-179h38v-34h245v83h40v90h92v-127h-43v-118h-52v-58h-314v40h-49v38h-55v334zM166 730h38v52h144v-141h-49v-32h-133v121zM34 128v-61h72v61h-72zM40 364v-173h69v173h-69zM420 168v-113h61v113h-61zM201 704
v-78h86v78h-86z" />
    <glyph glyph-name="quoteleft" unicode="&#x2018;" horiz-adv-x="184" 
d="M28 785h49v-72h23v-26h64v-141h-136v239zM48 672v-112h98v72h-57v40h-41z" />
    <glyph glyph-name="quoteright" unicode="&#x2019;" horiz-adv-x="184" 
d="M164 546h-49v72h-24v26h-63v141h136v-239zM143 658v112h-98v-72h58v-40h40z" />
    <glyph glyph-name="quotedblleft" unicode="&#x201c;" horiz-adv-x="374" 
d="M213 779h49v-72h23v-26h63v-141h-135v239zM233 667v-113h98v72h-58v41h-40zM28 785h49v-72h23v-26h64v-141h-136v239zM48 672v-112h98v72h-57v40h-41z" />
    <glyph glyph-name="quotedblright" unicode="&#x201d;" horiz-adv-x="374" 
d="M164 546h-49v72h-24v26h-63v141h136v-239zM143 658v112h-98v-72h58v-40h40zM349 540h-49v72h-24v26h-63v141h136v-239zM328 652v112h-98v-72h58v-40h40z" />
    <glyph glyph-name="ellipsis" unicode="&#x2026;" horiz-adv-x="706" 
d="M204 35h-148v154h24v8h106q2 -8 8 -9q5 1 10 1v-154zM166 69v42h-86v54h-6v-96h92zM449 35h-148v154h24v8h106q2 -8 8 -9q5 1 10 1v-154zM411 69v42h-86v54h-6v-96h92zM645 23h-148v154h24v8h106q2 -8 8 -9q5 1 10 1v-154zM607 57v42h-86v54h-6v-96h92z" />
  </font>
</defs>
</svg>
